<svg width="78" height="78" fill="none" xmlns="http://www.w3.org/2000/svg"><path d="M71.707 34.268H67.96a3.69 3.69 0 00-3.522-2.707H60.44v-9.78a1.033 1.033 0 00-.503-.912L31.723 4.574a1.042 1.042 0 00-1.047 0L2.455 20.87a1.05 1.05 0 00-.523.912v32.59a1.053 1.053 0 00.526.912L30.682 71.58c.16.092.342.14.527.14.19 0 .375-.048.54-.14l14.853-8.567v6.193a4.457 4.457 0 004.496 4.47h20.609a4.483 4.483 0 004.525-4.47V38.808a4.542 4.542 0 00-4.525-4.54zm-7.231-.601a1.528 1.528 0 011.528 1.528v.102a1.528 1.528 0 01-1.528 1.528h-6.118a1.528 1.528 0 01-1.529-1.528v-.102a1.528 1.528 0 011.529-1.528h6.118zM31.209 6.702l11.727 6.77-26.116 15.08L5.092 21.78 31.209 6.702zm-1.001 62.141l-26.17-15.08v-30.16l26.17 15.079v30.161zm1-31.985l-12.283-7.091 26.117-15.079 12.284 7.092-26.117 15.078zm15.394 1.95V60.58l-14.289 8.262v-30.16l26.02-15.08v7.959h.033a3.69 3.69 0 00-3.522 2.707h-3.746a4.517 4.517 0 00-4.496 4.54zm27.524 30.397a2.375 2.375 0 01-2.42 2.364H51.099a2.35 2.35 0 01-2.39-2.364V38.808a2.41 2.41 0 012.39-2.434h3.787a3.602 3.602 0 003.481 2.557h6.072a3.601 3.601 0 003.481-2.557h3.788a2.434 2.434 0 012.419 2.434v30.397z" fill="#80B4F4"/><path d="M52.31 49.46h1.102a1.053 1.053 0 000-2.107h-.042v-2.857h2.904a1.014 1.014 0 001 .71 1.056 1.056 0 001.06-1.05v-.708a1.067 1.067 0 00-1.065-1.058h-4.96a1.052 1.052 0 00-1.045 1.058v4.96a1.046 1.046 0 001.046 1.051zm.007 9.625h4.964a1.053 1.053 0 001.052-1.053V53.07a1.053 1.053 0 00-1.052-1.053h-4.964a1.053 1.053 0 00-1.053 1.053v4.963a1.052 1.052 0 001.053 1.053zm1.053-4.963h2.858v2.857H53.37v-2.857zm.042 12.483h-.042v-2.857h2.847a1.058 1.058 0 002.117.002v-1.015a1.098 1.098 0 00-1.065-1.093h-4.96a1.082 1.082 0 00-1.044 1.093v4.96a1.015 1.015 0 001.045 1.016h1.102a1.053 1.053 0 000-2.106z" fill="#80B4F4"/><path d="M59.693 43.683l-3.083 3.083-.938-.938a1.055 1.055 0 00-1.717.341 1.053 1.053 0 00.228 1.148l1.683 1.682a1.053 1.053 0 001.489 0l3.828-3.828a1.053 1.053 0 10-1.49-1.489zm0 19.439l-3.083 3.083-.938-.938a1.053 1.053 0 10-1.489 1.49l1.683 1.682a1.053 1.053 0 001.489 0l3.828-3.828a1.053 1.053 0 10-1.49-1.49v.001zm10.801-18.175h-6.612a1.053 1.053 0 000 2.105h6.612a1.053 1.053 0 000-2.105zm.001 9.626h-6.613a1.053 1.053 0 100 2.106h6.613a1.053 1.053 0 000-2.106zm0 9.626h-6.613a1.053 1.053 0 100 2.106h6.613a1.053 1.053 0 100-2.106z" fill="#80B4F4"/></svg>