<svg width="60" height="60" fill="none" xmlns="http://www.w3.org/2000/svg"><path d="M56.86 51.15a5.9 5.9 0 002.642-4.916 5.906 5.906 0 00-4.916-5.811v-5.989a.983.983 0 00-.984-.983H30.986v-3.983c8.128-.544 14.277-7.573 13.733-15.7C44.176 5.638 37.147-.51 29.02.033c-8.128.543-14.276 7.572-13.733 15.7A14.75 14.75 0 0029.02 29.467v3.983H6.403a.983.983 0 00-.983.983v5.989A5.892 5.892 0 003.144 51.15c-.328.219-.634.47-.913.749a5.86 5.86 0 00-1.728 4.168v2.95c0 .543.44.983.984.983h9.833c.543 0 .983-.44.983-.983v-2.95a5.86 5.86 0 00-1.728-4.171 5.94 5.94 0 00-.913-.745 5.892 5.892 0 00-2.276-10.728v-5.006H29.02v5.006a5.892 5.892 0 00-2.275 10.727c-.329.219-.635.47-.913.749a5.86 5.86 0 00-1.728 4.168v2.95c0 .543.44.983.983.983h9.833c.543 0 .984-.44.984-.983v-2.95a5.86 5.86 0 00-1.728-4.171 5.941 5.941 0 00-.914-.745 5.892 5.892 0 00-2.275-10.728v-5.006H52.62v5.006a5.892 5.892 0 00-2.276 10.727c-.328.219-.634.47-.913.749a5.86 5.86 0 00-1.728 4.168v2.95c0 .543.44.983.984.983h9.833c.543 0 .983-.44.983-.983v-2.95a5.86 5.86 0 00-1.728-4.171 5.941 5.941 0 00-.913-.745zm-46.524 4.917v1.967H2.47v-1.967a3.91 3.91 0 011.151-2.78 4.031 4.031 0 015.564 0 3.909 3.909 0 011.151 2.78zm0-9.833a3.933 3.933 0 11-7.866 0 3.933 3.933 0 017.866 0zm23.6 9.833v1.967h-7.867v-1.967a3.91 3.91 0 011.152-2.78 4.031 4.031 0 015.564 0 3.91 3.91 0 011.15 2.78zm0-9.833a3.933 3.933 0 11-7.867 0 3.933 3.933 0 017.867 0zM30.003 27.55c-7.06 0-12.783-5.723-12.783-12.783S22.943 1.985 30.003 1.985s12.783 5.723 12.783 12.783c-.008 7.056-5.727 12.775-12.783 12.783zm19.666 18.683a3.933 3.933 0 117.866 0 3.933 3.933 0 01-7.866 0zm7.866 11.8H49.67v-1.967a3.91 3.91 0 011.151-2.78 4.031 4.031 0 015.564 0 3.91 3.91 0 011.151 2.78v1.967z" fill="#80B4F4"/></svg>