<svg width="50" height="50" fill="none" xmlns="http://www.w3.org/2000/svg"><g clip-path="url(#clip0)" fill="#80B4F4"><path d="M18.369 50H2.304a2.209 2.209 0 01-2.206-2.206V31.729c0-1.216.99-2.206 2.206-2.206h4.715c-.656-1.891-.739-2.608-.739-2.988a4.066 4.066 0 014.062-4.061 4.066 4.066 0 014.062 4.061c0 .38-.083 1.097-.74 2.988h4.705c1.216 0 2.206.99 2.206 2.206v5.56a.932.932 0 01-1.256.874c-2.321-.863-3.147-.992-3.433-.992a2.594 2.594 0 00-2.591 2.59 2.594 2.594 0 002.59 2.591c.287 0 1.113-.128 3.434-.991a.932.932 0 011.256.873v5.56c0 1.216-.99 2.206-2.206 2.206zM2.304 30.994a.736.736 0 00-.735.735v16.065c0 .405.33.735.735.735h16.065c.405 0 .735-.33.735-.735v-4.79c-2.058.728-2.82.82-3.218.82a4.066 4.066 0 01-4.062-4.063 4.066 4.066 0 014.062-4.061c.398 0 1.16.091 3.218.82v-4.79a.736.736 0 00-.735-.736h-5.47a.933.933 0 01-.874-1.252c.79-2.156.908-2.934.908-3.207a2.594 2.594 0 00-2.59-2.59 2.594 2.594 0 00-2.592 2.59c0 .273.118 1.05.908 3.207a.931.931 0 01-.874 1.252H2.304zm16.069-10.517h-5.56a.932.932 0 01-.873-1.256c.862-2.32.991-3.147.991-3.433a2.594 2.594 0 00-2.59-2.59 2.594 2.594 0 00-2.592 2.59c0 .286.13 1.112.992 3.433a.931.931 0 01-.873 1.256h-5.56a2.209 2.209 0 01-2.206-2.206V2.206C.102.99 1.092 0 2.308 0h3.558a.735.735 0 110 1.47H2.308a.736.736 0 00-.735.736v16.065c0 .405.33.735.735.735h4.79c-.728-2.058-.82-2.82-.82-3.218a4.066 4.066 0 014.062-4.061 4.066 4.066 0 014.062 4.061c0 .399-.091 1.16-.82 3.218h4.79c.406 0 .736-.33.736-.735V12.8a.932.932 0 011.252-.874c2.156.79 2.934.908 3.207.908a2.594 2.594 0 002.59-2.59 2.594 2.594 0 00-2.59-2.591c-.273 0-1.05.117-3.207.908a.933.933 0 01-1.252-.875v-5.48a.736.736 0 00-.735-.736H9.332a.735.735 0 110-1.471h9.04a2.21 2.21 0 012.207 2.206v4.716c1.89-.657 2.608-.74 2.988-.74a4.066 4.066 0 014.061 4.062 4.066 4.066 0 01-4.061 4.062c-.38 0-1.097-.082-2.988-.739v4.704c0 1.216-.99 2.206-2.206 2.206zm21.285 7.05a4.066 4.066 0 01-4.062-4.062c0-.38.083-1.097.739-2.988H31.63a2.209 2.209 0 01-2.206-2.206v-5.56a.932.932 0 011.255-.873c2.322.863 3.148.992 3.434.992a2.594 2.594 0 002.59-2.591 2.594 2.594 0 00-2.59-2.591c-.286 0-1.112.129-3.433.992a.931.931 0 01-1.256-.874v-5.56A2.21 2.21 0 0131.631 0h16.065c1.216 0 2.206.99 2.206 2.206v10.969a.735.735 0 11-1.47 0V2.206a.736.736 0 00-.736-.735H31.63a.736.736 0 00-.735.735v4.79c2.058-.728 2.82-.82 3.218-.82a4.066 4.066 0 014.062 4.063 4.066 4.066 0 01-4.062 4.061c-.398 0-1.16-.09-3.218-.82v4.79c0 .406.33.736.735.736h5.47a.932.932 0 01.874 1.252c-.79 2.156-.908 2.935-.908 3.207a2.594 2.594 0 002.59 2.59 2.594 2.594 0 002.592-2.59c0-.272-.119-1.05-.909-3.207a.932.932 0 01.875-1.252h5.48c.406 0 .736-.33.736-.735v-1.6a.735.735 0 111.471 0v1.6c0 1.216-.99 2.206-2.206 2.206H42.98c.657 1.89.74 2.608.74 2.988a4.066 4.066 0 01-4.062 4.062zM47.693 50H42.95a.735.735 0 110-1.471h4.743c.405 0 .735-.33.735-.736V31.73a.736.736 0 00-.735-.736h-4.79c.728 2.058.819 2.82.819 3.218a4.066 4.066 0 01-4.062 4.062 4.066 4.066 0 01-4.061-4.062c0-.398.09-1.16.82-3.218h-4.79a.736.736 0 00-.736.736v5.469a.932.932 0 01-1.252.874c-2.156-.79-2.935-.908-3.207-.908a2.594 2.594 0 00-2.59 2.591 2.594 2.594 0 002.59 2.591c.272 0 1.05-.118 3.207-.908a.932.932 0 011.252.874v5.481c0 .406.33.736.735.736h7.688a.735.735 0 110 1.47h-7.688a2.209 2.209 0 01-2.206-2.206v-4.715c-1.891.656-2.608.739-2.988.739a4.066 4.066 0 01-4.062-4.062 4.066 4.066 0 014.062-4.062c.38 0 1.097.083 2.988.74V31.73a2.21 2.21 0 012.206-2.207h5.56a.932.932 0 01.873 1.256c-.863 2.321-.992 3.148-.992 3.433a2.594 2.594 0 002.591 2.591 2.594 2.594 0 002.591-2.59c0-.287-.129-1.113-.992-3.434a.931.931 0 01.874-1.256h5.56a2.21 2.21 0 012.206 2.207v16.064c0 1.217-.99 2.206-2.206 2.206z"/></g><defs><clipPath id="clip0"><path fill="#fff" d="M0 0h50v50H0z"/></clipPath></defs></svg>