<svg width="50" height="50" fill="none" xmlns="http://www.w3.org/2000/svg"><g clip-path="url(#clip0)" fill="#80B4F4"><path d="M36.668 43.937a6.11 6.11 0 006.104-6.103V34a2.298 2.298 0 001.562-2.174 2.297 2.297 0 00-2.294-2.294 2.297 2.297 0 00-2.294 2.294c0 1.01.654 1.867 1.561 2.174v3.834a4.644 4.644 0 01-4.639 4.638 4.644 4.644 0 01-4.639-4.639V34a2.298 2.298 0 001.562-2.174 2.297 2.297 0 00-2.294-2.294 2.297 2.297 0 00-2.294 2.294c0 1.01.655 1.867 1.561 2.174v3.834a6.111 6.111 0 006.104 6.103zm5.372-12.94a.83.83 0 11-.002 1.66.83.83 0 01.002-1.66zm-10.743 0a.83.83 0 010 1.659.83.83 0 010-1.659z"/><path d="M3.622 50H47.05c1.12 0 1.994-.975 1.872-2.088l-.855-7.803a.732.732 0 10-1.457.159l.855 7.803a.418.418 0 01-.415.464H26.287a.418.418 0 01-.416-.464l2.112-19.275a.418.418 0 01.416-.372h16.538c.214 0 .393.16.416.372l.883 8.054a.731.731 0 101.456-.16l-.883-8.053a1.88 1.88 0 00-1.871-1.678h-8.104l-1.13-10.322a2.552 2.552 0 00-2.54-2.277h-2.915v-4.176C30.25 4.568 25.681 0 20.067 0 14.45 0 9.882 4.568 9.882 10.184v4.176H6.968a2.552 2.552 0 00-2.54 2.277l-3.346 30.53A2.556 2.556 0 003.622 50zm-1.084-2.674l3.346-30.53c.06-.553.527-.97 1.084-.97h2.914v2.727A2.387 2.387 0 008.23 20.82a2.386 2.386 0 002.383 2.384 2.386 2.386 0 002.384-2.384 2.387 2.387 0 00-1.651-2.267v-2.728h7.01a.732.732 0 100-1.465h-7.01v-4.176c0-4.808 3.911-8.72 8.719-8.72 4.807 0 8.719 3.912 8.719 8.72v4.176h-7.01a.732.732 0 000 1.465h7.01v2.728a2.387 2.387 0 00-1.651 2.267 2.386 2.386 0 002.383 2.384A2.386 2.386 0 0031.9 20.82a2.387 2.387 0 00-1.651-2.267v-2.728h2.914c.557 0 1.023.418 1.083.972l1.114 10.162h-6.962a1.88 1.88 0 00-1.872 1.678l-2.113 19.275c-.023.21-.004.445.037.623H3.622a1.09 1.09 0 01-1.084-1.209zm8.076-27.424a.92.92 0 010 1.837.92.92 0 010-1.837zm18.903 0a.92.92 0 010 1.837.92.92 0 010-1.837z"/></g><defs><clipPath id="clip0"><path fill="#fff" d="M0 0h50v50H0z"/></clipPath></defs></svg>