<svg width="42" height="52" fill="none" xmlns="http://www.w3.org/2000/svg"><path d="M29.464 18H13.536c-.673 0-1.318.105-1.793.293-.476.187-.743.442-.743.707 0 .265.267.52.743.707.475.188 1.12.293 1.793.293h15.928c.673 0 1.318-.105 1.793-.293.476-.187.743-.442.743-.707 0-.265-.267-.52-.743-.707-.475-.188-1.12-.293-1.793-.293zm0 6H13.536c-.673 0-1.318.105-1.793.293-.476.187-.743.442-.743.707 0 .265.267.52.743.707.475.188 1.12.293 1.793.293h15.928c.673 0 1.318-.105 1.793-.293.476-.187.743-.442.743-.707 0-.265-.267-.52-.743-.707-.475-.188-1.12-.293-1.793-.293zm0 6H13.536c-.673 0-1.318.105-1.793.293-.476.187-.743.442-.743.707 0 .265.267.52.743.707.475.188 1.12.293 1.793.293h15.928c.673 0 1.318-.105 1.793-.293.476-.187.743-.442.743-.707 0-.265-.267-.52-.743-.707-.475-.188-1.12-.293-1.793-.293zm0 6H13.536c-.673 0-1.318.105-1.793.293-.476.187-.743.442-.743.707 0 .265.267.52.743.707.475.188 1.12.293 1.793.293h15.928c.673 0 1.318-.105 1.793-.293.476-.187.743-.442.743-.707 0-.265-.267-.52-.743-.707-.475-.188-1.12-.293-1.793-.293zm0 6H13.536c-.673 0-1.318.105-1.793.293-.476.187-.743.442-.743.707 0 .265.267.52.743.707.475.188 1.12.293 1.793.293h15.928c.673 0 1.318-.105 1.793-.293.476-.187.743-.442.743-.707 0-.265-.267-.52-.743-.707-.475-.188-1.12-.293-1.793-.293z" fill="#80B4F4"/><path d="M31 6.384h5c1.326 0 2.598.522 3.535 1.452A4.936 4.936 0 0141 11.341v34.701a4.936 4.936 0 01-1.465 3.505A5.022 5.022 0 0136 51H6a5.022 5.022 0 01-3.536-1.453A4.936 4.936 0 011 46.042v-34.7a4.94 4.94 0 011.464-3.506A5.022 5.022 0 016 6.384h5" stroke="#80B4F4" stroke-width="2" stroke-linecap="round" stroke-linejoin="round"/><path d="M28.5 1h-15A2.5 2.5 0 0011 3.5v5a2.5 2.5 0 002.5 2.5h15A2.5 2.5 0 0031 8.5v-5A2.5 2.5 0 0028.5 1z" stroke="#80B4F4" stroke-width="2" stroke-linecap="round" stroke-linejoin="round"/></svg>