<svg width="50" height="50" fill="none" xmlns="http://www.w3.org/2000/svg"><g clip-path="url(#clip0)" fill="#80B4F4"><path d="M46.148 31.41c-.688 0-1.245.557-1.245 1.245V43.71a3.74 3.74 0 01-3.736 3.736H6.227a3.74 3.74 0 01-3.736-3.736V11.26a3.74 3.74 0 013.735-3.735h11.057a1.245 1.245 0 100-2.491H6.226A6.233 6.233 0 000 11.261v32.451a6.233 6.233 0 006.226 6.226h34.941a6.233 6.233 0 006.226-6.226V32.655c0-.688-.557-1.245-1.245-1.245z"/><path d="M46.9 1.831a5.604 5.604 0 00-7.925 0L16.76 24.047a1.244 1.244 0 00-.32.549l-2.921 10.547a1.245 1.245 0 001.532 1.533l10.547-2.922c.208-.058.396-.168.549-.32L48.36 11.217a5.61 5.61 0 000-7.924L46.9 1.831zM19.472 24.857L37.655 6.674l5.864 5.864-18.183 18.183-5.864-5.864zm-1.171 2.35l4.685 4.686-6.48 1.795 1.795-6.48zm28.3-17.75l-1.321 1.32-5.864-5.864 1.32-1.32a3.113 3.113 0 014.403 0l1.461 1.46a3.117 3.117 0 010 4.404z"/></g><defs><clipPath id="clip0"><path fill="#fff" d="M0 0h50v50H0z"/></clipPath></defs></svg>