<svg width="74" height="74" fill="none" xmlns="http://www.w3.org/2000/svg"><path d="M63.793 14.672H10.207V55.5h53.586V14.672z" fill="#EE6060"/><path d="M66.345 7.017H7.655v7.655h58.69V7.017z" fill="#E92424"/><path d="M40.828 5.741h-7.656v51.035h7.656V5.74z" fill="#E3DDD5"/><path d="M49.759 29.983H0L19.138 49.12H30.62l19.138-19.138z" fill="#A38563"/><path d="M49.759 68.259H0L19.138 49.12H30.62l19.138 19.138z" fill="#8D7356"/><path d="M19.138 49.12L0 68.26V29.983L19.138 49.12zm11.482 0l19.14 19.14V29.983L30.62 49.12z" fill="#806749"/><path d="M45.931 55.5l-6.38-6.38v19.14H74V49.12l-6.38 6.38H45.932zm11.483 8.931a2.552 2.552 0 110-5.104 2.552 2.552 0 010 5.104z" fill="#FFD422"/><path d="M39.552 42.741v6.38L45.93 55.5h21.69L74 49.12v-6.379H39.552zm17.862 8.931a2.552 2.552 0 110-5.103 2.552 2.552 0 010 5.103z" fill="#FFE607"/><path d="M57.414 51.672a2.552 2.552 0 100-5.103 2.552 2.552 0 000 5.103zm0 12.759a2.552 2.552 0 100-5.103 2.552 2.552 0 000 5.103z" fill="#E3DDD5"/></svg>