<svg width="30" height="30" fill="none" xmlns="http://www.w3.org/2000/svg"><path d="M28.242 17.124V2.695a.879.879 0 00-.879-.879H22.91V.88a.879.879 0 10-1.758 0v.937h-3.515V.88a.879.879 0 10-1.758 0v.937h-3.516V.88a.879.879 0 10-1.758 0v.937H7.09V.88a.879.879 0 10-1.758 0v.937H.879a.879.879 0 00-.879.88v22.91c0 .485.393.878.879.878h14.637A7.91 7.91 0 0022.09 30c4.36 0 7.91-3.549 7.91-7.91 0-1.88-.66-3.607-1.758-4.966zM5.332 3.574v.88a.879.879 0 101.758 0v-.88h3.515v.88a.879.879 0 101.758 0v-.88h3.516v.88a.879.879 0 101.758 0v-.88h3.515v.88a.879.879 0 101.758 0v-.88h3.574V7.09H1.758V3.574h3.574zM1.758 24.727V8.847h24.726v6.669a7.866 7.866 0 00-4.394-1.336 7.91 7.91 0 00-6.636 3.61.874.874 0 00-.395-.095H13.3a.879.879 0 100 1.758h1.331a7.842 7.842 0 00-.403 1.758H13.3a.879.879 0 100 1.758h.928a7.83 7.83 0 00.403 1.758H1.758zm20.332 3.515a6.16 6.16 0 01-6.152-6.152 6.16 6.16 0 016.152-6.152 6.16 6.16 0 016.152 6.152 6.16 6.16 0 01-6.152 6.152z" fill="#80B4F4"/><path d="M25.605 21.21H22.97v-2.636a.879.879 0 00-1.758 0v3.516c0 .485.393.879.879.879h3.515a.879.879 0 000-1.758zM7.969 10.664H6.21a.879.879 0 100 1.758h1.758a.879.879 0 100-1.758zm0 3.516H6.21a.879.879 0 100 1.758h1.758a.879.879 0 100-1.758zm0 3.515H6.21a.879.879 0 100 1.758h1.758a.879.879 0 100-1.758zm5.331-5.273h1.759a.879.879 0 100-1.758H13.3a.879.879 0 100 1.758zm0 3.516h1.759a.879.879 0 100-1.758H13.3a.879.879 0 100 1.758zM7.969 21.21H6.21a.879.879 0 100 1.759h1.758a.879.879 0 100-1.758zm12.363-8.788h1.758a.879.879 0 100-1.758h-1.758a.879.879 0 100 1.758z" fill="#80B4F4"/></svg>