<svg width="94" height="94" fill="none" xmlns="http://www.w3.org/2000/svg"><g clip-path="url(#clip0)"><path d="M32.9 38.383c0 .865-.702 1.567-1.567 1.567h-4.7v31.333H51.7V16.45h-7.833v14.1h-9.4v-14.1h-7.834v20.367h4.7c.865 0 1.567.701 1.567 1.566z" fill="#FFF69A"/><path d="M70.5 57.183h-9.4v-9.4h-9.4v23.5h28.2v-23.5h-9.4v9.4z" fill="#36AFAD"/><path d="M92.433 71.283h-70.5V39.95H18.8v31.333h-1.567a1.567 1.567 0 000 3.134h75.2a1.567 1.567 0 000-3.134z" fill="#195C85"/><path d="M26.633 86.95a4.7 4.7 0 100-9.4 4.7 4.7 0 000 9.4zm56.4 0a4.7 4.7 0 100-9.4 4.7 4.7 0 000 9.4z" fill="#EE6060"/><path d="M21.933 14.1a7.05 7.05 0 00-14.1 0v5.483a1.567 1.567 0 003.134 0V14.1a3.916 3.916 0 117.833 0v22.717h3.133V14.1z" fill="#195C85"/><path d="M61.1 47.783h12.533V22.717H65.8v9.4h-6.267v-9.4H51.7v25.066h9.4z" fill="#EE6060"/><path d="M14.1 32.117c0-.865-.702-1.567-1.567-1.567H1.567a1.567 1.567 0 000 3.133h10.966c.865 0 1.567-.701 1.567-1.566zm12.533 7.833h4.7a1.567 1.567 0 000-3.133H4.7a1.567 1.567 0 000 3.133h21.933z" fill="#FDBD40"/><path d="M65.8 22.717h-6.267v9.4H65.8v-9.4z" fill="#FFF69A"/><path d="M70.5 47.783h-9.4v9.4h9.4v-9.4z" fill="#CFDFE8"/><path d="M43.867 16.45h-9.4v14.1h9.4v-14.1z" fill="#E97424"/></g><defs><clipPath id="clip0"><path fill="#fff" d="M0 0h94v94H0z"/></clipPath></defs></svg>