<svg width="50" height="30" fill="none" xmlns="http://www.w3.org/2000/svg"><path d="M41.113 29.297H8.887a8.88 8.88 0 01-6.254-2.565C.935 25.065 0 22.855 0 20.508c0-2.347.935-4.557 2.633-6.224a8.889 8.889 0 014.79-2.446l-.001-.12C7.422 5.258 12.679 0 19.14 0c2.396 0 4.699.721 6.66 2.086a11.741 11.741 0 013.377 3.618 8.72 8.72 0 014.611-1.31c4.383 0 8.028 3.226 8.684 7.428a8.886 8.886 0 014.895 2.462C49.065 15.95 50 18.16 50 20.508c0 2.347-.935 4.557-2.633 6.224a8.88 8.88 0 01-6.254 2.565zM8.887 14.648c-3.285 0-5.957 2.629-5.957 5.86 0 3.23 2.672 5.86 5.957 5.86h32.226c3.285 0 5.957-2.63 5.957-5.86 0-3.231-2.672-5.86-5.957-5.86h-1.465v-1.464a5.866 5.866 0 00-5.859-5.86c-1.54 0-2.996.598-4.101 1.683l-1.577 1.549L27.3 8.5c-1.337-3.384-4.539-5.57-8.158-5.57-4.847 0-8.79 3.942-8.79 8.789 0 .346.055.717.112 1.11l.263 1.82h-1.84z" fill="#80B4F4"/></svg>