<svg width="100" height="100" fill="none" xmlns="http://www.w3.org/2000/svg"><g clip-path="url(#clip0)"><path d="M89.214 85.832l-78.426.003a4.046 4.046 0 01-4.046-4.046L6.74 28.874a4.046 4.046 0 014.046-4.045l78.426-.003a4.046 4.046 0 014.046 4.046l.002 52.915a4.046 4.046 0 01-4.046 4.045z" fill="#4380A0"/><path d="M93.26 81.765c0 2.245-1.801 4.068-4.025 4.068H83.2c2.224 0 4.024-1.823 4.024-4.068l-.001-52.871c0-2.244-1.795-4.062-4.015-4.068h6.027c2.223 0 4.024 1.82 4.024 4.067l.002 52.872z" fill="#3B7191"/><path d="M87.223 78.942c0 .436-.35.79-.781.79h-5.255l-67.627.002a.785.785 0 01-.781-.79l-.002-47.225c0-.436.35-.79.781-.79l67.627-.002h5.255c.432 0 .782.354.782.79l.001 47.225z" fill="#F3F3F3"/><path d="M86.442 79.732h-5.255l-.002-48.805h5.255c.432 0 .782.354.782.79l.001 47.225c0 .436-.35.79-.781.79z" fill="#E4E4E4"/><path d="M94.766 95.313H5.234A5.234 5.234 0 010 90.079v-4.03c0-.446.36-.806.805-.806h98.39c.445 0 .805.36.805.805v4.03a5.234 5.234 0 01-5.234 5.234z" fill="#A9DBF5"/><path d="M99.195 85.243H93.16c.444 0 .805.36.805.805v4.028a5.234 5.234 0 01-5.232 5.236h6.037a5.234 5.234 0 005.23-5.236V86.05a.805.805 0 00-.805-.806zM56.84 90.076H43.16a2.416 2.416 0 01-2.415-2.415v-2.418h18.51v2.418a2.416 2.416 0 01-2.415 2.415z" fill="#88C3E0"/><path d="M71.436 34.372c-.112.795-.38 1.934-.619 2.859-.223.864-1 1.469-1.893 1.469h-2.731c-.892 0-1.67-.605-1.893-1.469-.239-.925-.506-2.064-.618-2.86a1.943 1.943 0 00-.957-1.41L60.2 31.508a1.944 1.944 0 00-1.697-.123c-.747.301-1.874.64-2.798.897a1.954 1.954 0 01-2.216-.904l-1.363-2.358a1.953 1.953 0 01.325-2.373c.684-.67 1.539-1.472 2.173-1.967a1.94 1.94 0 00.743-1.532V20.24c0-.598-.272-1.165-.743-1.533-.634-.494-1.49-1.296-2.173-1.966a1.953 1.953 0 01-.325-2.374l1.363-2.358a1.954 1.954 0 012.216-.904c.924.257 2.05.596 2.798.898.553.223 1.18.175 1.697-.124l2.524-1.455c.518-.298.873-.817.957-1.41.112-.795.38-1.933.618-2.859a1.957 1.957 0 011.893-1.469h2.731c.892 0 1.67.605 1.893 1.47.239.925.507 2.063.619 2.859.083.592.439 1.11.957 1.41l2.524 1.454a1.944 1.944 0 001.697.123c.747-.301 1.873-.64 2.797-.897a1.954 1.954 0 012.216.904l1.364 2.358a1.953 1.953 0 01-.326 2.374c-.683.67-1.539 1.472-2.173 1.966a1.941 1.941 0 00-.743 1.533v2.906c0 .598.272 1.165.743 1.532.634.495 1.49 1.297 2.173 1.967.638.624.772 1.6.326 2.373l-1.364 2.358a1.954 1.954 0 01-2.215.904c-.925-.256-2.051-.595-2.798-.897a1.943 1.943 0 00-1.697.123l-2.524 1.455a1.942 1.942 0 00-.957 1.41zm2.848-12.678c0-3.709-3.011-6.715-6.725-6.715-3.715 0-6.726 3.006-6.726 6.715 0 3.708 3.011 6.714 6.726 6.714 3.714 0 6.725-3.006 6.725-6.714z" fill="#FFC328"/><path d="M47.771 60.552c-.112.795-.38 1.934-.618 2.86a1.956 1.956 0 01-1.893 1.468h-2.731c-.893 0-1.67-.604-1.893-1.469-.24-.925-.507-2.064-.619-2.859a1.944 1.944 0 00-.957-1.41l-2.524-1.455a1.943 1.943 0 00-1.697-.123c-.747.302-1.873.641-2.798.898a1.954 1.954 0 01-2.215-.904l-1.364-2.359a1.953 1.953 0 01.326-2.373c.683-.67 1.539-1.472 2.173-1.967a1.94 1.94 0 00.742-1.532v-2.906a1.94 1.94 0 00-.742-1.532c-.634-.495-1.49-1.297-2.173-1.967a1.953 1.953 0 01-.326-2.373l1.364-2.359a1.954 1.954 0 012.215-.904c.925.257 2.051.596 2.798.898.554.224 1.18.175 1.697-.123l2.524-1.455c.518-.299.874-.818.957-1.41.112-.795.38-1.934.619-2.86.223-.864 1-1.468 1.892-1.468h2.732c.892 0 1.67.604 1.893 1.469.239.925.506 2.064.618 2.859a1.95 1.95 0 00.957 1.41l2.524 1.455a1.943 1.943 0 001.697.123c.747-.302 1.874-.64 2.798-.898a1.954 1.954 0 012.215.904l1.364 2.359a1.953 1.953 0 01-.325 2.373c-.684.67-1.54 1.472-2.173 1.967a1.941 1.941 0 00-.743 1.532v2.906c0 .598.271 1.165.743 1.532.634.495 1.489 1.297 2.173 1.967.637.624.772 1.6.325 2.373l-1.364 2.359a1.954 1.954 0 01-2.215.904c-.924-.257-2.05-.596-2.798-.898a1.943 1.943 0 00-1.697.123l-2.524 1.455a1.943 1.943 0 00-.957 1.41zm2.848-12.678c0-3.708-3.01-6.715-6.725-6.715-3.714 0-6.725 3.007-6.725 6.715a6.72 6.72 0 006.725 6.715c3.714 0 6.725-3.006 6.725-6.715z" fill="#EE6060"/></g><defs><clipPath id="clip0"><path fill="#fff" d="M0 0h100v100H0z"/></clipPath></defs></svg>