<svg width="50" height="44" fill="none" xmlns="http://www.w3.org/2000/svg"><path d="M25.179 6.878a.97.97 0 00.97-.97V.97a.97.97 0 00-1.94 0v4.938c0 .536.435.97.97.97zM17.89 8.47a.969.969 0 101.64-1.033l-2.584-4.099a.97.97 0 10-1.64 1.034L17.89 8.47zm13.244.304a.969.969 0 001.337-.304l2.581-4.098a.97.97 0 00-1.64-1.034l-2.581 4.1a.97.97 0 00.303 1.336z" fill="#90BDF5"/><path d="M49.687 22.826l-2.17-3.797c-.263-.466-.37.19-.835.455a.97.97 0 00-.367 1.321L48 23.78a.478.478 0 01-.175.644l-2.596 1.438a.492.492 0 01-.657-.175l-.66-1.167-.008-.015-6.82-12.06a.472.472 0 01.174-.64l2.6-1.438a.483.483 0 01.654.176l1.52 2.685a.97.97 0 001.321.366c.466-.264-.436.053.857-.356L41.726 8.67c-.647-1.148-1.646-.642-2.808 0l-2.6 1.439a2.37 2.37 0 00-1.143 1.447 2.39 2.39 0 00.164 1.737l-1.432.415c-.61.176-.98.272-1.185.272h-.003c-.141 0-.296-.055-.736-.221-.2-.076-.448-.17-.754-.277l-2.537-.887c-1.403-.49-2.036-.463-2.952-.38l-4.326.387c-1.972.175-3.23.62-3.923 1.391l-2.466-.714a2.395 2.395 0 00.159-1.723 2.377 2.377 0 00-1.143-1.447L11.443 8.67c-1.163-.643-2.99-1.148-3.638 0L.45 21.098c-.92 2.482-.177 2.947 0 3.574a2.377 2.377 0 001.143 1.448l2.598 1.439a2.42 2.42 0 001.173.303 2.42 2.42 0 002.11-1.22l.275-.486c.749.33 1.378.809 1.806 1.376a3.236 3.236 0 00-.756 1.75c-.098.868.148 1.72.69 2.4a3.236 3.236 0 002.17 1.197 3.228 3.228 0 00.694 2.377 3.248 3.248 0 002.169 1.199c-.091.86.154 1.702.691 2.374a3.233 3.233 0 002.17 1.2 3.254 3.254 0 003.242 3.599c.716 0 1.436-.232 2.037-.712l2.03-1.625c.16-.128.307-.27.44-.424l1.159.927c.6.478 1.318.71 2.031.71a3.26 3.26 0 002.552-1.222c.339-.424.553-.908.65-1.407a3.241 3.241 0 001.431.157 3.23 3.23 0 002.185-1.2c.54-.673.787-1.517.696-2.378a3.245 3.245 0 002.862-3.575c.86-.1 1.63-.525 2.167-1.197a3.23 3.23 0 00.694-2.395 3.237 3.237 0 00-.757-1.755c.428-.567 1.055-1.047 1.805-1.377l.275.487a2.42 2.42 0 002.11 1.22c.398 0 .802-.098 1.174-.303l2.596-1.439a2.38 2.38 0 001.144-1.445c.177-.627.1-1.283-.22-1.85zm-43.9 2.86a.491.491 0 01-.656.176l-2.598-1.439a.476.476 0 01-.172-.643l7.486-13.238a.473.473 0 01.415-.238c.082 0 .165.02.242.063l2.597 1.438a.473.473 0 01.172.64L5.788 25.687zm7.076 4.99a1.311 1.311 0 01-.972.279 1.31 1.31 0 01-1.164-1.457c.04-.35.212-.664.486-.883l3.63-2.901a1.326 1.326 0 011.86.207c.218.274.317.619.277.97-.039.35-.211.664-.484.88l-.017.016-3.615 2.888h-.001zm1.005 3.368a1.305 1.305 0 01-.279-.968c.04-.352.211-.666.485-.886l5.23-4.178a1.325 1.325 0 011.858.207c.22.274.318.618.279.97a1.31 1.31 0 01-.486.885l-5.227 4.176a1.325 1.325 0 01-1.86-.206zm3.748 4.06a1.309 1.309 0 01-1.164-1.455 1.31 1.31 0 01.485-.884l3.619-2.89.013-.01a1.325 1.325 0 011.858.205c.219.274.317.62.278.972a1.31 1.31 0 01-.486.883l-3.63 2.901c-.274.22-.62.318-.973.279zm6.352.788c-.04.352-.211.665-.486.885l-2.03 1.624a1.325 1.325 0 01-1.86-.206 1.305 1.305 0 01-.278-.968c.039-.352.21-.666.484-.885l2.03-1.623.004-.002a1.325 1.325 0 011.859.207c.218.273.317.617.277.968zm15.385-8.422a1.31 1.31 0 01-.886.485 1.31 1.31 0 01-.972-.28L34.9 28.602a.97.97 0 10-1.21 1.515l2.593 2.072c.569.456.663 1.288.21 1.854-.457.57-1.29.662-1.86.206l-2.814-2.245a.97.97 0 00-1.21 1.515l2.813 2.245c.274.22.447.534.486.886.039.352-.06.695-.28.97a1.307 1.307 0 01-.886.485 1.317 1.317 0 01-.972-.278l-1.4-1.12-.007-.006-1.183-.945-.221-.177a.97.97 0 10-1.212 1.514l1.408 1.126c.566.456.658 1.286.205 1.852a1.325 1.325 0 01-1.858.208l-1.598-1.277a3.241 3.241 0 00-1.864-3.205 3.24 3.24 0 00.592-1.538 3.243 3.243 0 00-1.855-3.314c.323-.449.528-.976.59-1.542a3.236 3.236 0 00-.69-2.395 3.268 3.268 0 00-3.824-.964 3.233 3.233 0 00-.637-1.334 3.268 3.268 0 00-4.583-.511l-2.596 2.075c-.587-.75-1.385-1.37-2.329-1.814l5.34-9.445 2.844.824c.013.152.037.312.079.481.688 2.83 3.293 4.149 6.8 3.442 2.954-.594 4.17.291 6.592 2.055.252.183.513.373.786.569 1.742 1.25 3.604 2.719 4.852 3.714l3.147 2.516c.273.218.445.532.484.884.04.352-.06.696-.28.97zm-.03-4.197l-2.112-1.688c-1.266-1.009-3.154-2.499-4.932-3.775-.27-.193-.527-.38-.774-.56-2.512-1.83-4.327-3.15-8.117-2.389-1.16.234-3.924.508-4.533-1.998-.086-.354.001-.476.038-.528.13-.18.652-.62 2.692-.801l4.33-.388c.706-.064 1.06-.096 2.137.28l2.538.887c.282.098.507.184.706.259 1.222.463 1.546.463 3.15-.002l1.87-.542 5.334 9.433c-.944.443-1.741 1.064-2.327 1.812z" fill="#90BDF5"/><path d="M45.014 17.51a.97.97 0 000-1.941.97.97 0 00-.97.97v.002c0 .536.434.969.97.969z" fill="#90BDF5"/></svg>