<svg width="60" height="60" fill="none" xmlns="http://www.w3.org/2000/svg"><g clip-path="url(#clip0)" fill="#F61920"><path d="M45.315 35.672c-4.17 0-7.563 3.393-7.563 7.563s3.393 7.563 7.563 7.563c4.171 0 7.563-3.392 7.563-7.563 0-4.17-3.392-7.563-7.563-7.563zm0 11.345a3.785 3.785 0 01-3.781-3.782 3.785 3.785 0 013.781-3.781 3.785 3.785 0 013.782 3.781 3.785 3.785 0 01-3.782 3.782zm-25.84-11.345c-4.17 0-7.563 3.393-7.563 7.563s3.392 7.563 7.563 7.563c4.17 0 7.563-3.392 7.563-7.563 0-4.17-3.393-7.563-7.563-7.563zm0 11.345a3.785 3.785 0 01-3.782-3.782 3.785 3.785 0 013.782-3.781 3.786 3.786 0 013.781 3.781 3.785 3.785 0 01-3.781 3.782zm30.933-32.992a1.892 1.892 0 00-1.69-1.042H38.76v3.782h8.792l5.149 10.24 3.38-1.699-5.673-11.281z"/><path d="M39.643 41.408H25.336v3.781h14.307v-3.781zm-25.84 0H7.248a1.89 1.89 0 100 3.781h6.555a1.89 1.89 0 100-3.781zm45.8-11.56l-3.719-4.79a1.888 1.888 0 00-1.493-.73h-13.74V11.091a1.89 1.89 0 00-1.89-1.89H7.248a1.89 1.89 0 100 3.78H36.87v13.236a1.89 1.89 0 001.89 1.89h14.705l2.754 3.548v9.751h-5.232a1.89 1.89 0 100 3.781h7.122A1.89 1.89 0 0060 43.298v-12.29c0-.42-.14-.828-.397-1.16zm-45.926 1.98H4.979a1.89 1.89 0 100 3.781h8.698a1.89 1.89 0 100-3.781zm4.348-7.438H1.891a1.89 1.89 0 100 3.782h16.134a1.89 1.89 0 100-3.781z"/><path d="M21.114 16.954H4.979a1.89 1.89 0 100 3.781h16.135a1.89 1.89 0 100-3.781z"/></g><defs><clipPath id="clip0"><path fill="#fff" d="M0 0h60v60H0z"/></clipPath></defs></svg>