<svg width="60" height="60" fill="none" xmlns="http://www.w3.org/2000/svg"><g clip-path="url(#clip0)"><path d="M58.47 41.369h-8.174V27.922a.879.879 0 10-1.758 0V41.37H33.266v-3.81a.879.879 0 00-.88-.879h-8.825V15.73h9.982v3.615c0 .774.63 1.404 1.404 1.404h2.206c.773 0 1.403-.63 1.403-1.404V15.73h9.982v8.678a.879.879 0 101.758 0v-8.906c0-.844-.687-1.53-1.53-1.53h-18.5V1.552c0-.843-.686-1.53-1.53-1.53H12.595c-.844 0-1.53.687-1.53 1.53V7.11a.879.879 0 101.757 0V1.78h5.338v3.616c0 .774.63 1.403 1.403 1.403h2.206c.774 0 1.404-.63 1.404-1.403V1.78h5.337v12.192h-5.826a.879.879 0 00-.88.879v7.324h-8.982V10.623a.879.879 0 10-1.757 0v11.552H5.888c-.843 0-1.53.686-1.53 1.53v12.977H1.53c-.844 0-1.53.686-1.53 1.53v20.886c0 .486.394.879.879.879h9.306a.879.879 0 100-1.758H1.758V38.44h12.368v3.616c0 .774.63 1.403 1.404 1.403h2.206c.774 0 1.403-.63 1.403-1.403V38.44h12.369v19.78H13.7a.879.879 0 100 1.758h45.42a.879.879 0 00.879-.879V42.9c0-.843-.687-1.53-1.53-1.53zM21.414 5.041h-1.498v-3.26h1.498v3.26zM36.798 15.73v3.26h-1.497v-3.26h1.497zm-23.587 8.203h1.497v3.261h-1.497v-3.261zm-7.095 0h5.337v3.615c0 .774.63 1.404 1.404 1.404h2.206c.774 0 1.403-.63 1.403-1.404v-3.615h5.337V36.68H6.116V23.934zM17.38 41.7h-1.497v-3.26h1.497v3.26zm29.122 1.427v3.261h-1.498v-3.261h1.498zm11.74 15.092H33.265V43.127h9.982v3.615c0 .774.63 1.404 1.403 1.404h2.206c.774 0 1.404-.63 1.404-1.404v-3.615h9.981v15.092z" fill="#F61920"/></g><defs><clipPath id="clip0"><path fill="#fff" d="M0 0h60v60H0z"/></clipPath></defs></svg>