<svg width="321" height="371" fill="none" xmlns="http://www.w3.org/2000/svg"><path d="M270.482 277.401l.483-83.657s-14.503 8.972-11.844 20.854c1.209 5.819 3.384 9.699-.483 14.549-4.11 4.849-5.802 8.002-5.56 13.579.483 5.577 6.768 7.517 6.043 13.821-.725 6.305-4.834 11.155-4.109 15.034 1.692 8.972 9.185 12.367 9.185 12.367l6.285-6.547z" fill="#FFC1C1"/><path d="M265.405 211.203h19.821v1.212h-19.821v-1.212zm-3.383 28.128h19.82v1.212h-19.82v-1.212zm1.45 30.795h19.821v1.213h-19.821v-1.213z" fill="#8EA8DD"/><path d="M296.103 278.614l1.45-105.723s-17.887 10.912-14.503 25.703c1.692 7.032 4.109 11.882-.725 17.701-4.834 5.82-7.252 9.7-6.768 16.732.483 7.032 8.46 9.214 7.493 16.974-.967 8.002-6.043 13.821-5.076 18.671 1.934 10.912 11.361 15.276 11.361 15.276l6.768-5.334z" fill="#FFC1C1"/><path d="M290.302 194.472h24.413v1.212h-24.413v-1.212zm-3.868 34.675h24.414v1.212h-24.414v-1.212zm1.693 37.828h24.413v1.212h-24.413v-1.212z" fill="#8EA8DD"/><path d="M248.726 287.586V164.404s-20.787 12.609-16.92 29.825c1.934 8.245 4.835 13.822-.725 20.611-5.801 6.79-8.702 11.397-7.735 19.399 1.209 10.427 9.669 10.669 8.702 19.884-1.209 9.214-7.735 16.004-6.043 21.581 4.109 12.609 13.053 17.701 13.053 17.701l9.668-5.819z" fill="#FFC1C1"/><path d="M239.3 192.29h22.237v1.212H239.3v-1.212zm-5.56 38.554h22.238v1.213H233.74v-1.213zm5.56 39.04h22.237v1.213H239.3v-1.213z" fill="#8EA8DD"/><path d="M261.297 277.159h35.048l-15.469 92.628h-39.159l-15.228-92.628h34.808z" fill="#FE958E"/><path d="M211.019 287.343h94.753v1.212h-94.753v-1.212z" fill="#8EA8DD"/><path d="M24.655 282.008c-2.9-.485-10.877-6.789-17.403-24.006-3.626-9.941-14.261-60.62 0-64.015 14.261-3.637 11.602 22.066 11.602 45.344-.241 14.064 5.802 42.677 5.802 42.677zm6.527 2.183c-7.493-.485-5.801-76.383-6.527-94.084-.483-17.701-4.109-84.384 5.802-95.054 10.152-10.669 20.304-1.212 21.27 12.609.484 6.548-1.691 54.074-2.9 67.896-1.209 13.579-2.659 44.617-3.867 64.016-1.209 19.883-5.076 45.344-13.778 44.617z" fill="#425AC2"/><path d="M44.96 285.161s16.678-32.736 20.787-58.197c7.493-45.344 8.944-89.719-1.208-88.991-10.153.485-10.878 45.102-11.361 64.016-1.209 49.224-12.811 80.262-12.811 80.262l4.593 2.91z" fill="#425AC2"/><path d="M32.632 279.341h1.209c0-10.184 1.692-39.767 1.692-40.01h-1.209s-1.692 29.826-1.692 40.01zm-11.119 2.425l.967-.485c0-.243-6.285-15.277-9.669-28.856-3.384-13.579-2.659-26.43-2.659-26.43H8.944c0 .242-.967 13.094 2.658 26.915 3.626 13.337 9.91 28.613 9.91 28.856z" fill="#231F20"/><path d="M37.708 239.816a2.17 2.17 0 01-2.175 2.183 2.17 2.17 0 01-2.176-2.183 2.17 2.17 0 012.176-2.182 2.17 2.17 0 012.175 2.182zm-25.863-13.822a2.17 2.17 0 01-2.176 2.183 2.17 2.17 0 01-2.175-2.183 2.17 2.17 0 012.175-2.182 2.17 2.17 0 012.175 2.182zm52.21-19.883a2.17 2.17 0 01-2.176 2.182 2.17 2.17 0 01-2.175-2.182 2.17 2.17 0 012.175-2.183 2.17 2.17 0 012.176 2.183z" fill="#fff"/><path d="M62.846 218.72V58.923a11.107 11.107 0 0111.12-11.154h87.501c6.285 0 11.119 5.092 11.119 11.154v158.1l-109.74 1.697z" fill="#03053F"/><path d="M66.714 275.704v2.182c0 16.974-13.778 30.553-30.456 30.553-16.92 0-30.457-13.822-30.457-30.553v-2.182h60.913z" fill="#FFC1C1"/><path d="M66.714 306.742v2.182c0 16.974-13.778 30.553-30.456 30.553-16.92 0-30.457-13.822-30.457-30.553v-2.182h60.913z" fill="#FFC1C1"/><path d="M66.714 338.022v2.182c0 16.974-13.778 30.553-30.456 30.553-16.92 0-30.457-13.821-30.457-30.553v-2.182h60.913zM194.19 94.907c-5.171-31.72 16.27-61.64 47.889-66.827 31.62-5.187 61.444 16.321 66.616 48.041 5.171 31.72-16.27 61.639-47.889 66.827-31.62 5.187-61.444-16.322-66.616-48.041z" fill="#FFC1C1"/><path d="M251.386 133.851c-26.566 0-48.102-21.605-48.102-48.255 0-26.65 21.536-48.254 48.102-48.254 26.565 0 48.101 21.604 48.101 48.254s-21.536 48.255-48.101 48.255z" fill="#fff"/><path d="M243.892 15.761h14.987v42.192h-14.987V15.761z" fill="#CCC"/><path d="M279.831 21.396l12.979 7.517-21.03 36.539-12.978-7.517 21.029-36.539z" fill="#CCC"/><path d="M307.876 44.181l7.493 13.02-36.423 21.095-7.493-13.019 36.423-21.096z" fill="#CCC"/><path d="M278.941 78.08H321v15.033h-42.059V78.08z" fill="#CCC"/><path d="M279.048 92.776l36.423 21.096-7.494 13.019-36.423-21.096 7.494-13.02z" fill="#CCC"/><path d="M271.608 105.623l21.029 36.539-12.978 7.517-21.029-36.539 12.978-7.517z" fill="#CCC"/><path d="M243.892 113.24h14.987v42.192h-14.987V113.24z" fill="#CCC"/><path d="M231.218 105.779l12.979 7.517-21.03 36.538-12.978-7.517 21.029-36.538z" fill="#CCC"/><path d="M223.894 92.762l7.494 13.019-36.423 21.096-7.493-13.019 36.422-21.096z" fill="#CCC"/><path d="M181.771 78.08h42.059v15.033h-42.059V78.08z" fill="#CCC"/><path d="M194.933 44.007l36.423 21.096-7.493 13.02-36.423-21.096 7.493-13.02z" fill="#CCC"/><path d="M223.183 21.376l21.029 36.539-12.978 7.517-21.029-36.539 12.978-7.517z" fill="#CCC"/><path d="M249.693 43.404c0 .97.726 1.698 1.692 1.698.967 0 1.692-.728 1.692-1.698s-.725-1.697-1.692-1.697c-.966 0-1.692.727-1.692 1.697zm21.272 4.85c-.483.97-.242 1.94.725 2.425.967.485 1.934.242 2.417-.727.484-.97.242-1.94-.725-2.425-.967-.485-1.934 0-2.417.727zm15.953 14.791c-.967.485-1.209 1.698-.725 2.425.483.97 1.692 1.213 2.417.728.967-.485 1.208-1.698.725-2.425-.483-.97-1.692-1.213-2.417-.728zm6.526 20.855c-.967 0-1.692.727-1.692 1.697 0 .97.725 1.697 1.692 1.697s1.692-.727 1.692-1.697c0-.97-.725-1.698-1.692-1.698zm-4.834 21.095c-.967-.485-1.934-.242-2.417.728-.484.97-.242 1.939.725 2.424.967.485 1.934.243 2.417-.727.483-.727.242-1.94-.725-2.425zm-14.745 16.247c-.483-.97-1.692-1.213-2.417-.728-.967.485-1.208 1.698-.725 2.425.483.97 1.692 1.212 2.417.728.967-.485 1.209-1.698.725-2.425zm-20.546 6.304c0-.97-.725-1.697-1.692-1.697s-1.692.727-1.692 1.697c0 .97.725 1.697 1.692 1.697.725.243 1.692-.485 1.692-1.697zm-21.271-4.607c.484-.97.242-1.94-.725-2.425-.967-.485-1.934-.242-2.417.728-.483.97-.242 1.94.725 2.425.725.484 1.934 0 2.417-.728zm-15.953-14.792c.967-.485 1.208-1.697.725-2.424-.483-.97-1.692-1.213-2.417-.728-.967.485-1.209 1.698-.725 2.425.483.97 1.45 1.212 2.417.727zm-6.526-20.853c.967 0 1.692-.727 1.692-1.697 0-.97-.725-1.698-1.692-1.698s-1.692.728-1.692 1.698.725 1.697 1.692 1.697zm4.592-21.096c.967.485 1.934.242 2.417-.728.484-.97.242-1.94-.725-2.425-.967-.485-1.934-.242-2.417.728-.242.727 0 1.94.725 2.425z" fill="#425AC2"/><path d="M222.098 90.309c-2.64-16.258 8.358-31.585 24.564-34.234 16.207-2.649 31.485 8.384 34.126 24.642 2.64 16.258-8.357 31.585-24.564 34.233-16.207 2.649-31.485-8.383-34.126-24.641z" fill="#fff"/><path d="M228.906 49.952c.483.97 1.692 1.212 2.417.727.967-.485 1.209-1.697.725-2.425-.483-.97-1.692-1.212-2.417-.727-.967.485-1.208 1.697-.725 2.425zM270.88 72.01l1.699 3.213-19.645 10.454-1.699-3.214L270.88 72.01zm-48.605-4.782l29.211 16.159-1.284 2.335-29.211-16.159 1.284-2.335z" fill="#425AC2"/><path d="M242.925 85.597c0 4.607 3.868 8.487 8.46 8.487 4.593 0 8.461-3.88 8.461-8.487 0-4.608-3.868-8.487-8.461-8.487-4.592 0-8.46 3.88-8.46 8.487z" fill="#FE958E"/><path d="M104.422 254.608h16.195v61.833h-16.195v-61.833z" fill="#CCC"/><path d="M107.806 298.497h9.427v61.833h-9.427v-61.833z" fill="#CCC"/><path d="M170.169 262.367H67.439c-5.318 0-9.669-3.637-9.669-8.244v-7.517c0-4.607 4.351-8.245 9.669-8.245h102.73c5.317 0 9.668 3.638 9.668 8.245v7.517c.242 4.607-4.109 8.244-9.668 8.244z" fill="#03053F"/><path d="M170.169 240.544H67.439c-5.318 0-9.669-3.638-9.669-8.245v-7.517c0-4.607 4.351-8.244 9.669-8.244h102.73c5.317 0 9.668 3.637 9.668 8.244v7.517c.242 4.607-4.109 8.245-9.668 8.245z" fill="#0E24A5"/><path d="M66.472 361.3c-2.9-4.607-4.351-9.456-4.351-14.549 0-19.398 22.721-35.16 50.519-35.16 27.797 0 50.519 15.762 50.519 35.16 0 4.608-1.209 9.215-3.868 13.58l-7.493-4.365c1.692-2.91 2.659-6.062 2.659-9.215 0-14.306-19.096-26.43-42.059-26.43-22.721 0-42.059 12.124-42.059 26.43 0 3.395.967 6.79 3.143 9.942l-7.01 4.607z" fill="#CCC"/><path d="M58.496 360.573c0-5.577 4.592-10.184 10.152-10.184S78.8 354.996 78.8 360.573c0 5.577-4.593 10.184-10.152 10.184-5.56 0-10.152-4.607-10.152-10.184zm43.267 0c0-5.577 4.592-10.184 10.152-10.184 5.559 0 10.152 4.607 10.152 10.184 0 5.577-4.593 10.184-10.152 10.184-5.56 0-10.152-4.607-10.152-10.184z" fill="#0E24A5"/><path d="M188.056 190.592H82.426v25.461c0 13.821 11.118 24.975 24.896 24.975h80.734c13.778 0 24.897-11.154 24.897-24.975v-.485c0-13.822-11.119-24.976-24.897-24.976z" fill="#425AC2"/><path d="M211.502 210.233l13.053 145.248H205.46s-30.698-94.569-33.599-125.364c-3.142-30.795 19.096-25.461 19.096-25.461l20.545 5.577zm-60.429 0l13.053 145.248H145.03s-30.698-94.569-33.598-125.364c-3.143-30.795 19.095-25.461 19.095-25.461l20.546 5.577z" fill="#425AC2"/><path d="M224.072 355.481h-18.854v14.549h38.191c2.417 0 3.384-5.577 1.208-6.789l-20.545-7.76zm-59.946 0h-18.854v14.549h37.95c2.417 0 3.384-5.577 1.208-6.789l-20.304-7.76z" fill="#0E24A5"/><path d="M82.667 190.107h69.131L160.5 87.294c.725-9.215-6.527-17.217-15.712-17.217H89.677c-9.186 0-16.437 8.002-15.712 17.217l8.702 102.813z" fill="#A4B8EA"/><path d="M112.882 76.625h10.635c3.384 0 6.043-3.153 6.043-6.79V56.5c0-3.88-2.659-6.79-6.043-6.79h-10.635c-3.384 0-6.043 3.152-6.043 6.79v13.336c0 3.637 2.659 6.79 6.043 6.79z" fill="#E98896"/><path d="M138.745 59.166c-9.668 11.882-20.062 4.85-31.906-4.85-11.844-9.7-13.295-27.158-3.626-39.04 9.669-11.881 27.072-13.336 38.916-3.637 11.603 9.7 6.285 35.645-3.384 47.527z" fill="#FFB3B6"/><path d="M158.808 79.535l32.873 56.741-25.38 10.912-20.546-33.706 13.053-33.947zm-84.359-6.79c-32.148 28.128-39.642 65.228-39.642 65.228-1.934 4.365-.483 11.154 4.11 12.609l62.604 31.523 8.702-14.791-43.993-33.463 32.39-35.16-1.692-28.37s-17.887-1.698-22.48 2.424z" fill="#A4B8EA"/><path d="M74.467 136.068l36.905 36.015-.843.869-36.905-36.015.843-.869zm-11.309 26.196l42.152 22.222-.562 1.073-42.152-22.222.562-1.073z" fill="#8EA8DD"/><path d="M99.346 181.62h108.047v9.214H99.346v-9.214z" fill="#03053F"/><path d="M100.313 181.863h27.555l2.176-12.124h-20.788c-3.867 0-7.251 2.909-7.977 6.789l-.966 5.335z" fill="#FFB3B6"/><path d="M120.617 182.105h86.776l11.844-54.074h-86.776l-11.844 54.074z" fill="#03053F"/><path d="M165.818 156.402c0 3.152 2.659 5.819 5.801 5.819 3.143 0 5.801-2.667 5.801-5.819 0-3.153-2.658-5.82-5.801-5.82-3.142.243-5.801 2.667-5.801 5.82z" fill="#425AC2"/><path d="M98.62 44.132c.967 1.94 7.252 2.425 5.56-3.152-2.176-6.79-2.176-17.217 5.318-15.762 7.493 1.455 2.175 8.972 5.317 10.184 3.143 1.213 5.076-10.911 8.944-16.488 3.867-5.578 19.337 1.94 27.556 4.122 8.218 2.182 16.195-14.064-4.593-20.369-14.02-4.122-25.38-4.365-39.4 4.85-10.635 7.032-14.261 24.006-8.702 36.615z" fill="#FE958E"/></svg>