<svg width="46" height="60" fill="none" xmlns="http://www.w3.org/2000/svg"><path d="M23.5 48.72h-1.88a.94.94 0 010-1.88h3.76v-1.879H23.5v-1.88h-1.88v1.88a2.82 2.82 0 000 5.64h1.88a.94.94 0 010 1.88h-3.76v1.88h1.88v1.88h1.88v-1.88a2.82 2.82 0 000-5.64zm2.544-25.654l-1.33-1.33-1.215 1.216v-6.19h-1.88v6.19l-1.215-1.215-1.33 1.33 3.485 3.484 3.485-3.485z" fill="#FF797D"/><path d="M22.559 39.32c-5.71 0-10.34 4.63-10.34 10.34S16.85 60 22.56 60 32.9 55.37 32.9 49.66c-.007-5.708-4.632-10.333-10.34-10.34zm0 18.8a8.46 8.46 0 110-16.92 8.46 8.46 0 018.46 8.46 8.47 8.47 0 01-8.46 8.46zM25.9 1.564L24.858 0 22.56 1.532 20.261 0l-1.044 1.564 3.342 2.228 3.342-2.228zm0 5.17L24.858 5.17 22.56 6.702 20.261 5.17l-1.044 1.564 3.342 2.228 3.342-2.228zm12.22-5.17L37.078 0 34.78 1.532 32.48 0l-1.044 1.564 3.342 2.228 3.341-2.228zm0 5.17L37.078 5.17 34.78 6.702l-2.3-1.532-1.044 1.564 3.342 2.228 3.341-2.228zm-24.439-5.17L12.637 0 10.34 1.532 8.041 0 6.998 1.564l3.341 2.228 3.342-2.228zm0 5.17L12.637 5.17 10.34 6.702 8.041 5.17 6.998 6.734l3.341 2.228 3.342-2.228zm4.179 30.971l9.399-2.35V29.37l12.22-12.22v-6.028H5.638v6.029l12.22 12.22v8.334zM7.52 16.372v-3.37h30.079v3.37l-12.22 12.22v5.294l-5.64 1.41v-6.704L7.52 16.372zM43.238 37.44h1.88V60h-1.88V37.44zm-3.76 3.761h1.88v18.8h-1.88V41.2zM0 37.44h1.88V60H0V37.44zm3.76 3.761h1.88v18.8H3.76V41.2zm31.959 3.759h1.88V60h-1.88V44.96zm-28.199 0H9.4V60H7.52V44.96zm0-3.759H9.4v1.88H7.52v-1.88zM3.76 37.44h1.88v1.88H3.76v-1.88zM0 33.68h1.88v1.88H0v-1.88zm35.719 7.521h1.88v1.88h-1.88v-1.88zm3.759-3.761h1.88v1.88h-1.88v-1.88zm3.76-3.76h1.88v1.88h-1.88v-1.88z" fill="#FF797D"/></svg>