<svg width="30" height="30" fill="none" xmlns="http://www.w3.org/2000/svg"><path d="M28.503 27.005a2.996 2.996 0 00-2.99-3c-.779 0-1.529.299-2.086.844l-10.965-5.48a2.46 2.46 0 00.036-.363 3 3 0 00-.223-1.131l4.788-4.255c.44.246.932.38 1.442.387 1.658 0 3-1.342 3-3a2.999 2.999 0 00-3-3.002 2.977 2.977 0 00-1.946.739l-9.113-5.21a2.76 2.76 0 00.053-.533A3 3 0 004.498 0c-1.659 0-3 1.342-3 3a2.997 2.997 0 003 3.001 2.977 2.977 0 001.946-.738l9.113 5.204a2.822 2.822 0 00.17 1.658l-4.788 4.255A3.026 3.026 0 009.497 16a3.003 3.003 0 00-3.012 2.988 3.003 3.003 0 005.087 2.169l10.965 5.48c-.018.116-.035.24-.035.362 0 1.659 1.341 3.001 3 3.001s3-1.336 3-2.995z" fill="#80B4F4"/></svg>