<svg width="30" height="30" fill="none" xmlns="http://www.w3.org/2000/svg"><g clip-path="url(#clip0)" fill="#80B4F4"><path d="M24.464 15.046c0-5.087-4.246-9.225-9.464-9.225-5.219 0-9.465 4.138-9.465 9.225S9.781 24.272 15 24.272c5.218 0 9.464-4.139 9.464-9.226zm-10.345 5.42v-.89c-.632 0-1.259-.052-2.01-.574a.881.881 0 111.005-1.448c.238.166.51.258.767.26h2.133a.943.943 0 000-1.888h-2.028a2.707 2.707 0 01-2.702-2.704c0-1.37 1.037-2.706 2.835-2.706v-.89a.881.881 0 111.762 0v.89a3.15 3.15 0 012.333 1.007.881.881 0 01-1.287 1.203 1.38 1.38 0 00-.985-.448h-1.956a.943.943 0 000 1.887h2.028a2.707 2.707 0 012.702 2.706c0 1.385-1.053 2.706-2.835 2.706v.89a.881.881 0 01-1.762 0z"/><path d="M6.856 25.712l-.479-3.384a.88.88 0 10-1.745.246l.108.758a13.248 13.248 0 01-2.148-3.788C-.98 9.778 7.646-.072 17.703 2.074A.881.881 0 0018.071.35C6.714-2.073-3.136 9.013.937 20.15a15.012 15.012 0 002.428 4.287l-.851-.164a.881.881 0 00-.333 1.73l3.561.685a.884.884 0 001.114-.975zM29.063 9.851a15.016 15.016 0 00-2.428-4.287l.851.164a.881.881 0 00.333-1.73l-3.562-.685a.884.884 0 00-1.113.974l.479 3.385a.881.881 0 101.745-.246l-.107-.759a13.249 13.249 0 012.147 3.79c3.572 9.765-5.053 19.615-15.111 17.47a.881.881 0 00-.368 1.723c11.356 2.423 21.207-8.663 17.134-19.799z"/></g><defs><clipPath id="clip0"><path fill="#fff" d="M0 0h30v30H0z"/></clipPath></defs></svg>