<svg width="17" height="17" fill="none" xmlns="http://www.w3.org/2000/svg"><path fill-rule="evenodd" clip-rule="evenodd" d="M5.313 0h6.375A5.313 5.313 0 0117 5.313v6.375A5.313 5.313 0 0111.687 17H5.314A5.313 5.313 0 010 11.687V5.314A5.313 5.313 0 015.313 0zm6.375 15.406a3.723 3.723 0 003.718-3.719V5.314a3.723 3.723 0 00-3.719-3.72H5.314a3.723 3.723 0 00-3.72 3.72v6.375a3.723 3.723 0 003.72 3.718h6.375zM4.25 8.5a4.25 4.25 0 118.5 0 4.25 4.25 0 01-8.5 0zm1.594 0A2.66 2.66 0 008.5 11.156 2.66 2.66 0 0011.156 8.5 2.66 2.66 0 008.5 5.844 2.66 2.66 0 005.844 8.5zm7.791-4.569a.566.566 0 11-1.132 0 .566.566 0 011.132 0z" fill="#fff"/></svg>