<svg width="772" height="617" fill="none" xmlns="http://www.w3.org/2000/svg"><path d="M827 541.52H0v.413h827v-.413zm-705.15 15.746H86.769v.413h35.081v-.413zm301.756-4.483h-140.54v.414h140.54v-.414zM174.96 572.631h-63.034v.414h63.034v-.414zm569.174-2.778h-71.436v.413h71.436v-.413zm-76.844 0h-19.799v.413h19.799v-.413zm-53.838-6.98H575.41v.413h38.042v-.413zm-57.162 0h-80.12v.413h80.12v-.413zm-164.292-95.122H72.628a9.441 9.441 0 01-9.429-9.444V9.362A9.445 9.445 0 0172.627 0h319.371a9.443 9.443 0 019.444 9.444v448.863a9.444 9.444 0 01-9.444 9.444zM72.628.331a9.03 9.03 0 00-9.015 9.03v448.946a9.031 9.031 0 009.014 9.031h319.371a9.045 9.045 0 009.031-9.031V9.362A9.044 9.044 0 00391.998.33H72.628zm677.147 467.42H430.387a9.46 9.46 0 01-9.444-9.444V9.362A9.46 9.46 0 01430.387 0h319.388a9.443 9.443 0 019.411 9.362v448.945a9.444 9.444 0 01-9.411 9.444zM430.387.331a9.05 9.05 0 00-9.031 9.03v448.946a9.053 9.053 0 002.65 6.381 9.055 9.055 0 006.381 2.65h319.388a9.055 9.055 0 006.381-2.65 9.053 9.053 0 002.65-6.381V9.362a9.05 9.05 0 00-9.031-9.03H430.387z" fill="#EBEBEB"/><g opacity=".6"><path opacity=".6" d="M582.721 265.517l12.256-12.257a66.371 66.371 0 0110.541 80.071 66.38 66.38 0 01-32.038 28.139 66.38 66.38 0 01-42.546 2.84l4.482-16.738a49.047 49.047 0 0055.195-22.836 49.041 49.041 0 00-7.808-59.219h-.082z" fill="#EBEBEB"/><path opacity=".6" d="M501.162 253.26a66.443 66.443 0 0193.881 0l-12.256 12.257a49.055 49.055 0 00-69.369 0l-12.256-12.257z" fill="#F5F5F5"/><path opacity=".6" d="M501.162 253.26l12.256 12.257a49.043 49.043 0 00-10.636 53.456 49.043 49.043 0 0010.636 15.912 48.482 48.482 0 0021.982 12.687l-4.466 16.738a66.397 66.397 0 01-46.931-46.934 66.39 66.39 0 0117.159-64.116z" fill="#E0E0E0"/><path opacity=".6" d="M637.22 204.186v26.001a99.667 99.667 0 01-96.284-73.874 99.668 99.668 0 0146.449-112.118l13.017 22.527a73.653 73.653 0 0036.818 137.464z" fill="#EBEBEB"/><path opacity=".6" d="M736.89 130.517a99.705 99.705 0 01-99.67 99.67v-26.001a73.683 73.683 0 0073.669-73.669h26.001z" fill="#F5F5F5"/><path opacity=".6" d="M736.89 130.517h-26.001a73.648 73.648 0 00-36.824-63.798 73.652 73.652 0 00-73.663.003l-13-22.527a99.666 99.666 0 01136.136 36.493 99.678 99.678 0 0113.352 49.829z" fill="#E0E0E0"/></g><g opacity=".5"><path opacity=".5" d="M464.658 541.503h44.195v-93.368h-44.195v93.368z" fill="#F5F5F5"/><path opacity=".5" d="M411.449 541.52h44.195v-65.201h-44.195v65.201z" fill="#E6E6E6"/><path opacity=".5" d="M358.24 541.503h44.195v-41.201H358.24v41.201z" fill="#F0F0F0"/><path opacity=".5" d="M630.455 541.52h44.195v-65.201h-44.195v65.201z" fill="#F5F5F5"/><path opacity=".5" d="M577.263 541.52h44.194v-50.778h-44.194v50.778z" fill="#E6E6E6"/><path opacity=".5" d="M524.037 541.52h44.195V432.141h-44.195V541.52z" fill="#F0F0F0"/><path opacity=".5" d="M298.861 541.52h44.195V439.468h-44.195V541.52z" fill="#F5F5F5"/><path opacity=".5" d="M245.652 541.52h44.195v-65.201h-44.195v65.201z" fill="#E6E6E6"/><path opacity=".5" d="M192.443 541.52h44.195v-85.81h-44.195v85.81z" fill="#F0F0F0"/></g><g opacity=".6"><path opacity=".6" d="M92.806 40.457a11.314 11.314 0 0111.264-11.264h351.078a11.314 11.314 0 0111.28 11.264v36.289H92.806v-36.29z" fill="#F0F0F0"/><path opacity=".6" d="M183.925 62.323a9.364 9.364 0 01-8.646-5.772 9.357 9.357 0 016.799-12.768 9.36 9.36 0 0111.208 9.145 9.367 9.367 0 01-2.735 6.636 9.375 9.375 0 01-6.626 2.759zm0-17.053a7.704 7.704 0 00-7.126 4.77 7.71 7.71 0 005.653 10.503 7.708 7.708 0 101.473-15.273zm-30.103 17.053a9.359 9.359 0 01-8.716-5.703 9.358 9.358 0 0112.153-12.327 9.36 9.36 0 01-3.437 18.03zm0-17.053a7.705 7.705 0 00-7.667 9.168 7.706 7.706 0 0010.528 5.655 7.702 7.702 0 004.747-7.165 7.687 7.687 0 00-7.608-7.658zm-30.285 17.053a9.36 9.36 0 119.345-9.395 9.376 9.376 0 01-9.345 9.395zm0-17.053a7.71 7.71 0 00-7.574 9.22 7.704 7.704 0 0010.538 5.596 7.705 7.705 0 004.727-7.158 7.705 7.705 0 00-7.691-7.658z" fill="#fff"/><path opacity=".6" d="M455.148 321.074H104.07a11.31 11.31 0 01-11.264-11.263V76.746h373.622V309.81a11.313 11.313 0 01-11.28 11.263z" fill="#E0E0E0"/><path opacity=".6" d="M149.819 127.854a11.299 11.299 0 0111.264-11.28h351.078a11.313 11.313 0 0111.264 11.28v36.272H149.819v-36.272z" fill="#F5F5F5"/><path opacity=".6" d="M240.938 149.704a9.366 9.366 0 01-8.662-5.772 9.355 9.355 0 012.026-10.21 9.366 9.366 0 0110.21-2.026 9.362 9.362 0 01-3.574 18.008zm0-17.053a7.712 7.712 0 00-7.133 4.746 7.704 7.704 0 001.661 8.406 7.71 7.71 0 008.401 1.678 7.707 7.707 0 00-2.929-14.83zm-30.202 17.053a9.366 9.366 0 01-8.662-5.772 9.355 9.355 0 012.026-10.21 9.366 9.366 0 0110.21-2.026 9.362 9.362 0 01-3.574 18.008zm0-17.053a7.712 7.712 0 00-7.133 4.746 7.704 7.704 0 001.661 8.406 7.71 7.71 0 008.401 1.678 7.707 7.707 0 00-2.929-14.83zm-30.185 17.053a9.37 9.37 0 01-5.208-1.571 9.37 9.37 0 01-3.992-9.613 9.365 9.365 0 017.361-7.361 9.363 9.363 0 0111.184 9.199 9.38 9.38 0 01-9.345 9.346zm0-17.053a7.71 7.71 0 00-5.473 13.152 7.714 7.714 0 008.402 1.678 7.713 7.713 0 004.762-7.123 7.707 7.707 0 00-7.691-7.707zm331.61 275.887H161.083a11.282 11.282 0 01-11.264-11.264V164.126h373.606v233.066a11.301 11.301 0 01-11.264 11.346z" fill="#E6E6E6"/></g><path d="M413.5 616.214c177.114 0 320.694-8.382 320.694-18.723s-143.58-18.723-320.694-18.723-320.694 8.382-320.694 18.723 143.58 18.723 320.694 18.723z" fill="#F5F5F5"/><path d="M440.824 179.227a4.047 4.047 0 003.843-2.654 4.053 4.053 0 00.243-1.629l-1.224-24.43a4.56 4.56 0 00-4.499-4.3h-3.308l-2.994-60.785a25.768 25.768 0 00-25.306-24.231H217.22a22.853 22.853 0 00-16.726 7.114 22.85 22.85 0 00-6.248 17.067l3.01 61.066a4.286 4.286 0 00-2.812 4.267l2.895 58.602a4.841 4.841 0 003.308 4.267l12.719 258.603a25.765 25.765 0 0025.372 24.181h190.343a22.851 22.851 0 0016.726-7.113 22.856 22.856 0 006.248-17.068l-12.322-249.258h3.308a4.039 4.039 0 002.972-1.255 4.065 4.065 0 001.113-3.029l-1.207-24.479a4.582 4.582 0 00-4.499-4.284h-3.308l-.53-10.652h3.242z" fill="#E8505B"/><path d="M242.758 496.365H433.1a22.882 22.882 0 0016.731-7.112 22.881 22.881 0 006.26-17.069L436.97 85.396a25.752 25.752 0 00-25.356-24.198H221.256a22.878 22.878 0 00-22.991 24.181l19.12 386.788a25.77 25.77 0 0025.373 24.198z" fill="#E8505B"/><path opacity=".4" d="M242.758 496.365H433.1a22.882 22.882 0 0016.731-7.112 22.881 22.881 0 006.26-17.069L436.97 85.396a25.752 25.752 0 00-25.356-24.198H221.256a22.878 22.878 0 00-22.991 24.181l19.12 386.788a25.77 25.77 0 0025.373 24.198z" fill="#FAFAFA"/><path d="M227.127 462.64h218.328a3.545 3.545 0 002.61-1.098 3.555 3.555 0 00.98-2.656L431.214 99.521a4 4 0 00-3.953-3.754H208.933a3.538 3.538 0 00-3.572 3.754l17.747 359.365a4.005 4.005 0 004.019 3.754z" fill="#fff"/><path opacity=".7" d="M339.93 72.396h-45.898a2.812 2.812 0 00-2.829 2.977 3.176 3.176 0 003.126 2.993h45.899a2.816 2.816 0 002.667-1.857c.132-.364.186-.75.161-1.136a3.174 3.174 0 00-3.126-2.977z" fill="#E8505B"/><path opacity=".6" d="M507.811 387.846H316.973l-13.679-276.813h190.838l13.679 276.813z" fill="#E8505B"/><path d="M485.284 312.159a.738.738 0 01-.265 0 .488.488 0 01-.215-.148.64.64 0 01-.149-.215.786.786 0 010-.265c0-.184.073-.361.204-.491a.692.692 0 01.982 0c.13.13.204.307.204.491a.786.786 0 010 .265.64.64 0 01-.149.215.493.493 0 01-.215.148.672.672 0 01-.397 0zm1.902 51.721a.667.667 0 01.175-.489.676.676 0 01.47-.222.693.693 0 01.728.645.71.71 0 01-.18.501.695.695 0 01-.482.227.697.697 0 01-.711-.662zm-.265-5.227a.699.699 0 01.398-.662.689.689 0 01.264-.065.67.67 0 01.495.18.68.68 0 01.216.481.687.687 0 01-.175.49.673.673 0 01-.47.221.693.693 0 01-.728-.645zm-.248-5.243a.687.687 0 01.175-.489.676.676 0 01.47-.222.662.662 0 01.711.645.673.673 0 01-.384.662.67.67 0 01-.261.066.695.695 0 01-.711-.662zm-.265-5.243a.698.698 0 01.645-.711.694.694 0 01.728.645.693.693 0 01-.645.728.71.71 0 01-.501-.18.695.695 0 01-.227-.482zm-.264-5.227a.68.68 0 01.18-.501.694.694 0 01.481-.226.668.668 0 01.495.18.668.668 0 01.217.481.687.687 0 01-.175.49.685.685 0 01-.471.221.688.688 0 01-.495-.174.689.689 0 01-.232-.471zm-.248-5.243a.667.667 0 01.175-.489.676.676 0 01.47-.222.674.674 0 01.5.169.67.67 0 01.227.476.712.712 0 01-.661.728.696.696 0 01-.711-.662zm-.265-5.243a.69.69 0 01.186-.49.69.69 0 01.476-.221.667.667 0 01.489.175.676.676 0 01.222.47.697.697 0 01-.645.728.696.696 0 01-.728-.662zm-.248-5.227a.674.674 0 01.169-.5.67.67 0 01.476-.227.67.67 0 01.495.18.683.683 0 01.216.481.668.668 0 01-.175.49.673.673 0 01-.47.221.667.667 0 01-.489-.175.665.665 0 01-.222-.47zm-.265-5.243a.687.687 0 01.175-.489.688.688 0 01.47-.222.694.694 0 01.728.645.709.709 0 01-.662.728.695.695 0 01-.711-.662zm-.264-5.226a.691.691 0 01.661-.728.667.667 0 01.49.175.673.673 0 01.221.47.694.694 0 01-.645.728.697.697 0 01-.727-.645zm3.275 53.027a.645.645 0 01-.48-.215.628.628 0 01-.199-.48.786.786 0 010-.265.51.51 0 01.149-.215.637.637 0 01.215-.148.724.724 0 01.761.148.682.682 0 01.132.215.518.518 0 010 .265.711.711 0 01-.198.48.7.7 0 01-.232.149.493.493 0 01-.148.066zm-6.236-.695a.679.679 0 01.695-.678.677.677 0 01.626.419.695.695 0 01-.626.954.69.69 0 01-.491-.204.692.692 0 01-.204-.491zm-5.557 0a.679.679 0 01.694-.678.685.685 0 01.627.419c.034.082.051.17.051.259a.665.665 0 01-.192.49.676.676 0 01-.486.205.699.699 0 01-.678-.695h-.016zm-5.541 0a.676.676 0 01.678-.678.682.682 0 01.491 1.169.692.692 0 01-.755.151.687.687 0 01-.368-.377.665.665 0 01-.046-.265zm-5.558 0a.679.679 0 01.695-.678.677.677 0 01.626.419c.035.082.052.17.052.259a.683.683 0 01-.415.642.692.692 0 01-.754-.151.692.692 0 01-.204-.491zm-5.541 0a.677.677 0 01.419-.626.677.677 0 01.259-.052.683.683 0 01.642.415.695.695 0 01-.905.905.676.676 0 01-.368-.377.683.683 0 01-.047-.265zm-5.557 0a.679.679 0 01.695-.678.677.677 0 01.626.419c.034.082.052.17.052.259a.683.683 0 01-.415.642.694.694 0 01-.958-.642zm-5.558 0c0-.09.018-.18.054-.263a.663.663 0 01.377-.368.682.682 0 01.264-.047.685.685 0 01.627.419c.034.082.051.17.051.259a.665.665 0 01-.192.49.687.687 0 01-.486.205.696.696 0 01-.695-.695zm-5.54 0a.676.676 0 01.678-.678.682.682 0 01.694.678.695.695 0 01-.694.695.69.69 0 01-.678-.695zm-5.558 0a.679.679 0 01.695-.678.677.677 0 01.626.419c.034.082.052.17.052.259a.683.683 0 01-.415.642.692.692 0 01-.754-.151.692.692 0 01-.204-.491zm-5.541 0a.677.677 0 01.419-.626.677.677 0 01.259-.052.683.683 0 01.642.415.695.695 0 01-.905.905.676.676 0 01-.368-.377.683.683 0 01-.047-.265zm-5.557 0a.679.679 0 01.694-.678.682.682 0 01.679.678.683.683 0 01-.415.642.693.693 0 01-.958-.642zm-4.863.695a.68.68 0 01-.48-.215.504.504 0 01-.149-.215.786.786 0 010-.265.633.633 0 01.199-.48.646.646 0 01.744-.148c.084.029.158.08.215.148a.652.652 0 01.215.48.786.786 0 010 .265.73.73 0 01-.364.364.702.702 0 01-.38.066z" fill="#fff"/><path opacity=".5" d="M497.771 184.801H306.933l-3.639-73.768h190.839l3.638 73.768z" fill="#E8505B"/><path d="M488.79 303.013l-.446-4.83a46.14 46.14 0 0031.607-14.241 45.3 45.3 0 0010.553-18.045l4.631 1.654a49.884 49.884 0 01-11.578 19.848 50.712 50.712 0 01-34.767 15.614z" fill="#263238"/><path d="M516.544 215.02a51.73 51.73 0 00-20.923-12.19l1.175-4.631a57.08 57.08 0 0123.007 13.397 55.3 55.3 0 0115.332 56.021l-4.631-1.654a50.28 50.28 0 00-13.96-50.943z" fill="#E8505B" opacity=".5"/><path d="M447.705 287.366a56.322 56.322 0 01-17.533-37.232h4.83a51.79 51.79 0 0053.342 48.115l.446 4.83a56.106 56.106 0 01-41.085-15.713z" fill="#E8505B"/><path opacity=".7" d="M430.172 250.134a51.02 51.02 0 0113.795-38.62 51.954 51.954 0 0152.829-13.398l-1.175 4.631a47.218 47.218 0 00-48.065 12.273 46.406 46.406 0 00-12.554 35.048l-4.83.066z" fill="#fff"/><path opacity=".6" d="M513.748 278.675c15.386-15.772 14.426-41.66-2.143-57.824-16.57-16.164-42.474-16.482-57.86-.71-15.385 15.772-14.425 41.66 2.144 57.824 16.569 16.164 42.474 16.482 57.859.71z" fill="#fff"/><path d="M383.993 329.444l-.811 3.308a34.365 34.365 0 00-25.074 2.2 32.354 32.354 0 00-11.463 9.576l-2.811-2.15a35.508 35.508 0 0112.587-10.536 37.825 37.825 0 0127.572-2.398z" fill="#263238"/><path d="M344.479 381.71a37.197 37.197 0 0011.578 12.951l-1.886 2.812a41.157 41.157 0 01-12.752-14.241 38.046 38.046 0 012.398-40.854l2.812 2.15a34.554 34.554 0 00-2.15 37.182z" fill="#E8505B" opacity=".5"/><path opacity=".7" d="M408.67 349.358a38.737 38.737 0 013.474 28.846l-3.308-1.059a35.267 35.267 0 00-3.159-26.265 37.354 37.354 0 00-22.462-18.194l.811-3.308a40.941 40.941 0 0124.644 19.98z" fill="#fff"/><path d="M412.144 378.204a35.72 35.72 0 01-18.492 22.544 38.816 38.816 0 01-39.514-3.308l1.886-2.812a35.284 35.284 0 0035.941 2.977 32.482 32.482 0 0010.604-8.451 32.488 32.488 0 006.234-12.042l3.341 1.092z" fill="#E8505B"/><path opacity=".6" d="M396.536 387.215c11.016-11.293 10.33-29.827-1.531-41.398-11.861-11.571-30.407-11.797-41.423-.504-11.016 11.292-10.331 29.827 1.53 41.398 11.862 11.571 30.408 11.797 41.424.504z" fill="#fff"/><path d="M425.078 120.329h-6.55l-16.457 24.545 18.889 24.545h6.55l-18.889-24.545 16.457-24.545zm19.6 0h6.55l18.905 24.545-16.474 24.545h-6.566l16.474-24.545-18.889-24.545z" fill="#fff"/><g opacity=".6"><path opacity=".6" d="M277.541 142.542h-41.829a2.951 2.951 0 00-2.16.919 2.947 2.947 0 00-.801 2.207l1.422 28.763a3.31 3.31 0 003.308 3.126h41.83a2.951 2.951 0 002.16-.92 2.938 2.938 0 00.801-2.206l-1.423-28.763a3.304 3.304 0 00-3.308-3.126zm-15.795 26.761h-7.576l.53-9.146a5.362 5.362 0 01-2.515-4.251 4.816 4.816 0 014.847-5.094 5.405 5.405 0 015.342 5.094 4.726 4.726 0 01-2.084 4.251l1.456 9.146z" fill="#E8505B"/><path opacity=".2" d="M252.185 155.906a5.362 5.362 0 002.515 4.251l-.53 9.146h3.854l.397 8.27h-20.973a3.309 3.309 0 01-3.308-3.126l-1.422-28.763a2.936 2.936 0 01.801-2.206 2.951 2.951 0 012.16-.92h20.923l.397 8.27a4.822 4.822 0 00-3.501 1.502 4.833 4.833 0 00-1.313 3.576z" fill="#000"/><path opacity=".6" d="M273.704 140.474a2.927 2.927 0 01-2.894-2.762l-.149-2.812a15.617 15.617 0 00-14.423-14.886 13.605 13.605 0 00-10.455 3.945 13.601 13.601 0 00-3.968 10.445l.165 3.308a2.611 2.611 0 01-2.646 2.762 2.927 2.927 0 01-2.895-2.762l-.132-2.746a19.096 19.096 0 014.786-14.053 19.094 19.094 0 0113.408-6.373 21.205 21.205 0 0121.717 19.93l.149 3.308a2.6 2.6 0 01-1.625 2.509c-.33.133-.683.197-1.038.187z" fill="#E8505B"/></g><path opacity=".4" d="M291.964 448.664H155.36l-11.776-238.457h136.604l11.776 238.457z" fill="#E8505B"/><path opacity=".3" d="M280.75 221.636H144.146l-.562-11.429h136.604l.562 11.429zm11.214 227.028H155.36l-.562-11.429h136.604l.562 11.429z" fill="#E8505B"/><path d="M185.992 277.69l-4.962-2.547a34.4 34.4 0 00-2.844-6.136l1.339-5.177-10.734-10.222-5.095 1.654a35.046 35.046 0 00-6.268-2.547l-2.762-4.764h-14.407l-2.315 4.764a31.602 31.602 0 00-6.004 2.547l-5.244-1.654-9.725 10.222 1.836 5.177a32.24 32.24 0 00-2.233 6.136l-4.648 2.547.711 14.456 4.962 2.531a36.49 36.49 0 002.845 6.136l-1.356 5.177 10.735 10.222 5.094-1.654a34.923 34.923 0 006.252 2.547l2.729 4.846h14.456l2.299-4.78a31.23 31.23 0 006.004-2.547l5.26 1.654 9.709-10.222-1.836-5.177a30.88 30.88 0 002.233-6.136l4.664-2.531-.695-14.522zm-35.395 33.427a27.822 27.822 0 01-27.49-26.199 24.714 24.714 0 0124.91-26.216 27.838 27.838 0 0127.506 26.216 24.724 24.724 0 01-6.763 18.523 24.7 24.7 0 01-18.163 7.676z" fill="#E8505B"/><path opacity=".6" d="M148.199 262.374a21.264 21.264 0 00-20.174 13.975 21.252 21.252 0 00-1.246 8.569 23.949 23.949 0 0023.735 22.528 21.276 21.276 0 0021.502-22.528 23.966 23.966 0 00-23.817-22.544z" fill="#fff"/><path d="M293.387 300.036h-77.556a5.598 5.598 0 00-4.092 1.745 5.612 5.612 0 00-1.532 4.176l1.968 39.812a6.283 6.283 0 006.219 5.921h46.61l.86 17.251 16.408-17.251h13.678a5.592 5.592 0 005.624-5.921l-1.968-39.779a6.303 6.303 0 00-6.219-5.954z" fill="#E8505B"/><path d="M188.672 366.295H241.6a4.315 4.315 0 014.251 4.052l1.339 27.192a3.803 3.803 0 01-3.837 4.036h-31.806l.579 11.793-12.372-11.793h-9.345a4.288 4.288 0 01-4.235-4.036l-1.339-27.192a3.788 3.788 0 011.033-2.864 3.806 3.806 0 012.804-1.188z" fill="#fff"/><path d="M647.012 269.073l-7.824-.348 3.54 14.886a40.954 40.954 0 007.575-6.616 3.741 3.741 0 00.905-2.737 3.752 3.752 0 00-1.302-2.572l-2.894-2.613z" fill="#FF8B7B"/><path d="M630.108 276.747l3.506 12.124 9.114-5.293-3.54-14.853-9.08 8.022zm-42.492-83.543l-3.754 4.333a167.721 167.721 0 00-3.788 4.549c-2.481 3.06-4.962 6.136-7.244 9.295a131.629 131.629 0 00-12.24 19.335c-.413.827-.744 1.654-1.125 2.465l-.562 1.207s0-.082 0 0a4.598 4.598 0 00.083 2.465 37.266 37.266 0 004.035 9.262 175.731 175.731 0 0013.431 19.335l-6.236 6.616a102.577 102.577 0 01-18.905-17.945 45.581 45.581 0 01-7.426-12.571 20.647 20.647 0 01-1.274-9.709 15.95 15.95 0 01.695-3.027l.595-1.654c.397-1.091.778-2.199 1.191-3.308a122.46 122.46 0 0112.868-23.156c2.481-3.556 4.962-7.029 7.758-10.337a362.048 362.048 0 014.135-4.962c1.405-1.654 2.811-3.176 4.449-4.962l13.314 12.769zm-1.207 77.44l-7.062 13.927-6.898-5.922 5.657-9.924 8.303 1.919zm69.203-90.805a460.717 460.717 0 0112.289 23.305c3.887 7.89 7.609 15.862 11.082 24.049l.281.712.315.909c.21.591.365 1.2.463 1.82.099.562.165 1.141.231 1.654.033.518.033 1.037 0 1.555a15.984 15.984 0 01-.281 2.828 18.777 18.777 0 01-.595 2.431 35.172 35.172 0 01-3.424 7.592 57.551 57.551 0 01-4.118 6.087 96.387 96.387 0 01-4.417 5.408 146.966 146.966 0 01-19.848 18.492l-6.318-6.616c5.293-6.616 10.553-13.497 15.118-20.361a74.385 74.385 0 005.871-10.254 19.545 19.545 0 001.522-4.466c.046-.251.074-.506.083-.761v-.43c0-.033 0-.116 0 0a.283.283 0 000 .116v.231a.252.252 0 000 .149s.082.132 0 0c-3.953-7.559-8.105-15.134-12.207-22.742-4.102-7.609-8.27-15.234-12.239-22.842l16.192-8.866z" fill="#FF8B7B"/><path d="M593.058 132.849c.199.96-.149 1.853-.761 2.018-.612.166-1.29-.496-1.505-1.455-.215-.96.149-1.869.761-2.018.612-.149 1.29.496 1.505 1.455z" fill="#263238"/><path d="M593.009 134.685a36.6 36.6 0 01-2.812 9.345 5.533 5.533 0 004.73-.281l-1.918-9.064z" fill="#FF5652"/><path d="M591.983 142.095c-1.257 0-2.481-.976-3.457-2.779a19.033 19.033 0 01-.992-13.761c.728-2.018 1.869-3.176 3.192-3.308 1.323-.132 2.597.877 3.622 2.762a17.04 17.04 0 011.787 6.798c.413 5.541-1.34 10.04-3.986 10.239l-.166.049zm-1.092-18.988h-.115c-.96 0-1.853 1.075-2.465 2.729a16.36 16.36 0 00-.744 6.616c.096 2.242.66 4.439 1.654 6.451.843 1.571 1.885 2.431 2.845 2.349 2.1-.149 3.572-4.433 3.209-9.362a16.21 16.21 0 00-1.654-6.451c-.811-1.488-1.803-2.332-2.73-2.332z" fill="#263238"/><path d="M590.478 127.011a.601.601 0 00.331-.1 4.518 4.518 0 014.118-.264.577.577 0 00.744-.314.598.598 0 00-.314-.761 5.641 5.641 0 00-5.21.397.56.56 0 00-.149.794.584.584 0 00.48.248z" fill="#263238"/><path d="M626.072 139.581c-.314 10.007-4.019 22.098 1.968 28.019 0 0-2.778 9.014-19.302 9.014-18.194 0-8.27-9.014-8.27-9.014 10.007-2.365 10.04-9.709 8.584-16.623l17.02-11.396z" fill="#FF8B7B"/><path d="M632.291 170.693c1.422-2.845 2.861-7.228 0-8.27-3.225-1.125-19.6-3.97-32.055 0a10.874 10.874 0 01.166 8.898l31.889-.628z" fill="#263238"/><path d="M654.091 585.698c-1.241 0-2.448-.182-2.895-.794a1.141 1.141 0 010-1.373 1.425 1.425 0 01.96-.678c1.769-.38 4.962 1.902 5.16 2.001a.26.26 0 01.102.123c.021.05.026.105.014.159a.286.286 0 01-.215.231 15.64 15.64 0 01-3.126.331zm-1.439-2.316h-.331a.93.93 0 00-.579.397c-.281.48-.132.678-.083.745.497.678 2.978.694 4.797.38a8.986 8.986 0 00-3.804-1.522z" fill="#fff"/><path d="M657.2 585.367h-.132c-1.224-.678-3.54-3.308-3.308-4.681a.972.972 0 01.943-.777 1.644 1.644 0 011.224.38c1.373 1.158 1.521 4.665 1.521 4.813a.295.295 0 01-.132.265h-.116zm-2.266-4.962h-.132c-.38 0-.43.232-.447.314-.148.811 1.324 2.812 2.515 3.738a6.701 6.701 0 00-1.291-3.804.893.893 0 00-.595-.215l-.05-.033zm-73.801 5.293c-1.654 0-3.06-.215-3.556-.91a1.087 1.087 0 010-1.257c1.306-2.15 6.699.943 7.311 1.307a.281.281 0 01.132.298.299.299 0 01-.232.231c-1.207.211-2.43.322-3.655.331zm-1.869-2.349a1.21 1.21 0 00-1.125.48c-.248.397-.132.562-.083.628.53.761 3.606.794 5.889.48a12.6 12.6 0 00-4.681-1.588z" fill="#fff"/><path d="M584.805 585.367h-.116c-1.455-.678-4.218-3.308-3.986-4.648 0-.33.281-.744 1.092-.827a2.009 2.009 0 011.654.513c1.505 1.274 1.654 4.532 1.654 4.681a.247.247 0 01-.116.248.311.311 0 01-.182.033zm-2.779-4.962h-.165c-.546 0-.579.265-.596.347-.132.844 1.737 2.878 3.192 3.772a6.61 6.61 0 00-1.439-3.755 1.522 1.522 0 00-.992-.331v-.033z" fill="#fff"/><path d="M598.169 585.086h-12.157l-.116-28.151h12.141l.132 28.151zm72.958 0H658.97l-5.028-28.151h12.157l5.028 28.151z" fill="#FF8B7B"/><path d="M658.16 583.68h13.645a1.006 1.006 0 011.009.827l1.985 10.801a1.847 1.847 0 01-1.869 2.15c-4.764 0-7.063-.347-13.067-.347-3.688 0-11.313.38-16.407.38-5.095 0-5.574-5.045-3.474-5.508 9.444-2.051 13.083-4.863 16.176-7.559a3.012 3.012 0 012.002-.744zm-72.016 0h13.232a.994.994 0 01.993.827l1.985 10.801a1.826 1.826 0 01-.406 1.512 1.826 1.826 0 01-1.43.638c-4.78 0-11.678-.347-17.698-.347-7.03 0-13.133.38-21.37.38-4.962 0-6.186-5.045-4.085-5.508 9.593-2.067 17.367-2.299 25.769-7.36a5.854 5.854 0 013.01-.943z" fill="#263238"/><path d="M651.229 170.362c11.281 2.613 23.156 33.659 23.156 33.659l-23.47 15.68a182.816 182.816 0 01-14.125-25.703c-6.219-14.208 2.894-26.315 14.439-23.636z" fill="#E8505B"/><path opacity=".3" d="M651.229 170.362c11.281 2.613 23.156 33.659 23.156 33.659l-23.47 15.68a182.816 182.816 0 01-14.125-25.703c-6.219-14.208 2.894-26.315 14.439-23.636z" fill="#FAFAFA"/><path opacity=".2" d="M642.298 190.21l9.709 28.796-1.108.744s-4.433-6.616-9.147-15.431l.546-14.109z" fill="#000"/><path d="M575.41 224.63c.099 13.563.91 30.433 2.928 51.373h65.068c.843-9.924-3.556-58.651 7.873-105.658a167.133 167.133 0 00-21.634-2.745c-9.2-.53-18.423-.53-27.622 0a124.311 124.311 0 00-18.823 3.308s-5.557 6.02-7.244 34.254c-.364 5.64-.579 12.058-.546 19.468z" fill="#E8505B"/><path opacity=".3" d="M575.41 224.63c.099 13.563.91 30.433 2.928 51.373h65.068c.843-9.924-3.556-58.651 7.873-105.658a167.133 167.133 0 00-21.634-2.745c-9.2-.53-18.423-.53-27.622 0a124.311 124.311 0 00-18.823 3.308s-5.557 6.02-7.244 34.254c-.364 5.64-.579 12.058-.546 19.468z" fill="#FAFAFA"/><path opacity=".2" d="M575.41 224.63c3.936-7.179 11.082-21.585 10.073-29.772l-9.594 10.387a332.004 332.004 0 00-.479 19.385z" fill="#000"/><path d="M595.87 181.94c1.026 11.578-25.223 39.431-25.223 39.431l-21.039-17.152a135.582 135.582 0 0119.666-25.587c12.305-11.909 25.455-9.643 26.596 3.308z" fill="#E8505B"/><path opacity=".3" d="M595.87 181.94c1.026 11.578-25.223 39.431-25.223 39.431l-21.039-17.152a135.582 135.582 0 0119.666-25.587c12.305-11.909 25.455-9.643 26.596 3.308z" fill="#FAFAFA"/><path opacity=".2" d="M585.896 556.951l.067 14.506h12.157l-.067-14.506h-12.157zm80.203 0h-12.157l2.597 14.506h12.156l-2.596-14.506z" fill="#000"/><path d="M624.319 122.809c1.77 11.959 3.424 18.856-1.191 26.382a15.697 15.697 0 01-27.771-1.472c-4.747-9.924-6.864-27.854 3.573-35.429a15.849 15.849 0 0122.257 2.919 15.85 15.85 0 013.132 7.6z" fill="#FF8B7B"/><path d="M603.991 119.535c-38.224-.927-6.947-24.066-6.947-24.066-6.285 11.032 11.727 10.023 16.276 5.061 5.524-6.07 15.514 2.382 14.72 8.998 5.822-.728 10.437 3.589 8.27 17.483-2.166 13.893-6.715 17.813-9.097 21.204-2.381 3.391-2.183.165-10.122 1.654-5.458 1.025-14.605-10.751-15.614-17.632a18.541 18.541 0 012.514-12.702z" fill="#263238"/><path d="M623.657 111.546s9.924-4.135 3.308-14.506c9.196 4.78 7.807 13.497-3.308 14.506z" fill="#263238"/><path d="M609.284 130.203a14.262 14.262 0 01-2.911 8.419c-2.465 3.175-5.293 1.654-5.971-1.919-.596-3.176 0-8.65 3.076-10.569 3.077-1.919 5.822.43 5.806 4.069z" fill="#FF8B7B"/><path d="M601.411 276.003s10.205 92.839 16.424 127.573c6.814 38.042 33.08 165.003 33.08 165.003h22.263s-15.812-123.818-19.087-161.546c-3.556-40.937-10.818-131.096-10.818-131.096l-41.862.066z" fill="#263238"/><path d="M647.756 560.441c-.099 0 1.968 8.551 1.968 8.551h25.108l-.166-7.624-26.91-.927z" fill="#E8505B"/><path opacity=".2" d="M608.837 309.083c15.829 3.126 11.843 62.587 8.75 93.17-3.771-21.618-8.899-63.216-12.355-92.74a5.52 5.52 0 013.605-.43z" fill="#000"/><path d="M578.354 276.003s-5.194 90.854-5.293 127.904c-.116 38.538 8.469 164.738 8.469 164.738h20.526s5.541-123.951 7.923-161.794c2.58-41.35 11.032-130.848 11.032-130.848h-42.657z" fill="#263238"/><path d="M573.376 264.342l5.772.463a3.156 3.156 0 012.872 2.66 3.17 3.17 0 01-.093 1.393l-2.382 8.022a4.235 4.235 0 01-6.616 2.117 21.494 21.494 0 01-6.169-10.272l6.616-4.383z" fill="#FF8B7B"/><path opacity=".2" d="M586.409 553.858a.208.208 0 01-.146-.057.212.212 0 01-.069-.141c-2.282-34.916-7.575-119.435-7.476-149.753.083-31.013 3.771-100.398 4.962-120.924a.22.22 0 01-.005-.099.22.22 0 01.116-.153.225.225 0 01.192 0 .22.22 0 01.115.153.207.207 0 01-.005.099c-1.124 20.526-4.813 89.911-4.961 120.907-.1 30.302 5.193 114.804 7.476 149.737a.204.204 0 01-.052.151.208.208 0 01-.147.064v.016z" fill="#FAFAFA"/><path d="M577.891 560.441c-.099 0 .827 8.551.827 8.551h24.992l.976-7.624-26.795-.927z" fill="#E8505B"/></svg>