<svg width="593" height="686" fill="none" xmlns="http://www.w3.org/2000/svg"><g clip-path="url(#clip0)"><path d="M494.549 677.719l-213.209-.182c-25.585 0-46.453-20.876-46.453-46.471l.182-534.595c0-25.596 20.867-46.471 46.452-46.471l213.209.181c25.585 0 46.453 20.876 46.453 46.471l-.182 534.596c0 25.595-20.867 46.471-46.452 46.471z" fill="#263238"/><path d="M494.367 69.06h-41.371c-5.625 0-9.98 4.72-9.98 10.529v7.442c0 5.81-4.537 10.529-9.98 10.529H352.47c-5.625 0-9.98-4.72-9.98-10.529V79.59c0-5.81-4.536-10.529-9.98-10.529h-50.626c-17.964 0-32.48 14.522-32.48 32.493l-.182 521.889c0 17.971 14.517 32.493 32.481 32.493l212.664.182c17.964 0 32.481-14.522 32.481-32.493l.181-521.889c-.181-18.153-14.698-32.675-32.662-32.675z" fill="#fff"/><path d="M500.718 121.703c0 .182-5.444.363-11.976.363-6.714 0-11.976 0-11.976-.181 0-.182 5.444-.364 11.976-.364 6.532 0 11.976 0 11.976.182zm0 6.172c0 .181-5.444.363-11.976.363-6.714 0-11.976 0-11.976-.182 0-.181 5.444-.363 11.976-.363 6.714 0 11.976 0 11.976.182zm.182 6.172c0 .181-5.444.363-11.976.363-6.714 0-11.976 0-11.976-.182 0-.181 5.443-.363 11.976-.363 6.532 0 11.976 0 11.976.182zm-218.653 6.898h1.996c1.27 0 3.085 0 5.081-.182l-.182.182v-5.809c.182-.726.908-1.452 1.633-1.634h2.359c.908.182 1.633 1.089 1.633 1.997v5.446l-.181-.182h6.532l-.181.182v-9.984c0-.545-.363-1.089-.907-1.452-.908-.908-1.815-1.816-2.904-2.723l-2.722-2.723-1.27-1.271c-.544-.363-.726-.908-1.27-1.089-.544-.182-1.089 0-1.452.363l-1.27 1.271-2.359 2.359-4.173 4.176c-.544.726-.363 1.633-.363 2.359v8.351c.181.181.181.363 0 .363v-10.347c0-.545.181-.908.363-1.271 1.27-1.452 2.54-2.723 4.173-4.357.726-.726 1.452-1.633 2.359-2.359l1.27-1.271c.545-.363 1.271-.545 1.815-.363.726.181 1.089.726 1.633 1.089l1.27 1.271 2.722 2.723c.907.907 1.815 1.815 2.903 2.722.182.182.545.363.726.727.182.363.363.726.363 1.089v10.165h-6.895v-5.627c0-.726-.545-1.452-1.27-1.634h-2.359c-.726 0-1.27.545-1.452 1.271v5.809h-6.714c-.726.363-.907.363-.907.363z" fill="#263238"/><path d="M482.028 214.826H290.05c-9.618 0-17.42-7.805-17.42-17.426v-6.535c0-9.621 7.802-17.427 17.42-17.427h191.978c9.617 0 17.42 7.806 17.42 17.427v6.535c0 9.621-7.803 17.426-17.42 17.426z" fill="#F5F5F5"/><path d="M482.028 214.826s.363 0 1.27-.181c.908 0 2.178-.182 3.811-.727 1.633-.544 3.448-1.452 5.444-2.904s3.81-3.63 5.262-6.535c.544-1.452 1.088-3.086 1.451-4.72.182-1.815.182-3.63.182-5.627 0-1.997.181-3.993-.182-5.99-.363-1.997-1.088-4.175-2.177-5.991-2.359-3.812-6.351-7.079-11.432-7.987-2.54-.544-5.08-.181-7.802-.363h-8.347c-45.908 0-109.054 0-178.914.182-4.355 0-8.528 1.633-11.613 4.538-3.085 2.904-5.081 6.898-5.444 11.073-.181 1.997 0 4.175 0 6.353 0 2.179 0 4.175.726 6.172 1.089 3.994 3.629 7.443 7.077 9.621 1.633 1.089 3.629 1.997 5.443 2.36 1.996.545 3.992.545 5.988.363h115.587c22.863 0 41.371.182 54.255.182h18.508c.544 0 .907.181.907.181H462.25c-12.884 0-31.392 0-54.255.182H292.408c-1.996 0-4.173 0-6.169-.545-1.996-.544-3.992-1.271-5.807-2.541-3.447-2.36-6.169-5.991-7.439-10.166-.545-1.997-.726-4.356-.726-6.353v-6.354c.363-4.356 2.359-8.531 5.625-11.617 3.266-3.086 7.621-4.72 12.158-4.72 69.859 0 133.187.182 178.914.182h8.346c2.722 0 5.444-.182 7.984.363 5.263.907 9.436 4.356 11.795 8.168 1.27 1.997 1.996 4.175 2.359 6.172.363 2.178.181 4.175.181 6.172 0 1.997 0 3.812-.181 5.627-.182 1.816-.726 3.449-1.452 4.902a16.124 16.124 0 01-5.262 6.535 20.853 20.853 0 01-5.625 2.904c-1.633.363-2.903.545-3.811.726-.725.363-1.27.363-1.27.363z" fill="#263238"/><path d="M485.657 193.043s0-.726-.363-1.815c-.362-1.09-1.088-2.723-2.721-3.994-1.633-1.271-4.174-1.815-6.714-.908-2.541.908-4.718 3.631-4.718 6.717s2.177 5.809 4.718 6.716c2.54.908 5.081.363 6.714-.907 1.633-1.271 2.359-2.905 2.721-3.994.182-1.089.182-1.815.363-1.815v.544c0 .364 0 .727-.181 1.453-.182 1.089-.907 2.904-2.722 4.356-1.633 1.453-4.536 2.179-7.439 1.271-2.722-.908-5.263-3.812-5.263-7.443 0-3.449 2.359-6.535 5.263-7.442 2.903-1.089 5.625-.182 7.439 1.27 1.815 1.453 2.54 3.086 2.722 4.357.181.545.181 1.089.181 1.452v.182z" fill="#263238"/><path d="M489.649 205.931c-.181.182-1.814-1.27-3.629-3.267-1.814-1.997-3.266-3.812-3.084-3.994.181-.181 1.814 1.271 3.629 3.268 1.996 2.178 3.266 3.993 3.084 3.993z" fill="#263238"/><path d="M303.296 189.957h-3.992v-1.089h9.254v1.089h-3.992v10.528h-1.27v-10.528zm13.609 6.535h-7.258c.181 1.815 1.451 3.086 3.447 3.086 1.089 0 1.996-.363 2.722-1.089l.726.726c-.726.907-1.996 1.452-3.266 1.452-2.722 0-4.537-1.815-4.537-4.357 0-2.541 1.815-4.356 4.174-4.356 2.359 0 4.173 1.815 4.173 4.356-.181 0-.181 0-.181.182zm-7.258-.908h6.169c-.181-1.633-1.452-2.904-3.085-2.904s-2.903 1.271-3.084 2.904zm14.879 4.901l-2.722-3.63-2.722 3.63h-1.27l3.448-4.356-3.266-4.175h1.27l2.54 3.449 2.54-3.449h1.271l-3.267 4.175 3.448 4.356h-1.27zm7.802-.544a3.062 3.062 0 01-1.814.545c-1.633 0-2.541-.908-2.541-2.542v-5.264h-1.633v-.908h1.633v-1.815h1.089v1.815h2.722v.908h-2.722v5.083c0 1.089.545 1.633 1.452 1.633.544 0 .907-.181 1.27-.363l.544.908z" fill="#E0E0E0"/><path d="M331.966 248.771h-49.719v49.739h49.719v-49.739zm95.445 5.265c0 .181-16.513.363-37.017.363-20.505 0-37.017-.182-37.017-.363 0-.182 16.512-.363 37.017-.363 20.323 0 37.017.181 37.017.363z" fill="#E8505B"/><path d="M486.565 269.284c0 .181-29.759.363-66.594.363-36.835 0-66.594-.182-66.594-.363 0-.182 29.759-.363 66.594-.363 36.654 0 66.594.181 66.594.363zm-1.633 10.892c0 .181-29.396.363-65.868.363-36.291 0-65.868-.182-65.868-.363 0-.182 29.395-.363 65.868-.363 36.291-.182 65.868.181 65.868.363zm-53.892 10.347c0 .181-17.42.363-38.832.363-21.411 0-38.831-.182-38.831-.363 0-.182 17.42-.363 38.831-.363 21.412 0 38.832.181 38.832.363z" fill="#263238"/><path d="M331.966 331.366h-49.719v49.738h49.719v-49.738zm95.445 5.446c0 .181-16.513.363-37.017.363-20.505 0-37.017-.182-37.017-.363 0-.182 16.512-.363 37.017-.363 20.323 0 37.017.181 37.017.363z" fill="#E8505B"/><path d="M486.565 352.06c0 .182-29.759.363-66.594.363-36.835 0-66.594-.181-66.594-.363 0-.181 29.759-.363 66.594-.363 36.654-.182 66.594 0 66.594.363zm-1.633 10.892c0 .181-29.396.363-65.868.363-36.291 0-65.868-.182-65.868-.363 0-.182 29.395-.363 65.868-.363 36.291-.182 65.868 0 65.868.363zm-53.892 10.347c0 .181-17.42.363-38.832.363-21.411 0-38.831-.182-38.831-.363 0-.182 17.42-.363 38.831-.363 21.412-.182 38.832 0 38.832.363z" fill="#263238"/><path d="M331.966 414.142h-49.719v49.738h49.719v-49.738zm95.445 5.446c0 .181-16.513.363-37.017.363-20.505 0-37.017-.182-37.017-.363 0-.182 16.512-.363 37.017-.363 20.323-.182 37.017 0 37.017.363z" fill="#E8505B"/><path d="M486.565 434.655c0 .181-29.759.363-66.594.363-36.835 0-66.594-.182-66.594-.363 0-.182 29.759-.363 66.594-.363 36.654 0 66.594.181 66.594.363zm-1.633 10.891c0 .182-29.396.363-65.868.363-36.291 0-65.868-.181-65.868-.363 0-.181 29.395-.363 65.868-.363 36.291 0 65.868.182 65.868.363zm-53.892 10.529c0 .181-17.42.363-38.832.363-21.411 0-38.831-.182-38.831-.363 0-.182 17.42-.363 38.831-.363 21.412-.182 38.832 0 38.832.363z" fill="#263238"/><path d="M331.966 496.918h-49.719v49.738h49.719v-49.738z" fill="#E8505B"/><path d="M427.411 502.182c0 .182-16.513.363-37.017.363-20.505 0-37.017-.181-37.017-.363 0-.181 16.512-.363 37.017-.363 20.323 0 37.017.182 37.017.363z" fill="#455A64"/><path d="M486.565 517.431c0 .181-29.759.363-66.594.363-36.835 0-66.594-.182-66.594-.363 0-.182 29.759-.364 66.594-.364 36.654 0 66.594.182 66.594.364zm-1.633 10.891c0 .182-29.396.363-65.868.363-36.291 0-65.868-.181-65.868-.363 0-.181 29.395-.363 65.868-.363 36.291 0 65.868.182 65.868.363zm-53.892 10.347c0 .182-17.42.363-38.832.363-21.411 0-38.831-.181-38.831-.363 0-.181 17.42-.363 38.831-.363 21.412 0 38.832.182 38.832.363z" fill="#263238"/><path d="M331.966 579.694h-49.719v49.739h49.719v-49.739zm95.445 5.264c0 .182-16.513.363-37.017.363-20.505 0-37.017-.181-37.017-.363 0-.181 16.512-.363 37.017-.363 20.323 0 37.017.182 37.017.363z" fill="#E0E0E0"/><path d="M486.565 600.207c0 .181-29.759.363-66.594.363-36.835 0-66.594-.182-66.594-.363 0-.182 29.759-.363 66.594-.363 36.654 0 66.594.181 66.594.363zm-1.633 10.891c0 .182-29.396.363-65.868.363-36.291 0-65.868-.181-65.868-.363 0-.181 29.395-.363 65.868-.363 36.291 0 65.868.182 65.868.363zm-53.892 10.347c0 .182-17.42.363-38.832.363-21.411 0-38.831-.181-38.831-.363 0-.181 17.42-.363 38.831-.363 21.412 0 38.832.182 38.832.363z" fill="#EBEBEB"/><path opacity=".3" d="M331.966 496.918h-49.719v49.738h49.719v-49.738zm0-165.552h-49.719v49.738h49.719v-49.738z" fill="#000"/><path d="M557.876 640.142l9.254 34.309-30.121 2.904-6.351-32.856 27.218-4.357z" fill="#E8505B"/><path d="M536.102 674.451c0 .181 1.633 0 4.355-.182 2.721-.181 6.532-.726 10.706-1.089 3.992-.544 7.621-1.089 10.524-1.452 2.722-.363 4.355-.726 4.355-.726 0-.182-1.633 0-4.355.181-2.722.182-6.532.727-10.524 1.09-3.992.544-7.622 1.089-10.525 1.452-2.903.363-4.536.544-4.536.726z" fill="#263238"/><path opacity=".6" d="M567.13 674.451l-30.121 2.904-.544-2.541 29.94-3.812.725 3.086" fill="#fff"/><path d="M552.251 672.999c.182 0-1.088-5.991-2.903-13.252-1.815-7.261-3.448-13.07-3.629-13.07-.182 0 1.089 5.991 2.903 13.252 1.815 7.261 3.448 13.07 3.629 13.07z" fill="#263238"/><path d="M537.735 674.269c.181 0-.907-2.541 0-6.353.544-1.997 1.451-4.175 3.266-5.99 1.815-1.816 4.536-3.086 7.44-3.449 3.084-.363 5.988.363 8.165 1.815 2.178 1.452 3.811 3.267 4.718 5.083 1.996 3.449 1.814 6.171 1.996 6.171v-1.815a15.853 15.853 0 00-1.452-4.538c-.907-1.815-2.54-3.812-4.718-5.264-2.358-1.452-5.443-2.36-8.528-1.997-3.085.363-5.988 1.634-7.984 3.631-1.996 1.996-2.903 4.356-3.266 6.353-.363 1.997-.182 3.631 0 4.901.181.545.181.908.363 1.271v.181z" fill="#263238"/><path d="M433.036 630.885l1.996 30.678s-30.485 10.165-30.666 15.793l59.517.363-1.27-47.742-29.577.908z" fill="#E8505B"/><path opacity=".6" d="M453.359 658.295c1.088.363 1.995 1.634 1.814 2.723-.181 1.089-1.452 1.997-2.722 1.815-1.088-.181-2.177-1.815-1.814-2.904s1.996-1.997 2.903-1.452m10.343 19.242l-.182-4.902-57.521 1.634s-1.996.908-2.177 3.268h59.88z" fill="#fff"/><path d="M433.943 661.2c0 .363 1.452.363 2.903 1.27 1.452.908 2.178 1.997 2.54 1.997.182 0-.181-1.815-1.995-2.904-1.634-1.09-3.448-.726-3.448-.363zm-5.988 2.723c0 .363 1.27.726 2.177 1.996 1.089 1.089 1.271 2.542 1.633 2.542.363 0 .363-1.634-.907-3.086-1.27-1.634-2.903-1.815-2.903-1.452zm-3.448 7.624c.182 0 .545-1.453-.181-2.905-.726-1.633-2.178-2.178-2.359-1.997-.181.182.726 1.09 1.452 2.36.725 1.271.907 2.542 1.088 2.542zm9.799-17.427c.181.182 1.451-.182 3.085-.182 1.633 0 2.903.545 3.084.363.182-.181-1.088-1.27-3.084-1.27-1.815-.182-3.267.907-3.085 1.089zm-.182-6.172c0 .182 1.089.182 2.904-.181.907-.182 1.996-.545 3.084-1.09.545-.181 1.089-.544 1.634-.907.181-.182.544-.363.907-.726s.544-1.089 0-1.634c-.363-.363-.908-.545-1.27-.545-.363 0-.726.182-1.089.182-.726.181-1.27.363-1.815.726-1.088.545-1.996 1.271-2.722 1.815-1.27 1.271-1.814 2.36-1.633 2.542.182.181.726-.908 2.178-1.997.726-.545 1.633-1.089 2.54-1.634l1.633-.544c.545-.182 1.089-.182 1.271 0v.363c-.182.181-.363.363-.726.544-.545.363-1.089.726-1.633.908-1.089.544-1.996.907-2.904 1.271-1.27.726-2.359.726-2.359.907z" fill="#263238"/><path d="M434.487 648.311c.182 0 .726-1.089.726-2.904 0-.908-.181-1.997-.544-3.268-.182-.544-.545-1.27-.726-1.815-.363-.545-.726-1.271-1.996-1.452-.544 0-1.089.544-1.27.907-.182.363-.182.727-.363 1.09v1.996c.181 1.271.726 2.36 1.451 3.086 1.271 1.453 2.359 1.816 2.541 1.634.181-.182-.907-.726-1.815-2.178-.544-.726-.907-1.634-1.088-2.723v-1.634c0-.544.362-1.089.544-1.089.363 0 .726.363 1.089.908.363.544.544 1.089.725 1.633.363 1.089.545 1.997.726 2.905 0 1.815-.181 2.904 0 2.904z" fill="#263238"/><path d="M433.036 365.13l90.545-.726 43.731 287.719-37.561 4.72-48.267-236.529-14.335 237.437v.726l-40.646-.726 6.533-292.621z" fill="#263238"/><path d="M474.226 388.365h-7.621c-4.9 0-11.432-.181-19.416-.181l.363-.363v18.878l-.181-.363c1.088 1.09 2.177 1.997 3.447 3.086 3.448 3.268 6.895 6.354 9.98 9.258h-.544a675.768 675.768 0 0013.428-11.799l-.182.363c0-5.627.182-10.165.182-13.614 0-1.634-.001-2.723.181-3.813.363-.907.363-1.452.363-1.452v1.271c0 .908 0 2.178.181 3.63 0 3.449.182 8.169.182 13.796v.182l-.182.182c-3.81 3.449-8.347 7.442-13.427 11.98l-.363.363-.363-.363c-3.266-2.904-6.533-5.99-9.98-9.258-1.089-1.089-2.359-2.178-3.448-3.086l-.181-.181v-19.423h.363c7.984.181 14.697.363 19.597.544 2.177 0 3.992.182 5.443.182 1.452.181 2.178.181 2.178.181zm42.641-1.27s-.725.181-1.814.363c-1.27.181-2.903.363-4.899.544-4.355.545-10.343 1.089-17.42 1.997l.363-.545c.726 5.628 1.452 11.981 2.359 18.698l-.181-.363c1.27.907 2.54 1.996 3.991 3.086 3.267 2.723 6.533 5.264 9.618 7.624h-.726c3.992-4.902 7.621-9.44 10.705-13.252v.363c-.544-5.627-1.088-10.165-1.451-13.433-.182-1.633-.182-2.723-.363-3.812-.181-.726-.182-1.27-.182-1.27s.182.363.182 1.27c.181.908.363 2.179.544 3.631.545 3.449 1.089 7.987 1.815 13.614v.182l-.182.181a881.499 881.499 0 00-10.524 13.252l-.363.363-.363-.363c-3.084-2.36-6.351-5.083-9.617-7.624-1.27-1.089-2.722-2.179-3.992-3.086l-.181-.182v-.181c-.726-6.717-1.633-13.07-2.178-18.698v-.363h.363a1099.61 1099.61 0 0117.601-1.633c1.996-.182 3.629-.363 4.899-.363h1.996zm-55.524 43.747c0-.181 1.451-1.089 3.81-2.541s5.807-3.267 9.617-5.264c3.811-1.997 7.44-3.449 9.98-4.538 2.54-1.09 4.355-1.634 4.355-1.453 0 .182-1.452.908-3.992 2.179-2.54 1.27-5.988 2.904-9.798 4.719-3.811 1.997-7.259 3.631-9.799 5.083-2.54 1.089-3.992 1.815-4.173 1.815z" fill="#455A64"/><path d="M462.613 437.74c-.182-.181 4.536-2.178 8.891-6.535 4.355-4.356 6.351-8.894 6.532-8.894.182 0-1.451 5.082-5.988 9.439-4.355 4.72-9.435 6.172-9.435 5.99zm-25.585 83.14c.181 0 .907 1.996 2.903 4.901 1.996 2.904 5.444 6.535 10.343 8.531 4.899 1.997 9.98 2.179 13.427 1.453 3.448-.545 5.444-1.634 5.444-1.453 0 0-.363.364-1.27.727s-2.359.907-3.992 1.27c-3.448.726-8.71.908-13.791-1.27-5.08-2.179-8.709-5.991-10.524-9.077-.907-1.452-1.633-2.904-1.815-3.812-.725-.726-.907-1.27-.725-1.27zm5.988-2.36c0-.182 1.451.363 3.629.907 2.177.545 5.443 1.09 8.891 1.271 7.077.182 12.702-.726 12.702-.544 0 .181-1.452.544-3.629.907-2.359.363-5.444.726-9.073.545-3.629-.182-6.714-.726-9.073-1.452-2.359-.908-3.629-1.634-3.447-1.634zm67.319 1.633c.182-.181 5.081 4.176 12.521 6.898 7.439 2.905 13.972 2.542 13.972 2.905 0 .181-1.633.363-4.174.181-2.54-.181-6.351-.726-9.98-2.178-3.81-1.452-6.895-3.267-9.073-4.901-2.177-1.634-3.447-2.905-3.266-2.905zm7.984-.363c0-.363 3.811.182 8.166-.181 4.536-.363 8.165-1.452 8.165-1.089.182.181-3.448 1.633-8.165 1.996-4.537.363-8.347-.544-8.166-.726zm-36.291-97.479c.182-.363 6.351 2.36 14.698 3.63 8.166 1.271 15.061.726 15.061 1.089 0 .182-1.633.363-4.537.545-2.721.182-6.532 0-10.705-.726-4.174-.726-7.803-1.815-10.525-2.723-2.359-.908-3.992-1.815-3.992-1.815zm2.541-9.803c.181 0 .544.908.363 1.816 0 1.089-.182 1.815-.545 1.815-.181 0-.544-.908-.363-1.815 0-.908.363-1.816.545-1.816zm0-7.261c.181 0 .544.726.544 1.815 0 1.09-.181 1.816-.544 1.816-.363 0-.545-.726-.545-1.816 0-.907.363-1.815.545-1.815zm-.182-7.261c.182 0 .545.726.545 1.815 0 1.09-.182 1.816-.363 1.816-.182 0-.545-.726-.545-1.816-.181-.907 0-1.815.363-1.815zm-.363-7.261c.182 0 .545.726.545 1.815s-.182 1.815-.363 1.815c-.182 0-.545-.726-.545-1.815 0-.907.182-1.815.363-1.815zm-.544-7.261c.181 0 .544.726.544 1.815s0 1.815-.363 1.815c-.181 0-.544-.726-.544-1.815 0-.907.181-1.815.363-1.815zm-.544-7.261c.181 0 .544.726.726 1.815.181 1.089-.001 1.815-.363 1.815-.182 0-.545-.726-.726-1.815-.182-.907 0-1.634.363-1.815zm50.988 273.923c.182 0 .545.727.908 1.634.181.908.181 1.816-.182 1.816-.181 0-.544-.727-.907-1.634-.182-.908 0-1.816.181-1.816zm-1.451-7.079c.181 0 .544.726.907 1.634.181.907.181 1.815-.181 1.815-.182 0-.545-.726-.908-1.634 0-1.089 0-1.815.182-1.815zm-1.452-7.261c.181 0 .544.726.907 1.634.182.907.182 1.815-.181 1.815s-.544-.726-.907-1.634c0-.907 0-1.634.181-1.815zm-1.27-7.08c.181 0 .544.726.907 1.634.182.908.182 1.815-.181 1.815-.182 0-.545-.726-.908-1.634-.181-.907-.181-1.815.182-1.815zm-1.452-7.079c.182 0 .545.726.908 1.633.181.908.181 1.816-.182 1.816s-.544-.726-.907-1.634c-.182-.908-.182-1.815.181-1.815zm-1.451-7.08c.181 0 .544.726.907 1.634.181.908.181 1.815-.182 1.815-.181 0-.544-.726-.907-1.633-.181-.908-.181-1.816.182-1.816zm-1.452-7.261c.182 0 .544.726.907 1.634.182.908.182 1.815-.181 1.815-.182 0-.545-.726-.907-1.633-.182-.908 0-1.634.181-1.816zm-1.452-7.079c.182 0 .545.726.908 1.633.181.908.181 1.816-.182 1.816-.181 0-.544-.727-.907-1.634 0-.908 0-1.634.181-1.815zm-1.451-7.08c.181 0 .544.726.907 1.634.181.907.181 1.815-.181 1.815-.182 0-.545-.726-.908-1.634 0-.907 0-1.815.182-1.815zm-1.27-7.079c.181 0 .544.726.907 1.633.181.908.181 1.816-.182 1.816-.181 0-.544-.726-.907-1.634-.181-.908-.181-1.815.182-1.815zm-1.452-7.08c.181 0 .544.726.907 1.634.182.907.182 1.815-.181 1.815-.182 0-.545-.726-.908-1.634-.181-1.089-.181-1.815.182-1.815zm-1.452-7.261c.182 0 .545.726.908 1.634.181.907.181 1.815-.182 1.815s-.544-.726-.907-1.634c-.182-.907-.182-1.634.181-1.815zm-1.451-7.08c.181 0 .544.726.907 1.634.181.908.181 1.815-.182 1.815s-.544-.726-.907-1.633c-.181-.908 0-1.816.182-1.816zm-1.452-7.079c.181 0 .544.726.907 1.634.182.907.182 1.815-.181 1.815-.182 0-.545-.726-.907-1.634-.182-.907 0-1.815.181-1.815zm-1.452-7.08c.182 0 .545.726.908 1.634.181.908.181 1.815-.182 1.815-.181 0-.544-.726-.907-1.633 0-.908 0-1.816.181-1.816zm-1.451-7.261c.181 0 .544.726.907 1.634.181.908.181 1.815-.182 1.815-.181 0-.544-.726-.907-1.633 0-.908 0-1.634.182-1.816zm-1.27-7.079c.181 0 .544.726.907 1.634.181.907.181 1.815-.182 1.815-.181 0-.544-.726-.907-1.634-.181-.908-.181-1.634.182-1.815zm-1.452-7.08c.181 0 .544.726.907 1.634.182.908.182 1.815-.181 1.815-.182 0-.545-.726-.908-1.633-.181-.908-.181-1.816.182-1.816zm-1.452-7.079c.182 0 .545.726.907 1.633.182.908.182 1.816-.181 1.816-.181 0-.544-.726-.907-1.634-.182-.908-.182-1.815.181-1.815zm-1.451-7.08c.181 0 .544.726.907 1.634.181.908.181 1.815-.182 1.815-.181 0-.544-.726-.907-1.633-.181-1.09 0-1.816.182-1.816zm-1.452-7.261c.182 0 .544.726.907 1.634.182.907.182 1.815-.181 1.815-.182 0-.544-.726-.907-1.634 0-.907 0-1.633.181-1.815zm-1.452-7.079c.182 0 .545.726.908 1.633.181.908.181 1.816-.182 1.816-.181 0-.544-.727-.907-1.634 0-.908 0-1.815.181-1.815zm-1.27-7.08c.182 0 .545.726.907 1.634.182.907.182 1.815-.181 1.815-.181 0-.544-.726-.907-1.634-.182-.907-.182-1.815.181-1.815zm-1.451-7.08c.181 0 .544.727.907 1.634.181.908.181 1.816-.182 1.816-.181 0-.544-.727-.907-1.634-.181-.908-.181-1.816.182-1.816zm-1.452-7.261c.181 0 .544.727.907 1.634.182.908.182 1.816-.181 1.816-.182 0-.545-.727-.908-1.634-.181-.908-.181-1.634.182-1.816zm-1.452-7.079c.182 0 .545.726.908 1.634.181.907.181 1.815-.182 1.815-.181 0-.544-.726-.907-1.634-.182-.907 0-1.633.181-1.815zm-1.451-7.08c.181 0 .544.727.907 1.634.181.908.181 1.815-.182 1.815-.181 0-.544-.726-.907-1.633-.181-.908 0-1.816.182-1.816zm-1.452-7.079c.181 0 .544.726.907 1.634.182.907.182 1.815-.181 1.815s-.545-.726-.907-1.634c0-.908 0-1.815.181-1.815zm-1.452-7.08c.182 0 .545.727.908 1.634.181.908.181 1.815-.182 1.815-.181 0-.544-.726-.907-1.633 0-1.089 0-1.816.181-1.816zm-1.27-7.261c.182 0 .545.726.908 1.634.181.908.181 1.815-.182 1.815s-.544-.726-.907-1.633c-.182-.908-.182-1.634.181-1.816zm-1.451-7.079c.181 0 .544.726.907 1.634.181.907.181 1.815-.182 1.815-.181 0-.544-.726-.907-1.634-.181-.908-.181-1.815.182-1.815zm-1.452-7.08c.181 0 .544.726.907 1.634.182.908.182 1.815-.181 1.815s-.545-.726-.908-1.634c-.181-.907-.181-1.815.182-1.815z" fill="#455A64"/><path d="M488.561 423.218c.181 0 .544.545.726 1.271.181.726 0 1.271-.182 1.452-.181 0-.544-.544-.726-1.27-.181-.727 0-1.453.182-1.453z" fill="#455A64"/><path d="M364.083 232.797s-10.524-15.974-10.887-15.974c0 0-9.617-16.156-12.702-16.156-3.266 0-1.996 3.267 1.27 9.076 2.903 5.083 3.085 8.169 3.085 8.169l-7.803 4.72s-5.262-1.997-5.443 2.904c0 1.634.362 3.631.907 6.717.363 1.815 1.089 3.63 2.722 2.904.725-.363 1.451-.908 1.451-1.997.182-2.904-.363-3.993 0-3.993.545 0 5.625 15.248 5.625 15.248l21.775-11.618z" fill="#FFBE9D"/><path d="M342.671 220.453c-.725-.544-1.633-1.089-2.54-1.452s-1.815-.545-2.903-.363c-.545.182-1.271.363-1.633.908-.545.726-.545 1.633-.363 2.36.181.726.725 1.452 1.27 2.178" fill="#FFBE9D"/><path d="M346.3 217.186c-.725-.545-1.451-1.089-2.358-1.452-.908-.363-1.815-.545-2.722-.363-.545.181-1.089.363-1.452.726-.544.544-.544 1.452-.363 2.36.182.726 1.996 2.541 2.359 3.085m18.69 2.36l15.242 32.857-16.875 17.245-8.892-24.506s-4.717.907-6.713-2.179c-2.178-3.449-4.9-13.614-4.9-13.614l22.138-9.803z" fill="#FFBE9D"/><path d="M349.567 222.995c-.363.181-1.089-1.997-2.541-3.994-1.451-1.997-3.447-3.086-3.266-3.267 0-.182 2.359.544 3.992 2.723 1.633 2.178 1.996 4.538 1.815 4.538zm-17.057.181s.363-.544 1.27-.907 2.54-.363 3.992.363 2.177 1.996 2.54 2.904c.363.908.545 1.452.545 1.452-.182 0-.545-.363-1.089-1.089-.544-.726-1.27-1.815-2.54-2.36-1.089-.726-2.359-.726-3.267-.544-.907 0-1.451.181-1.451.181zm5.625-4.719c0-.182 2.177-.364 4.173 1.452 1.996 1.633 2.359 3.812 2.178 3.812-.182.181-1.089-1.634-2.903-3.086-1.452-1.452-3.448-1.815-3.448-2.178zm-3.629 7.079c.181 0 .363 1.089.907 1.997.544.907 1.452 1.452 1.452 1.634 0 .181-1.452 0-2.178-1.271-.907-1.089-.544-2.36-.181-2.36z" fill="#EB996E"/><path d="M364.083 232.253s.544-9.803-1.815-11.981c-2.359-2.179-9.072 0-9.072 0" fill="#FFBE9D"/><path d="M352.107 215.734c.181-.182 2.177 2.178 4.173 5.082 2.178 2.905 3.629 5.446 3.448 5.628-.181.181-2.177-2.179-4.173-5.083-1.996-3.086-3.63-5.627-3.448-5.627z" fill="#EB996E"/><path d="M517.231 224.628a27.099 27.099 0 00-1.089-4.538c-.363-1.452-1.089-2.904-1.996-4.356-1.089-1.634-2.541-3.631-3.811-4.539-1.451-1.089-.907-3.267.726-3.267s5.625 2.904 8.528 7.987c2.722 5.083 4.537-3.993 5.081-7.261.726-3.267 3.085-13.251 4.355-13.977 1.633-.908 2.903.726 2.178 3.993-.726 3.268-2.178 13.252-.545 13.433 1.633.182 4.899-16.519 4.899-16.519s0-3.63 2.178-3.449c3.629.363-.907 17.971-1.452 19.605-.363 1.089 1.633 1.452 1.815.182.363-1.271 2.722-16.701 6.532-16.338 2.903.363-3.629 14.522-2.359 17.971s3.811-11.254 6.533-10.891c1.088.181 1.814.363-.908 8.713-1.27 3.994-6.351 22.691-6.351 22.691l2.904 15.248-23.226 5.809-3.992-30.497zm-29.396-83.139l.181 76.241-32.661 1.634-.908-18.516s-11.613 2.36-14.698-8.531c-1.996-6.898-1.451-60.267-1.451-60.267l49.537 9.439z" fill="#FFBE9D"/><path d="M433.943 137.496c5.081 1.452 6.351 9.984 6.351 9.984l8.165 17.789c4.174-3.267 9.617-3.086 10.706 4.175.726 5.265-5.807 6.354-5.807 6.354 3.811 6.535 6.351 11.617 11.795 17.789 5.988 6.717 9.254 7.261 15.787 7.443h7.076s3.448-11.255 9.98-39.754c7.258-31.405-29.94-27.411-36.835-35.398-11.25-13.252-43.368 6.898-27.218 11.618z" fill="#263238"/><path d="M497.452 164.18c5.988-3.994 6.532-15.43 3.085-22.146-3.448-6.717-10.888-11.436-18.509-11.618-1.088 0-1.996 0-3.084-.363-1.452-.545-2.359-1.815-3.267-3.086-5.443-7.079-10.705-13.977-20.685-13.977-1.633 0-3.448 0-6.351 1.633-1.452.726-3.448 3.449-3.811 5.083-1.814-.908-3.81-1.815-5.806-2.178s-4.355 0-5.807 1.452c-1.633 1.452-2.177 3.994-.907 5.627-3.448-.181-6.533 2.542-7.077 5.991-.544 3.267 4.355 5.627 4.718 5.99 0 0-2.722 5.446 3.629 8.895 2.54 1.271 5.807-.182 6.169-.545" fill="#263238"/><path d="M473.5 171.623c.363 0 .363 2.541 1.089 5.627s1.633 5.446 1.451 5.446c-.181.181-1.633-2.179-2.359-5.264-.725-3.268-.362-5.991-.181-5.809zm-3.992-3.812c.181 0 .544 2.359 1.089 5.445.544 2.905 1.088 5.446.907 5.446-.182 0-1.27-2.178-1.815-5.264-.544-3.086-.363-5.627-.181-5.627zm-11.25-12.526c0-.181 1.088.363 2.54 1.816 1.27 1.27 2.903 3.449 3.811 6.171 1.088 2.723 1.451 5.265 1.814 7.08.182 1.815.363 2.904.182 3.086-.182 0-.363-1.089-.908-2.905-.363-1.815-.907-4.356-1.996-6.898-.907-2.541-2.359-4.719-3.447-6.171-1.27-1.453-2.178-2.179-1.996-2.179zm-4.718-8.713c.363 0-.544 3.267.544 7.08.908 3.812 3.085 6.353 2.904 6.534-.182.182-2.722-2.178-3.811-6.171-1.089-4.176.182-7.443.363-7.443zm39.194 19.06c-.181-.181.726-.907 1.815-1.634 1.088-.544 2.177-.907 2.177-.726.182.182-.726.908-1.814 1.634-1.089.726-2.178 1.089-2.178.726zm-15.786-8.168c.181 0 .725 1.27 1.633 2.904.907 1.452 1.996 2.541 1.814 2.904-.181.182-1.451-.726-2.54-2.359-1.089-1.634-1.27-3.268-.907-3.449zm-4.9-2.542c.182 0 .908 1.634 2.178 3.449 1.27 1.816 2.54 3.086 2.359 3.449-.182.182-1.815-.907-3.085-2.904-1.452-1.997-1.815-3.994-1.452-3.994zm-24.315-31.948l.363-.364c.182-.363.726-.544 1.27-1.089 1.089-.726 3.085-1.633 5.626-1.815 2.54-.181 5.625.363 8.528 2.178 2.903 1.634 5.444 4.539 7.258 7.988 1.27 2.359 2.178 4.901 2.903 7.442l-.725-.363a17.317 17.317 0 017.621-1.815c2.359 0 4.536.544 6.169 1.089 1.633.545 2.903 1.452 3.629 1.997.726.544 1.089.907 1.089.907-.181.182-1.633-1.27-4.899-2.359-3.085-1.09-8.347-1.634-13.246.907l-.545.182-.181-.545c-.545-2.36-1.452-4.72-2.722-7.079-1.815-3.268-4.174-5.991-6.895-7.625-2.722-1.633-5.626-2.178-7.984-2.178-2.359 0-4.355.726-5.444 1.452-1.089.545-1.633 1.09-1.815 1.09z" fill="#455A64"/><path d="M430.677 127.149c0 .181-.908 0-1.633 1.089-.363.544-.726 1.271-.545 2.178.182.908.726 1.634 1.633 2.178.908.545 2.178.727 3.448.364 1.27-.364 2.54-1.09 3.811-1.997 1.27-.908 2.54-1.997 3.991-2.905 1.452-.907 3.267-1.452 5.081-1.815 3.629-.726 7.258-.181 10.343.726 3.085 1.089 5.444 2.542 7.44 3.994 1.996 1.452 3.266 2.904 4.173 3.812.907.907 1.27 1.634 1.27 1.634-.181.181-1.996-2.179-5.806-4.902-1.996-1.27-4.355-2.723-7.258-3.63-2.904-.908-6.351-1.271-9.799-.726-1.814.363-3.447.907-4.899 1.633-1.452.727-2.722 1.816-3.992 2.723-1.27.908-2.722 1.634-4.174 1.997-1.451.363-2.903.182-3.992-.544-1.088-.727-1.814-1.634-1.996-2.723-.181-1.09.363-1.816.726-2.36 1.27-1.089 2.178-.726 2.178-.726z" fill="#455A64"/><path d="M521.041 221.542l39.92 71.522c2.359 5.99.907 13.977-3.085 19.06l.908-1.27c-3.267 3.993-8.166 6.353-13.247 6.353h-.725c-6.714 0-12.884-3.994-15.605-10.347l-9.436-14.341 1.27-70.977z" fill="#E8505B"/><path d="M434.487 216.46c7.803-3.994 15.605-4.902 24.134-5.083 9.798-.363 23.77-1.634 34.295-.545 0 0 32.299-.907 32.48 24.143l-4.355 96.209 6.895 41.207-96.896 2.904.725-48.649c-1.27-25.232 1.271-61.174 1.271-61.174-1.452-13.615-8.892-19.787-9.98-28.5-.908-7.987 4.355-16.882 11.431-20.512z" fill="#E8505B"/><path d="M461.705 332.455c.182-.181 2.178 1.815 6.17 3.812 3.992 2.178 9.798 4.175 16.694 4.357 6.714.181 12.883-1.816 16.875-3.812 3.992-1.997 6.17-3.812 6.351-3.631 0 0-.544.545-1.452 1.271-.907.726-2.54 1.815-4.536 2.904-3.992 2.179-10.162 4.175-17.057 4.175-7.077-.181-13.065-2.36-16.875-4.719-1.996-1.089-3.448-2.179-4.355-3.086-1.27-.726-1.815-1.271-1.815-1.271zm63.691-97.661v3.63c0 2.542-.181 5.809-.181 9.984-.182 8.532-.545 20.15-1.089 33.038-.545 12.888-1.089 24.506-1.815 33.038-.363 4.175-.544 7.624-.726 9.984-.181 1.089-.181 1.997-.362 2.723 0 .544-.182.907-.182.907v-.907c0-.726 0-1.634.182-2.723.181-2.541.362-5.809.544-9.984.363-8.532.907-20.15 1.452-33.038.544-12.888 1.088-24.506 1.451-33.038.182-4.175.363-7.442.545-9.984 0-1.089.181-1.996.181-2.723-.181-.544-.181-.907 0-.907z" fill="#263238"/><path d="M545.719 243.144s3.629 10.71 4.355 12.162c0 0 9.072 26.14 11.976 43.748l-28.852-52.279c-.362.181 11.976-3.631 12.521-3.631z" fill="#E8505B"/><path d="M531.384 239.877s.726.907 1.815 2.722c1.088 1.816 2.721 4.357 4.536 7.443 3.81 6.353 9.436 14.704 15.061 24.506 2.721 4.901 5.08 9.621 7.258 14.159 1.996 4.357 3.084 8.895 2.722 12.707-.363 3.812-1.452 6.535-2.541 8.35-.544.908-1.089 1.452-1.451 1.997l-.545.545s.726-.908 1.633-2.723c.908-1.816 1.996-4.538 2.178-8.169.181-3.631-.726-7.806-2.904-12.344-1.996-4.356-4.354-9.076-7.258-13.977-5.625-9.621-11.068-18.153-14.697-24.506-1.815-3.086-3.267-5.809-4.355-7.624-1.089-1.997-1.452-2.905-1.452-3.086z" fill="#263238"/><path d="M353.196 266.743l22.5-14.704 14.153 24.506s19.598-27.229 28.489-43.203c8.165-14.704 18.871-18.698 23.952-19.787 1.451-.363 2.903.908 2.722 2.542l-7.803 53.005c-.907 2.723-17.238 26.14-26.129 38.121-15.061 19.786-37.38 7.079-43.368-6.717-5.081-11.073-12.52-27.773-14.516-33.763z" fill="#E8505B"/><path d="M383.317 298.691c-.181 0-.181-1.271-.181-3.449s.181-5.264.907-8.532c.726-3.267 1.996-6.172 3.266-7.987 1.27-1.815 2.359-2.723 2.359-2.723.181.182-.726 1.089-1.815 2.905-1.088 1.815-2.177 4.538-2.903 7.805-.726 3.268-.907 6.172-1.089 8.351-.181 2.178-.362 3.63-.544 3.63z" fill="#263238"/><path d="M376.785 287.618c-.182 0-.182-1.271.181-3.086s1.452-4.357 3.629-6.535c1.996-2.178 4.537-3.449 6.533-3.267 1.996 0 2.903 1.089 2.903 1.089 0 .181-1.089-.545-2.903-.545-1.815 0-3.992 1.271-5.988 3.268-1.996 1.997-3.085 4.356-3.629 5.99-.545 1.997-.545 3.268-.726 3.086zm66.957-67.528s.181.182.725.545c.363.363 1.089.907 1.633 1.634 1.271 1.452 3.085 3.993 4.174 7.624 1.089 3.449 1.633 7.987 1.089 12.888-.363 2.36-.908 4.901-1.996 7.443-1.089 2.541-2.359 4.901-3.63 7.261-5.443 9.621-11.25 17.971-15.423 23.961-2.178 2.905-3.811 5.264-5.081 6.898-.544.726-1.089 1.452-1.452 1.815l-.544.545s.544-.908 1.815-2.541a1077.16 1077.16 0 004.899-7.08c3.992-5.99 9.798-14.34 15.242-23.961 1.27-2.36 2.722-4.72 3.629-7.261 1.089-2.36 1.633-4.72 1.996-7.08.726-4.72.182-9.076-.907-12.525-.907-3.449-2.54-5.991-3.811-7.624-.544-.727-1.088-1.453-1.451-1.816-.726-.544-1.089-.726-.907-.726z" fill="#263238"/><path opacity=".3" d="M468.601 336.812c-7.077-3.268-12.884-10.71-13.065-18.334 0-1.997.363-4.176 1.815-5.628 2.177-1.997 5.625-1.633 8.346-.363 4.355 2.36 7.077 6.535 10.162 10.347 3.085 3.812 6.895 7.624 11.794 7.987 2.178.182 4.174-.181 6.351-.544 1.996-.182 4.355-.182 6.17.726 1.814.908 3.266 3.267 2.54 5.264 0 0-8.528 5.264-17.419 4.72-9.073-.545-16.694-4.175-16.694-4.175z" fill="#000"/><path d="M443.56 360.955s1.089.181 2.722.726c1.814.544 4.355 1.089 7.621 1.815s7.077 1.452 11.431 1.815c4.355.545 9.073.908 14.154.908 5.081 0 9.798-.363 14.153-.726 4.355-.545 8.166-1.089 11.432-1.815s5.807-1.271 7.621-1.816c1.815-.544 2.722-.726 2.722-.726l-2.722 1.089a409.267 409.267 0 01-7.621 2.179 122.274 122.274 0 01-11.432 1.997c-4.355.544-9.254.907-14.153.907-5.081 0-9.799-.363-14.154-.907-4.354-.545-8.165-1.271-11.431-2.179-3.266-.726-5.807-1.452-7.621-2.178-1.815-.545-2.722-.908-2.722-1.089z" fill="#263238"/><path d="M197.761 580.333H-26.465v91.176H197.76v-91.176z" fill="#FAFAFA"/><path d="M197.912 671.509v-24.455c0-15.699-.151-38.493-.151-66.57l.302.302c-57.038 0-136.407 0-224.226.151l.301-.302v91.175l-.302-.301c65.035 0 121.016.15 160.852.15 19.918 0 35.761 0 46.626.151h15.693c.452-.301.905-.301.905-.301h-16.598c-10.865 0-26.708 0-46.626.15-39.836 0-95.968.151-161.002.151h-.302v-91.779h.302c87.82 0 167.189.151 224.226.151h.302v.302c0 28.228-.151 51.022-.151 66.721v22.794c-.151 1.057-.151 1.51-.151 1.51z" fill="#E0E0E0"/><path d="M-26.163 592.711c0-.151 50.096-.302 111.962-.302 61.866 0 111.962.151 111.962.302s-50.096.302-111.962.302c-61.866 0-111.963-.151-111.963-.302zm73.031 14.794h-54.17v54.192h54.17v-54.192zm135.502 14.491c0 .151-27.915.302-62.319.302-34.403 0-62.318-.151-62.318-.302s27.915-.302 62.318-.302c34.404 0 62.319.151 62.319.302zm0 11.02c0 .151-27.915.302-62.319.302-34.403 0-62.318-.151-62.318-.302s27.915-.302 62.318-.302c34.404 0 62.319.151 62.319.302zm-44.362 11.019h-3.018c-2.113 0-4.98 0-8.601.151-7.394 0-17.353 0-28.368.151-11.015 0-20.974-.151-28.368-.151-3.621 0-6.488-.151-8.6-.151h-3.018 3.018c2.112 0 4.979 0 8.6-.151 7.394 0 17.353 0 28.368-.151 11.015 0 20.974.151 28.368.151 3.621 0 6.488.151 8.601.151h3.018z" fill="#E0E0E0"/><path d="M225.978 537.614H27.856v133.895h198.122V537.614z" fill="#fff"/><path d="M226.129 671.509v-36.38c0-23.247-.151-56.758-.151-97.515l.302.302H28.158l.302-.302v133.895l-.302-.302c58.395 0 107.888.151 142.744.151 17.504 0 31.235 0 40.741.151h13.581-13.43c-9.506 0-23.237 0-40.741.151-35.007 0-84.5.15-142.895.15h-.302V537.312h198.726v.302c0 40.908-.151 74.419-.151 97.666v33.813c-.302 1.661-.302 2.416-.302 2.416z" fill="#E0E0E0"/><path d="M27.856 549.539c0-.151 44.363-.302 98.986-.302 54.623 0 98.985.151 98.985.302s-44.362.302-98.985.302c-54.623.151-98.986 0-98.986-.302zm7.847-6.038c0 .906-.755 1.66-1.66 1.66-.906 0-1.66-.754-1.66-1.66 0-.906.754-1.66 1.66-1.66 1.056.15 1.66.754 1.66 1.66zm3.923 1.66a1.66 1.66 0 100-3.32 1.66 1.66 0 000 3.32zm5.281 0a1.66 1.66 0 100-3.32 1.66 1.66 0 000 3.32zm52.813 18.417H44.906v53.286h52.812v-53.286zm101.248 15.095c0 .151-20.672.302-46.022.302-25.501 0-46.022-.151-46.022-.302s20.672-.302 46.022-.302c25.35-.151 46.022 0 46.022.302zm0 9.812c0 .151-20.672.302-46.022.302-25.501 0-46.022-.151-46.022-.302s20.672-.302 46.022-.302c25.35 0 46.022.151 46.022.302zm0 9.963c0 .151-20.672.302-46.022.302-25.501 0-46.022-.151-46.022-.302s20.672-.302 46.022-.302c25.35 0 46.022.151 46.022.302zm-37.723 9.963s-.754.15-2.112.15c-1.509 0-3.471 0-5.885.151-4.98 0-11.77.151-19.164.151-7.544 0-14.334 0-19.314-.151-2.414 0-4.376-.151-5.885-.151-1.358 0-2.112-.15-2.112-.15s.754-.151 2.112-.151c1.509 0 3.471 0 5.885-.151 4.98 0 11.77-.151 19.314-.151 7.545 0 14.335 0 19.164.151 2.414 0 4.376.151 5.885.151 1.358 0 2.112 0 2.112.151zm-88.121 26.416H48.227v25.058h24.897v-25.058zm45.117 0H93.343v25.058h24.898v-25.058zm44.966 0h-24.898v25.058h24.898v-25.058zm45.117 0h-24.898v25.058h24.898v-25.058z" fill="#E0E0E0"/><path fill-rule="evenodd" clip-rule="evenodd" d="M80.065 176.083c-2.565.453-5.13.453-7.545.151l-3.923 5.887-10.864-4.227 1.056-6.944c-1.962-1.509-3.923-3.17-5.432-5.283l-6.941 1.359-4.678-10.567 5.583-4.227c-.453-2.566-.452-5.132-.15-7.547l-5.886-3.925 4.226-10.869 6.94 1.057c1.51-1.962 3.17-3.925 5.282-5.434l-1.358-6.944 10.562-4.68 4.225 5.586c2.565-.453 5.13-.453 7.545-.151l3.923-5.887 10.864 4.226-1.056 6.944c1.962 1.51 3.923 3.17 5.432 5.283l6.941-1.358 4.678 10.566-5.583 4.227c.453 2.566.453 5.133.151 7.548l5.885 3.925-4.225 10.868-6.941-1.057c-1.51 1.963-3.17 3.925-5.282 5.435l1.358 6.944-10.562 4.679-4.225-5.585zm0-16.756c6.337-2.717 9.053-10.114 6.337-16.454-2.716-6.34-10.11-9.057-16.447-6.34-6.337 2.717-9.053 10.114-6.337 16.454 2.867 6.34 10.11 9.208 16.447 6.34z" fill="#E0E0E0"/><path d="M16.69 293.977v-21.134c0-13.585 0-33.36-.15-57.513l.15.151h-136.105l.302-.301v78.797l-.302-.302c39.836 0 73.786.151 97.93.151h37.572c.301.151.603.151.603.151h-38.025c-24.143 0-58.093 0-98.08.151h-.302v-79.401H16.84v.151c0 24.152-.15 43.927-.15 57.512v21.587z" fill="#E0E0E0"/><path d="M16.69 224.69c0 .15-30.48.301-67.902.301-37.572 0-68.052-.151-68.052-.301 0-.151 30.48-.302 68.052-.302 37.573 0 67.902.151 67.902.302zm-9.808 19.925H4.468c-1.66 0-3.773 0-6.489.151-5.583 0-13.127 0-21.577.151-8.3 0-15.995 0-21.578-.151-2.716 0-4.828 0-6.488-.151h-2.415 2.414c1.66 0 3.773 0 6.489-.151 5.583 0 13.128 0 21.578-.151 8.299 0 15.994 0 21.577.151 2.716 0 4.98 0 6.489.151h2.414zm1.208 9.359H5.674c-1.66 0-3.923 0-6.64.151-5.733 0-13.429 0-22.03.151-8.6 0-16.296 0-22.03-.151-2.716 0-4.98 0-6.64-.151h-2.414 2.414c1.66 0 3.924 0 6.64-.151 5.734 0 13.43 0 22.03-.151 8.601 0 16.297 0 22.03.151 2.717 0 4.98 0 6.64.151h2.414zm0 9.359H5.674c-1.66 0-3.923 0-6.64.151-5.733 0-13.429 0-22.03.151-8.6 0-16.296 0-22.03-.151-2.716 0-4.98 0-6.64-.151h-2.414 2.414c1.66 0 3.924 0 6.64-.151 5.734 0 13.43 0 22.03-.151 8.601 0 16.297 0 22.03.151 2.717 0 4.98 0 6.64.151h2.414zm0 9.51H5.674c-1.66 0-3.923 0-6.64.151-5.733 0-13.429 0-22.03.151-8.6 0-16.296 0-22.03-.151-2.716 0-4.98 0-6.64-.151h-2.414 2.414c1.66 0 3.924 0 6.64-.151 5.734 0 13.43 0 22.03-.151 8.601 0 16.297 0 22.03.151 2.717 0 4.98 0 6.64.151h1.81c.453-.151.604 0 .604 0zm614.132-136.159v-14.34c0-9.208 0-22.492-.151-38.795l.151.151h-91.894l.151-.15v53.134l-.151-.151c26.859 0 49.795 0 66.091.151h25.35-25.199c-16.296 0-39.232 0-66.242.151h-.151V83.399h92.196v.15c0 16.303 0 29.587-.151 38.946v14.189z" fill="#E0E0E0"/><path d="M622.373 89.89c0 .15-20.522.15-45.872.15s-45.871-.15-45.871-.15 20.37-.152 45.72-.152c25.35 0 46.023 0 46.023.151z" fill="#E0E0E0"/><path d="M566.693 98.644h-28.367v28.379h28.367V98.644z" fill="#F5F5F5"/><path d="M859.123 671.509c0 .151-225.132.453-502.623.453-277.642 0-502.623-.151-502.623-.453 0-.151 224.98-.453 502.623-.453 277.642.151 502.623.302 502.623.453z" fill="#263238"/><path d="M159.434 168.384s-.15.151-.603.302c-.302.151-.906.302-1.66.604-1.509.302-3.923.302-6.337-.906-2.415-1.207-4.829-4.075-5.131-8-.151-1.812.302-3.925 1.207-5.585 1.057-1.812 2.565-3.321 4.527-4.227 1.962-.906 4.225-1.057 6.187-.604 1.961.453 3.772 1.51 4.979 2.868 2.565 2.717 3.169 6.491 2.414 9.208-.754 2.717-2.414 4.529-3.621 5.435a9.747 9.747 0 01-1.509.905h-.453s.755-.453 1.962-1.358c1.207-.906 2.565-2.717 3.169-5.284.603-2.566 0-6.038-2.415-8.453-1.207-1.208-2.867-2.264-4.677-2.566-1.811-.453-3.923-.151-5.734.604-1.811.754-3.32 2.113-4.225 3.774-.905 1.66-1.358 3.471-1.207 5.132.151 3.472 2.414 6.189 4.677 7.548 2.264 1.358 4.678 1.358 6.036 1.207 1.66-.302 2.414-.755 2.414-.604z" fill="#E8505B"/><path d="M159.434 181.215s.151 0 .151.302c.151.151.302.453.604.755.603.755 1.358 1.811 2.414 3.17h-.151a422.647 422.647 0 008.148-3.623l-.15.151c-.302-1.66-.755-3.321-1.057-5.283v-.151l.151-.151c1.358-1.208 2.716-2.566 3.923-4.227l.151-.151h.151c1.66.302 3.471.453 5.281.755l-.301.151c1.056-2.566 2.112-5.434 3.168-8.302l.151.301c-1.358-.905-2.867-1.962-4.527-3.019l-.15-.151v-.151c.15-1.811.15-3.773-.151-5.736v-.151l.151-.151c1.358-1.056 2.867-2.113 4.375-3.17l-.15.453a214.554 214.554 0 01-3.622-8.151l.453.151c-1.66.302-3.471.755-5.281 1.056h-.151l-.151-.151c-1.056-1.358-2.565-2.717-4.074-3.924l-.151-.151v-.302c.302-1.661.453-3.472.754-5.283l.302.452c-2.565-1.056-5.432-2.113-8.299-3.17l.453-.151c-.906 1.359-1.962 2.869-3.018 4.529l-.151.151h-.302c-1.811-.151-3.772-.151-5.734.151-.151 0 .302.151-.452-.151l-.151-.151-.151-.302-.453-.604-.754-1.056c-.604-.755-1.057-1.51-1.66-2.114l.452.151-8.148 3.623.151-.453c.302 1.812.755 3.472 1.056 5.284v.301l-.15.151c-1.509 1.208-2.867 2.567-3.924 4.076l-.151.151h-.301c-1.811-.302-3.622-.453-5.282-.755l.453-.302a477.456 477.456 0 01-3.169 8.303l-.151-.453c1.509 1.057 3.018 1.962 4.527 3.019l.151.151v.151c-.151 1.962-.151 3.925.151 5.736v.151l-.151.151c-1.509 1.057-2.867 2.113-4.376 3.17l.151-.453a215.328 215.328 0 003.622 8.152l-.302-.151c1.81-.302 3.621-.755 5.281-1.057h.151l.151.151c1.207 1.66 2.716 2.868 4.074 3.925l.151.151v.151c-.302 1.962-.604 3.622-.755 5.283l-.151-.302c3.169 1.208 5.885 2.264 8.3 3.321h-.151c1.207-1.811 2.263-3.17 3.017-4.378 1.962.302 3.471.151 4.376.151.453 0 .755 0 1.057-.151.15.151.301.151.301.151s-.151 0-.301.151c-.302 0-.604.151-1.057.151-.905.151-2.414.151-4.376 0h.151c-.754 1.208-1.81 2.717-3.017 4.529l-.151.151h-.151c-2.415-.906-5.131-1.963-8.299-3.17h-.151v-.151c.302-1.661.452-3.472.754-5.284l.151.302c-1.509-1.056-3.018-2.415-4.225-4.075l.302.151c-1.66.301-3.471.754-5.281 1.056h-.302l-.151-.151a216.182 216.182 0 01-3.621-8.151l-.151-.302.151-.151c1.358-1.057 2.867-2.113 4.375-3.17l-.15.302c-.302-1.962-.302-3.925-.151-5.887l.151.302c-1.509-.906-3.018-1.963-4.527-3.019l-.302-.151.151-.302a497.535 497.535 0 003.169-8.303l.151-.302h.301c1.811.302 3.471.453 5.282.755l-.302.151c1.207-1.509 2.565-3.019 4.074-4.226l-.151.301c-.302-1.811-.754-3.471-1.056-5.283v-.302l.302-.151 8.148-3.623.301-.151.151.302c.604.755 1.057 1.359 1.66 2.114l.755 1.056.452.604.151.302.151.151c-.754-.302-.151-.151-.302-.151 1.962-.302 4.074-.302 5.885-.151l-.302.151c1.057-1.509 2.113-3.019 3.018-4.529l.151-.301.302.151c2.867 1.056 5.734 2.264 8.299 3.17l.302.15v.302c-.302 1.812-.604 3.623-.755 5.284l-.151-.302c1.66 1.207 3.169 2.566 4.225 4.076l-.301-.151c1.81-.302 3.621-.755 5.281-1.057h.302l.151.302a216.182 216.182 0 003.621 8.151l.151.302-.151.151c-1.509 1.057-3.018 2.264-4.376 3.17l.151-.302c.302 2.114.302 4.076.151 5.887l-.151-.302c1.509 1.057 3.018 2.114 4.527 3.019l.151.151-.151.302c-1.207 2.868-2.264 5.737-3.169 8.303l-.151.151h-.151c-1.811-.302-3.621-.604-5.281-.755l.302-.151c-1.207 1.66-2.565 3.019-4.074 4.227l.151-.151c.301 1.962.754 3.623 1.056 5.283v.151h-.151c-3.32 1.509-6.036 2.566-8.148 3.623h-.151v-.151c-1.056-1.359-1.811-2.415-2.264-3.17-.301-.302-.452-.604-.603-.906l-.755-.453z" fill="#E8505B"/><path d="M159.434 168.384s-.151 0-.301.151c-.151.151-.453.151-.906.302-.754.151-1.961.453-3.47.453-1.509-.151-3.32-.604-5.131-1.811-1.81-1.208-3.319-3.472-3.772-6.189-.453-2.718.302-5.888 2.565-8.303 2.264-2.415 6.036-3.623 9.506-2.566a8.727 8.727 0 014.678 3.019c1.207 1.51 2.113 3.321 2.414 5.283.302 1.963-.15 4.076-1.207 5.887-.452.906-1.207 1.812-1.961 2.416-.453.302-.755.754-1.207.905-.151.151-.453.302-.604.453l-.302.151-.151.151c0 .151.151-.151 0-.453l-.452-.151c.301-.151.754-.302 1.056-.452 3.47-1.963 5.13-6.34 4.225-9.963-.755-3.774-3.923-6.491-7.394-7.095-3.47-.755-6.941.604-8.903 3.019-2.112 2.264-2.716 5.434-2.263 8 .453 2.567 1.962 4.68 3.621 5.888 1.66 1.207 3.471 1.811 4.98 1.811 1.509.151 2.716-.151 3.47-.302 1.057-.453 1.509-.604 1.509-.604s-.301.302-1.056.604c-.754.302-1.961.604-3.47.604-1.509 0-3.471-.604-5.282-1.812-1.81-1.207-3.47-3.471-3.923-6.189-.603-2.717.151-6.038 2.264-8.604 2.112-2.566 5.884-4.076 9.506-3.321a9.342 9.342 0 014.979 2.566c1.358 1.359 2.415 3.17 2.867 5.133.906 3.925-.754 8.604-4.677 10.868a3.73 3.73 0 01-1.359.604l-.301.151-.151-.302c-.151-.302.151-.604 0-.453h.151l.151-.151.301-.151c.151-.151.453-.301.604-.452.453-.302.754-.604 1.207-.906a6.689 6.689 0 001.811-2.264c.905-1.661 1.358-3.623 1.056-5.435-.151-1.811-1.056-3.623-2.112-4.83a8.964 8.964 0 00-4.376-2.717c-3.32-.906-6.791.151-8.903 2.264-2.113 2.113-2.867 5.132-2.565 7.699.453 2.566 1.811 4.679 3.47 5.887 1.66 1.207 3.471 1.811 4.829 1.962 1.509.151 2.565-.151 3.32-.302 1.207-.453 1.659-.604 1.659-.453z" fill="#E8505B"/><path d="M159.434 181.215c.302.453 1.208 1.661 3.32 4.378h-.151c2.113-.906 4.829-2.113 8.299-3.623l-.151.151c-.301-1.66-.754-3.472-1.056-5.434h.302v.151l-.302-.151c1.358-1.208 2.867-2.566 4.074-4.227l.151.302h-.151v-.302c1.66.302 3.622.453 5.432.755l-.151.151c1.057-2.717 2.113-5.585 3.32-8.605l.151.302c-1.358-.905-3.018-1.962-4.678-3.17l.302-.302s0 .151.151.151h-.453c.151-1.811.151-3.773-.151-5.736h.453s0 .151-.151.302l-.453-.302c1.359-1.056 2.867-2.113 4.527-3.321l-.151.302c-1.207-2.566-2.414-5.585-3.772-8.453l.302.151c-1.66.302-3.622.755-5.432 1.056v-.603c.151 0 .151 0 .301.151l-.301.452c-1.057-1.358-2.565-2.868-4.225-3.924l.452-.302c0 .151 0 .151.151.302h-.603c.301-1.661.452-3.623.754-5.586l.151.302c-2.716-1.056-5.734-2.113-8.752-3.321l.453-.151c-.905 1.359-1.962 3.02-3.169 4.68l-.452-.453c.15 0 .15-.151.301-.151l.151.604c-1.81-.151-3.772-.151-5.734.151v-.604l-.301.604h.15l.151-.604h.302l-.453.453c-1.056-1.359-2.112-2.868-3.319-4.529l.452.151c-2.565 1.208-5.583 2.416-8.6 3.774l.15-.453c.302 1.661.755 3.623 1.057 5.435h-.755c0-.151 0-.151.151-.302l.604.453c-1.358 1.056-2.867 2.566-3.923 4.226l-.453-.604c.151 0 .151 0 .302-.151l.151.755c-1.66-.302-3.622-.453-5.583-.755l.452-.15c-1.056 2.717-2.112 5.736-3.319 8.755l-.151-.453c1.509.906 3.018 1.962 4.677 3.17l-.603.453s0-.151-.151-.302l.754-.151c-.151 1.811-.151 3.774.151 5.736l-.754-.151s0-.151.151-.302l.603.453c-1.358 1.057-2.867 2.113-4.527 3.321l.151-.453c1.207 2.717 2.415 5.585 3.773 8.454l-.453-.151c1.66-.302 3.621-.755 5.432-1.057v.755h-.151l.453-.604c1.207 1.358 2.565 2.868 4.225 3.925l-.604.452v-.15l.755-.151c-.302 1.66-.453 3.622-.755 5.434l-.301-.453c2.716 1.057 5.583 2.113 8.6 3.321l-.452.151c.905-1.51 1.961-3.019 3.018-4.529l.452.604h-.151l-.151-.755c1.509.151 3.32.151 4.98-.151h.453c-.151 0 0 .604.15.453h.151l-.754.151c-.604 0-1.056.151-1.66.151-1.056 0-2.263 0-3.32-.151l.302-.151c-1.056 1.51-2.112 3.019-3.018 4.529l-.452-.604h.151v.755c-2.716-1.057-5.583-2.114-8.299-3.17l.452-.604.151.151-.754.151c.301-1.812.603-3.623.754-5.434l.151.302c-1.66-1.208-3.169-2.567-4.376-4.227l.302.151c-1.811.302-3.622.755-5.432 1.056l.151-.754.301.151-.603.453-3.622-8.152h.755v.302l-.604-.453c1.509-1.057 3.018-2.264 4.376-3.321l-.151.302c-.301-2.113-.301-4.076-.151-6.189l.151.302c-1.509-1.057-3.018-2.113-4.526-3.019l.603-.453.151.302h-.754c1.056-2.868 2.112-5.585 3.168-8.302l.604.452-.302.151-.151-.754c1.811.302 3.622.603 5.432.754l-.301.151c1.207-1.66 2.716-3.17 4.225-4.528l-.302.905c-.302-1.811-.755-3.622-1.057-5.434l.604.151c0 .151-.151.151-.151.302l-.453-.453 8.149-3.623v.604c-.151 0-.151 0-.302-.151l.302-.604c1.056 1.51 2.112 2.868 3.168 4.378l-.15-.151h.301l-.301.151.15.453.302-.604h-.151c2.113-.302 4.074-.302 6.036-.151l-.302.151c1.056-1.66 2.113-3.17 3.169-4.679l.302.452c-.151 0-.151 0-.302.151v-.603a479.872 479.872 0 018.299 3.17l-.453.452c0-.151-.151-.151-.151-.302l.604-.15c-.302 1.962-.604 3.773-.754 5.434l-.151-.302c1.81 1.208 3.168 2.717 4.376 4.227l-.302-.151c1.961-.453 3.772-.755 5.432-1.057l-.151.604c-.151 0-.151-.151-.302-.151l.453-.302c1.358 2.868 2.414 5.585 3.621 8.151h-.452c0-.151 0-.151.151-.302l.452.302c-1.66 1.208-3.018 2.265-4.376 3.321l.151-.302c.302 2.265.302 4.227.151 6.038l-.151-.15c1.66 1.207 3.169 2.113 4.527 3.019l-.302.301c0-.15 0-.15-.151-.301h.453c-1.207 3.17-2.263 5.887-3.169 8.302l-.302-.302c.151 0 .151-.151.151-.151v.302c-2.112-.302-3.772-.604-5.432-.755h.151c-1.358 1.963-2.867 3.321-4.074 4.378v-.151c.453 2.264.755 3.925 1.056 5.434h-.301s0-.151.15-.151l.151.453c-3.47 1.51-6.186 2.717-8.148 3.623v-.151h.151l-.151.151c-2.112-2.717-2.867-3.774-3.169-4.227 0 0 .302.302.906 1.057.603.755 1.358 1.811 2.565 3.17l.151.151h-.755l.151-.151c1.962-.906 4.527-2.113 8.148-3.774l.302-.151-.151.302s0 .151-.151.151l-.15.302-.151-.453c-.302-1.509-.604-3.17-1.057-5.434v-.151h.151c1.358-1.057 2.716-2.415 4.074-4.378v-.151h.151c1.66.151 3.32.453 5.432.755l.604.151-.453.302s-.151 0-.151.151l-.452.302.151-.604c.905-2.566 1.961-5.132 3.168-8.302l.302-.604.151.604c0 .151 0 .151.151.301l.151.604-.604-.302c-1.358-.905-2.867-1.962-4.527-3.019l-.15-.151v-.151c.15-1.811.15-3.773-.151-5.887v-.151l.151-.151c1.358-1.056 2.867-2.113 4.375-3.321l.604-.452-.151.754c0 .151 0 .151-.151.302l-.151.755-.301-.755c-1.208-2.566-2.264-5.283-3.622-8.151l-.302-.755.755.302c.151 0 .151.151.302.151l.754.302-.754.151c-1.66.302-3.471.755-5.433 1.056h-.15l-.151-.151c-1.207-1.509-2.565-2.868-4.376-4.075l-.151-.151v-.151c.302-1.812.453-3.623.754-5.434l.151-.906.453.755c0 .151.151.151.151.302l.453.754-.906-.302c-2.716-1.056-5.432-2.113-8.299-3.17l-.905-.302.905-.301c.151 0 .151 0 .302-.151l.905-.302-.452.754c-1.057 1.51-1.962 3.02-3.018 4.68l-.151.151h-.151c-1.811-.151-3.772-.151-5.734.151h-.302v-.151l.151-.302v-.151l.151.453-.302.151h-.452v-.151c-1.057-1.359-2.113-2.868-3.169-4.378l-.604-.754.906.301c.15 0 .15 0 .301.151l.906.302-.906.453-8.148 3.623-.905.453.452-.906c0-.151.151-.151.151-.302l.453-.905.151 1.056c.302 1.812.754 3.623 1.056 5.435v.15l-.151.151c-1.509 1.208-2.867 2.718-4.074 4.378l-.151.151h-.151c-1.81-.302-3.621-.604-5.432-.755l-1.056-.151.905-.604.302-.15.906-.604-.453 1.056c-1.056 2.718-2.113 5.435-3.169 8.303l-.453 1.056-.301-1.056-.151-.302-.302-1.057.905.604c1.509 1.057 3.018 2.113 4.527 3.019l.151.151v.302c-.302 1.962-.151 3.925.151 5.887v.302l-.151.151c-1.509 1.057-3.018 2.264-4.376 3.321l-.905.604.302-1.057v-.302l.301-1.057.453 1.057 3.621 8.152.453 1.056-.905-.453-.302-.151-1.056-.452 1.056-.151c1.811-.302 3.621-.755 5.432-1.057h.302l.151.151c1.207 1.509 2.716 2.868 4.225 4.076l.151.151v.301c-.302 1.812-.604 3.623-.755 5.435l-.151 1.056-.603-.905-.151-.151-.604-.906 1.057.453c2.716 1.057 5.583 2.113 8.299 3.17l1.056.453-1.056.302h-.151l-1.057.302.604-.906c1.056-1.51 1.962-3.019 3.018-4.529l.151-.151h.302c1.056.151 2.112.151 3.319.151.604 0 1.056 0 1.66-.151l.905-.151h.151c.151 0 .302.604.151.453h-.151l-.151.151c-.151 0-.301.151-.452.151h-.453c-1.811.302-3.471.302-5.13.151l-1.358-.151 1.358-.604h.151l1.207-.604-.755 1.208c-1.056 1.51-2.112 3.17-3.018 4.529l-.15.302-.302-.151c-2.867-1.057-5.885-2.265-8.601-3.321l-.302-.151v-.302c.302-1.812.604-3.774.755-5.434l.15-1.359.604 1.359v.15l.604 1.208-1.057-.755c-1.66-1.207-3.168-2.717-4.376-4.075l-.905-1.057 1.358.453h.151l1.358.453-1.358.302c-1.811.301-3.772.754-5.432 1.056h-.302l-.151-.302c-1.358-2.868-2.565-5.887-3.772-8.453l-.151-.302.302-.151c1.509-1.207 3.018-2.264 4.527-3.321l1.056-.755-.453 1.208c0 .151 0 .151-.151.302l-.452 1.208-.151-1.359c-.302-2.113-.302-4.076-.151-6.038l.151-1.359.603 1.208c0 .151 0 .151.151.302l.604 1.207-1.057-.754c-1.659-1.057-3.168-2.114-4.677-3.17l-.302-.151.151-.302c1.207-3.019 2.263-6.038 3.32-8.755l.15-.302h.302c1.962.302 3.773.604 5.583.754l1.358.151-1.207.453c-.151 0-.151 0-.302.151l-1.207.453.755-1.057c1.207-1.66 2.716-3.17 4.074-4.377l1.056-.755-.453 1.208c0 .151 0 .151-.151.302l-.452 1.207-.302-1.207c-.302-1.963-.754-3.774-1.056-5.435v-.302l.301-.151c3.018-1.358 5.885-2.566 8.601-3.773l.302-.151.151.151c1.207 1.509 2.263 3.17 3.32 4.528l.754.906-1.056-.453-.151-.151h-.151l.151-.604h.151l-.151.453-.151.151-.905-.302.905-.302a25.996 25.996 0 015.885-.151l1.207.151-1.056.453c-.151 0-.151.151-.302.151l-1.056.453.603-1.057c1.057-1.66 2.113-3.17 3.169-4.679l.151-.151.302.151c3.018 1.207 6.035 2.264 8.752 3.321l.301.151v.302c-.301 1.962-.603 3.924-.754 5.585l-.151 1.056-.453-1.056c0-.151 0-.151-.151-.302l-.452-1.057.905.604c1.66 1.208 3.169 2.717 4.376 4.076l.604.755-1.057-.302c-.151 0-.151 0-.302-.151l-1.056-.302 1.056-.151c1.962-.302 3.773-.755 5.433-1.057h.15l.151.151c1.358 3.019 2.566 5.887 3.773 8.453l.151.151-.151.151c-1.509 1.208-3.169 2.265-4.527 3.321l-.755.604.302-.906c0-.151 0-.151.151-.302l.302-.905.151.905c.302 2.114.302 4.076.151 5.888l-.151.905-.302-.754s0-.151-.151-.151l-.302-.755.755.453c1.66 1.056 3.169 2.113 4.677 3.17l.151.151v.151c-1.207 3.019-2.263 5.887-3.319 8.604v.151h-.151a203.143 203.143 0 01-5.432-.906l-.604-.151.604-.302h.151l.603-.302-.452.604a21.857 21.857 0 01-4.075 4.227l-.452.302.151-.604v-.151l.151-.604.15.604c.302 1.962.755 3.774 1.057 5.434v.151h-.151c-3.471 1.51-6.187 2.717-8.299 3.623-1.057-1.509-1.811-2.566-2.415-3.321-.301-.302-.452-.604-.603-.906l-.755.453zm-7.846-65.362c-1.358.151-2.565.302-3.923.151l-1.962 3.019-5.583-2.113.453-3.623c-1.056-.755-1.962-1.661-2.867-2.717l-3.622.754-2.414-5.434 2.867-2.113c-.151-1.359-.302-2.566-.151-3.925l-3.018-1.962 2.113-5.586 3.621.453c.755-1.056 1.66-1.962 2.716-2.868l-.754-3.623 5.432-2.415 2.113 2.868c1.358-.15 2.565-.302 3.923-.15l1.961-3.02 5.583 2.113-.452 3.623c1.056.755 1.961 1.66 2.867 2.717l3.621-.754 2.414 5.434-2.867 2.113c.151 1.359.302 2.566.151 3.925l3.018 1.962-2.112 5.586-3.622-.453c-.754 1.056-1.66 1.962-2.716 2.868l.755 3.623-5.433 2.415-2.112-2.868zm0-8.604a6.472 6.472 0 003.32-8.454c-1.509-3.32-5.282-4.68-8.45-3.32-3.32 1.509-4.678 5.283-3.32 8.453 1.358 3.321 5.13 4.679 8.45 3.321z" fill="#E8505B"/><path d="M151.588 107.249s-.453.302-1.509.452c-1.056.151-2.565.302-4.225-.603-.754-.453-1.66-1.057-2.263-1.963a7.252 7.252 0 01-1.208-3.321c0-.603 0-1.207.151-1.962.151-.604.302-1.208.755-1.812.603-1.207 1.811-2.113 3.018-2.717 1.358-.603 2.716-.754 4.074-.452.603.15 1.358.452 1.811.754.603.302 1.056.755 1.508 1.208.906.906 1.358 1.962 1.66 3.019.302 1.057.151 2.113 0 3.019-.452 1.811-1.509 3.019-2.414 3.623-.754.604-1.358.755-1.358.755l1.358-.906c.754-.604 1.811-1.812 2.263-3.623.151-.906.302-1.811 0-2.868-.301-1.057-.754-2.113-1.659-2.868-.453-.453-.906-.755-1.358-1.057-.604-.302-1.057-.604-1.811-.604-1.207-.301-2.565-.15-3.923.453-1.208.604-2.264 1.51-2.867 2.566-.302.604-.604 1.208-.755 1.812-.151.604-.151 1.207-.151 1.811 0 1.208.453 2.265 1.057 3.17.603.906 1.358 1.51 2.112 1.963 1.509.905 3.169.905 4.074.754 1.056-.452 1.66-.603 1.66-.603z" fill="#E8505B"/><path d="M151.588 115.853l.151.151c.151.151.302.302.453.604.452.452.905 1.207 1.659 2.113 1.358-.604 3.169-1.51 5.432-2.415v.151c-.15-1.057-.452-2.265-.754-3.623a16.727 16.727 0 002.716-2.868c1.056.151 2.263.302 3.622.453l-.151.151c.603-1.812 1.358-3.623 2.112-5.586v.151c-.905-.604-1.962-1.358-3.018-1.962h-.151v-.151c.151-1.208.151-2.566-.151-3.925v-.15h.151a34.654 34.654 0 002.867-2.114v.15c-.754-1.66-1.659-3.622-2.414-5.434l.151.151c-1.056.151-2.263.453-3.621.755h-.151v-.15a16.72 16.72 0 00-2.867-2.718h-.151v-.15c.151-1.058.302-2.416.452-3.624l.151.151c-1.81-.754-3.621-1.358-5.583-2.113h.151c-.603.906-1.358 1.962-1.961 3.019v.151h-.151c-1.207-.151-2.565-.151-3.923.15h-.151v-.15l-.151-.151-.302-.302-.604-.755c-.301-.453-.754-.905-1.056-1.51h.151c-1.811.756-3.621 1.661-5.432 2.416l.151-.15c.302 1.207.452 2.414.754 3.622v.15h-.151c-1.056.756-1.961 1.812-2.716 2.869v.151h-.151l-3.621-.453.151-.15c-.755 1.962-1.509 3.773-2.113 5.584v-.15c1.057.754 1.962 1.358 3.018 1.962h.151v.151c-.151 1.358-.151 2.566.151 3.925v.15h-.151c-1.056.755-1.961 1.51-2.867 2.114v-.151c.906 1.962 1.66 3.774 2.414 5.434l-.15-.151c1.207-.302 2.414-.453 3.621-.755h.151c.905 1.057 1.811 1.963 2.867 2.718-.151 1.358-.302 2.415-.604 3.622v-.151c2.113.906 4.074 1.51 5.583 2.114h-.151c.755-1.208 1.509-2.114 2.113-3.019 1.358.151 2.263.151 2.867 0h.754c.302-.302.453-.302.453-.302h-.302c-.151 0-.452 0-.754.151-.604 0-1.66.151-3.018 0-.604.755-1.207 1.811-1.962 3.019-1.66-.604-3.47-1.359-5.583-2.113h-.151v-.151c.151-1.057.302-2.265.453-3.623v.151c-1.056-.755-1.962-1.661-2.867-2.717h.151c-1.056.15-2.263.452-3.621.754h-.151v-.151c-.755-1.66-1.509-3.623-2.415-5.434v-.151h.151c.906-.755 1.962-1.358 2.867-2.113v.151c-.151-1.208-.302-2.566-.151-3.925v.15c-1.056-.603-1.961-1.358-3.018-1.962h-.15v-.15c.754-1.812 1.358-3.623 2.112-5.586v-.15h.151l3.621.452h-.15c.754-1.056 1.659-1.962 2.716-2.868v.151c-.302-1.207-.453-2.415-.755-3.623v-.15h.151c1.811-.755 3.621-1.661 5.432-2.416h.151l.151.151c.302.453.754.906 1.056 1.51l.604.754.302.302.15.151v.151c-.301-.15-.15 0-.15 0 1.358-.15 2.716-.302 3.923-.15l-.151.15c.754-1.057 1.358-2.113 1.961-3.019l.151-.15h.151c1.962.754 3.773 1.509 5.583 2.112h.151v.151l-.453 3.623v-.15c1.057.754 2.113 1.81 2.867 2.716h-.15c1.207-.302 2.414-.452 3.621-.754h.151v.15c.905 1.963 1.66 3.774 2.414 5.435v.15l-.151.152c-1.056.755-1.961 1.51-2.867 2.113v-.15c.151 1.358.302 2.716.151 3.924v-.151c1.056.755 2.113 1.359 3.018 1.962h.151v.151c-.755 1.963-1.509 3.774-2.113 5.586v.151h-.15c-1.208-.151-2.415-.302-3.622-.604h.151c-.754 1.056-1.811 2.113-2.716 2.868v-.151c.302 1.207.453 2.415.754 3.623-2.263.905-4.074 1.811-5.432 2.415-.754-.906-1.207-1.661-1.509-2.113a2.084 2.084 0 00-.452-.604l-.453-.151z" fill="#E8505B"/><path fill-rule="evenodd" clip-rule="evenodd" d="M219.339 143.93c-2.565.453-5.131.453-7.545.151l-3.923 5.887-10.864-4.226 1.056-6.944c-1.962-1.51-3.923-3.17-5.432-5.284l-6.941 1.359-4.678-10.567 5.583-4.226c-.453-2.567-.453-5.133-.151-7.548l-5.885-3.925 4.225-10.868 6.941 1.056c1.509-1.962 3.169-3.924 5.282-5.434l-1.358-6.944 10.562-4.68 4.225 5.586c2.565-.453 5.13-.453 7.545-.151l3.923-5.887 10.864 4.227-1.056 6.943c1.962 1.51 3.923 3.17 5.432 5.284l6.941-1.359 4.678 10.567-5.583 4.226c.452 2.567.452 5.133.151 7.548l5.884 3.925-4.225 10.868-6.941-1.056c-1.509 1.962-3.168 3.924-5.281 5.434l1.358 6.944-10.562 4.679-4.225-5.585zm.151-16.756c6.337-2.717 9.053-10.113 6.337-16.453-2.716-6.34-10.11-9.058-16.447-6.34-6.338 2.717-9.054 10.113-6.338 16.453 2.867 6.34 10.11 9.208 16.448 6.34z" fill="#E8505B"/><g opacity=".4" fill="#fff"><path opacity=".4" d="M151.588 115.853c-1.358.151-2.565.302-3.923.151l-1.962 3.019-5.583-2.113.453-3.623c-1.056-.755-1.962-1.661-2.867-2.717l-3.622.754-2.414-5.434 2.867-2.113c-.151-1.359-.302-2.566-.151-3.925l-3.018-1.962 2.113-5.586 3.621.453c.755-1.056 1.66-1.962 2.716-2.868l-.754-3.623 5.432-2.415 2.113 2.868c1.358-.15 2.565-.302 3.923-.15l1.961-3.02 5.583 2.113-.452 3.623c1.056.755 1.961 1.66 2.867 2.717l3.621-.754 2.414 5.434-2.867 2.113c.151 1.359.302 2.566.151 3.925l3.018 1.962-2.112 5.586-3.622-.453c-.754 1.056-1.66 1.962-2.716 2.868l.755 3.623-5.433 2.415-2.112-2.868zm0-8.604a6.472 6.472 0 003.32-8.454c-1.509-3.32-5.282-4.68-8.45-3.32-3.32 1.509-4.678 5.283-3.32 8.453 1.358 3.321 5.13 4.679 8.45 3.321z"/><path opacity=".4" d="M151.588 107.249s-.453.302-1.509.452c-1.056.151-2.565.302-4.225-.603-.754-.453-1.66-1.057-2.263-1.963a7.252 7.252 0 01-1.208-3.321c0-.603 0-1.207.151-1.962.151-.604.302-1.208.755-1.812.603-1.207 1.811-2.113 3.018-2.717 1.358-.603 2.716-.754 4.074-.452.603.15 1.358.452 1.811.754.603.302 1.056.755 1.508 1.208.906.906 1.358 1.962 1.66 3.019.302 1.057.151 2.113 0 3.019-.452 1.811-1.509 3.019-2.414 3.623-.754.604-1.358.755-1.358.755l1.358-.906c.754-.604 1.811-1.812 2.263-3.623.151-.906.302-1.811 0-2.868-.301-1.057-.754-2.113-1.659-2.868-.453-.453-.906-.755-1.358-1.057-.604-.302-1.057-.604-1.811-.604-1.207-.301-2.565-.15-3.923.453-1.208.604-2.264 1.51-2.867 2.566-.302.604-.604 1.208-.755 1.812-.151.604-.151 1.207-.151 1.811 0 1.208.453 2.265 1.057 3.17.603.906 1.358 1.51 2.112 1.963 1.509.905 3.169.905 4.074.754 1.056-.452 1.66-.603 1.66-.603z"/><path opacity=".4" d="M151.588 115.853l.151.151c.151.151.302.302.453.604.452.452.905 1.207 1.659 2.113 1.358-.604 3.169-1.51 5.432-2.415v.151c-.15-1.057-.452-2.265-.754-3.623a16.727 16.727 0 002.716-2.868c1.056.151 2.263.302 3.622.453l-.151.151c.603-1.812 1.358-3.623 2.112-5.586v.151c-.905-.604-1.962-1.358-3.018-1.962h-.151v-.151c.151-1.208.151-2.566-.151-3.925v-.15h.151a34.654 34.654 0 002.867-2.114v.15c-.754-1.66-1.659-3.622-2.414-5.434l.151.151c-1.056.151-2.263.453-3.621.755h-.151v-.15a16.72 16.72 0 00-2.867-2.718h-.151v-.15c.151-1.058.302-2.416.452-3.624l.151.151c-1.81-.754-3.621-1.358-5.583-2.113h.151c-.603.906-1.358 1.962-1.961 3.019v.151h-.151c-1.207-.151-2.565-.151-3.923.15h-.151v-.15l-.151-.151-.302-.302-.604-.755c-.301-.453-.754-.905-1.056-1.51h.151c-1.811.756-3.621 1.661-5.432 2.416l.151-.15c.302 1.207.452 2.414.754 3.622v.15h-.151c-1.056.756-1.961 1.812-2.716 2.869v.151h-.151l-3.621-.453.151-.15c-.755 1.962-1.509 3.773-2.113 5.584v-.15c1.057.754 1.962 1.358 3.018 1.962h.151v.151c-.151 1.358-.151 2.566.151 3.925v.15h-.151c-1.056.755-1.961 1.51-2.867 2.114v-.151c.906 1.962 1.66 3.774 2.414 5.434l-.15-.151c1.207-.302 2.414-.453 3.621-.755h.151c.905 1.057 1.811 1.963 2.867 2.718-.151 1.358-.302 2.415-.604 3.622v-.151c2.113.906 4.074 1.51 5.583 2.114h-.151c.755-1.208 1.509-2.114 2.113-3.019 1.358.151 2.263.151 2.867 0h.754c.302-.302.453-.302.453-.302h-.302c-.151 0-.452 0-.754.151-.604 0-1.66.151-3.018 0-.604.755-1.207 1.811-1.962 3.019-1.66-.604-3.47-1.359-5.583-2.113h-.151v-.151c.151-1.057.302-2.265.453-3.623v.151c-1.056-.755-1.962-1.661-2.867-2.717h.151c-1.056.15-2.263.452-3.621.754h-.151v-.151c-.755-1.66-1.509-3.623-2.415-5.434v-.151h.151c.906-.755 1.962-1.358 2.867-2.113v.151c-.151-1.208-.302-2.566-.151-3.925v.15c-1.056-.603-1.961-1.358-3.018-1.962h-.15v-.15c.754-1.812 1.358-3.623 2.112-5.586v-.15h.151l3.621.452h-.15c.754-1.056 1.659-1.962 2.716-2.868v.151c-.302-1.207-.453-2.415-.755-3.623v-.15h.151c1.811-.755 3.621-1.661 5.432-2.416h.151l.151.151c.302.453.754.906 1.056 1.51l.604.754.302.302.15.151v.151c-.301-.15-.15 0-.15 0 1.358-.15 2.716-.302 3.923-.15l-.151.15c.754-1.057 1.358-2.113 1.961-3.019l.151-.15h.151c1.962.754 3.773 1.509 5.583 2.112h.151v.151l-.453 3.623v-.15c1.057.754 2.113 1.81 2.867 2.716h-.15c1.207-.302 2.414-.452 3.621-.754h.151v.15c.905 1.963 1.66 3.774 2.414 5.435v.15l-.151.152c-1.056.755-1.961 1.51-2.867 2.113v-.15c.151 1.358.302 2.716.151 3.924v-.151c1.056.755 2.113 1.359 3.018 1.962h.151v.151c-.755 1.963-1.509 3.774-2.113 5.586v.151h-.15c-1.208-.151-2.415-.302-3.622-.604h.151c-.754 1.056-1.811 2.113-2.716 2.868v-.151c.302 1.207.453 2.415.754 3.623-2.263.905-4.074 1.811-5.432 2.415-.754-.906-1.207-1.661-1.509-2.113a2.084 2.084 0 00-.452-.604l-.453-.151z"/></g><path d="M254.949 288.844l1.811-.302s14.335 4.68 14.033 1.963c-.453-3.623-13.429-7.095-14.787-7.246-2.113-.151-14.486.906-16.297 1.811-1.811.906-12.524 10.869-12.524 10.869l12.826 14.039s3.47.452 8.299-3.472c2.414-1.963 6.036-5.586 6.036-5.586s-.151-1.056.151-1.358c.905-1.208.301-1.812.301-1.812.906-.301 1.811-1.056 1.811-1.811 0-.453 0-1.057-.302-1.359-.754-.754-1.207-.603-1.207-.603s1.962-.604 2.414-2.265c.453-1.66-1.961-2.415-1.961-2.415" fill="#B78876"/><path d="M270.642 291.109c0 .15-1.207.301-3.169.301-1.056 0-2.112-.151-3.47-.452a64.192 64.192 0 00-4.074-1.359c-1.057-.302-2.113-.755-3.018-1.057h.151c-4.376.755-7.545 1.057-7.696.906 0-.151 3.169-.906 7.545-1.66h.302c.905.301 1.961.603 3.017 1.056 1.359.453 2.717.906 3.924 1.359 1.207.302 2.414.604 3.319.604 1.811.151 3.018.151 3.169.302z" fill="#AA6550"/><path d="M254.044 289.448a97.761 97.761 0 01-4.678 3.623 7.196 7.196 0 00-1.509 1.509c-.301.604-.452 1.359 0 1.963.302.453.906.604 1.509.604.604 0 1.057-.302 1.509-.604 1.811-.906 3.923-1.963 5.583-3.17" fill="#B78876"/><path d="M256.911 293.222c0 .151-.905.755-2.565 1.811-.755.453-1.811 1.208-3.018 1.661-.604.302-1.207.453-1.962.604h-1.207c-.453-.151-.754-.453-1.056-.755-.453-.906 0-1.812.453-2.415.452-.604 1.056-.906 1.508-1.359 1.057-.755 1.962-1.509 2.717-1.962 1.509-1.057 2.565-1.661 2.716-1.661 0 .151-.906.755-2.415 1.963-.754.603-1.659 1.358-2.565 2.113-.452.453-1.056.755-1.358 1.358-.453.453-.603 1.057-.302 1.661.302.453.906.604 1.509.453.604-.151 1.207-.302 1.811-.604 1.207-.453 2.112-1.057 3.018-1.51 1.509-.905 2.565-1.509 2.716-1.358z" fill="#AA6550"/><path d="M255.1 294.429s1.509-1.358 2.113-1.207c.603.151 1.509.151 1.81 1.358.302 1.057-.15 1.359-1.961 3.17m-1.962-3.321c-1.358 1.057-2.565 1.963-3.923 3.17a4.592 4.592 0 00-1.207 1.208c-.302.453-.302 1.208 0 1.661.302.301.754.452 1.207.452.453 0 .905-.302 1.207-.452 1.509-.755 3.32-1.812 4.527-2.718" fill="#B78876"/><path d="M259.023 295.637s-.452 1.057-1.81 2.415c-.755.604-1.509 1.359-2.565 1.963-.604.302-1.057.603-1.66.905-.604.302-1.358.604-2.113.453-.452 0-.905-.302-1.056-.604-.302-.452-.302-.905-.151-1.207.151-.755.755-1.359 1.207-1.661.906-.754 1.811-1.509 2.565-1.962 1.509-1.057 2.415-1.66 2.566-1.66 0 .15-.755.754-2.264 1.962-.754.604-1.509 1.358-2.414 2.113-.453.453-.906.906-.906 1.359-.15.604.151 1.056.755 1.056s1.207-.15 1.811-.452c.603-.302 1.207-.453 1.66-.755a25.858 25.858 0 002.565-1.661c1.056-1.358 1.66-2.415 1.81-2.264z" fill="#AA6550"/><path d="M232.315 298.807c.906 1.208 2.566 1.208 3.924.755 1.358-.453 2.414-1.359 3.772-1.963 3.772-1.811 8.601-.301 12.373-2.113.453-.302 1.056-.755.905-1.358-.15-.453-.754-.755-1.358-.755-4.526-.755-9.204-1.51-13.731-2.264" fill="#B78876"/><path d="M238.049 290.958s.604 0 1.509.15c.906.151 2.415.302 4.074.604 1.811.302 3.773.604 6.036.906.604.151 1.207.151 1.811.302.603.151 1.358 0 1.961.755.302.453.302 1.056 0 1.358-.301.302-.603.604-.905.755-.604.302-1.207.604-1.962.755-2.716.604-5.281.453-7.544.755-1.056.151-2.113.301-3.018.754-.905.453-1.66.906-2.414 1.359-1.509.906-3.169 1.057-4.074.604-.906-.453-1.208-1.057-1.208-1.057s.302.453 1.208.755c.905.302 2.263.151 3.772-.906.754-.453 1.509-1.057 2.414-1.509.906-.453 2.113-.755 3.32-.906 2.263-.302 4.828-.151 7.393-.755.604-.151 1.208-.453 1.811-.604.453-.302.755-.755.604-.905-.151-.302-.755-.453-1.358-.453-.604-.151-1.207-.151-1.811-.302-2.263-.453-4.225-.755-6.036-1.057-1.659-.302-3.168-.604-4.074-.755-1.056-.302-1.509-.452-1.509-.603z" fill="#AA6550"/><path d="M256.156 298.807s1.057-1.057 1.509-.906c.453.151 1.057.151 1.358 1.057.151.755-.15 1.057-1.358 2.415" fill="#B78876"/><path d="M256.156 298.807c-1.056.755-1.81 1.51-2.867 2.264l-.905.906c-.151.453-.302.906 0 1.208.151.302.604.302.905.302.302 0 .604-.151.906-.302 1.056-.604 2.414-1.359 3.47-1.963" fill="#B78876"/><path d="M258.873 299.562s-.302.906-1.358 1.811c-.453.453-1.208.906-1.962 1.51a3.733 3.733 0 01-1.358.604c-.453.151-.905.452-1.66.452-.302 0-.754-.151-.905-.452-.151-.302-.302-.604-.151-.906.151-.604.603-1.057.905-1.359a75.773 75.773 0 011.962-1.509 30.242 30.242 0 011.81-1.208c0 .151-.603.604-1.508 1.51-.604.453-1.208 1.056-1.811 1.509-.302.302-.604.604-.604.906 0 .453.151.604.453.604.453 0 .905-.151 1.358-.302.453-.151.905-.453 1.207-.604.755-.453 1.358-.906 1.962-1.208 1.207-.603 1.66-1.358 1.66-1.358zm-13.732 4.075c-.151 0 .151-1.509-.301-3.169-.453-1.661-1.66-2.718-1.509-2.869 0-.151 1.509.755 2.112 2.567.604 2.113-.151 3.622-.302 3.471z" fill="#AA6550"/><path d="M134.688 280.995c-6.639-3.321-13.128-4.227-20.371-4.378-8.299-.302-20.068-1.358-29.122-.453 0 0-28.217 2.265-28.368 23.398l4.527 78.344-5.885 34.87 81.935 2.415-.604-41.21c.302 18.417-.603-40.002-.301-55.55 1.207-11.472 6.79-12.831 7.695-20.379.906-6.491-3.621-14.038-9.506-17.057z" fill="#455A64"/><path d="M117.637 277.221s12.524-.151 20.672 3.774c8.149 4.076 53.115 31.549 53.115 31.549l34.403-19.171 18.258 17.058-39.534 26.114c-7.695 5.133-17.503 6.189-25.953 2.416l-44.514-17.662-16.447-44.078z" fill="#455A64"/><path d="M136.65 305.751c.15 0 .452 12.227.452 27.171 0 15.096-.151 27.172-.302 27.172-.15 0-.452-12.227-.452-27.172 0-15.095 0-27.171.302-27.171z" fill="#263238"/><path d="M32.081 627.581l-7.696 30.795-13.127 22.642c-.905 1.661-.302 3.774 1.358 4.529.905.453 2.112.453 3.018 0 5.885-3.17 27.613-15.095 28.066-17.359.453-2.718 10.411-32.002 10.411-32.002l-22.03-8.605z" fill="#E8505B"/><path opacity=".6" d="M12.465 685.547l31.537-19.473-.302 1.359c-.302 1.057-1.056 2.113-1.962 2.717-2.565 1.811-9.808 6.491-26.255 15.397-.905.604-1.962.604-3.018 0zm28.066-30.945c-.905.302-1.509 1.359-1.207 2.264.302.906 1.358 1.51 2.263 1.208.906-.302 1.66-1.661 1.207-2.415-.452-.906-1.66-1.51-2.565-1.057" fill="#fff"/><path d="M23.178 674.226c-.15 0-.452-1.812-1.961-3.17-1.51-1.359-3.32-1.51-3.32-1.661 0-.151.453-.151 1.207-.151.755.151 1.81.453 2.565 1.208.906.755 1.358 1.66 1.51 2.415.15.755.15 1.359 0 1.359zm-3.319 3.472c-.151.151-.906-1.208-2.415-2.114-1.508-.905-2.866-1.056-2.866-1.207 0-.151 1.66-.453 3.32.603 1.659 1.057 2.112 2.567 1.96 2.718zm8.902-7.699c-.15.151-1.207-1.811-3.47-3.472-2.113-1.66-4.225-2.113-4.225-2.264 0-.151 2.414 0 4.678 1.811 2.263 1.661 3.168 3.925 3.017 3.925zm3.169-9.208c-.15.151-1.66-1.057-3.772-1.661-2.113-.754-4.074-.603-4.074-.905 0-.151 1.961-.604 4.225.151 2.263.905 3.621 2.415 3.621 2.415zm2.414-8.906c-.15.151-1.509-1.359-3.923-1.812-2.414-.603-4.225.151-4.376-.151 0-.151.453-.302 1.207-.603.755-.151 1.962-.302 3.32 0 1.207.301 2.263.905 2.867 1.509.755.453 1.056.906.905 1.057zm-3.319-3.623s0-.453.302-1.208c.301-.755.754-1.811 1.81-2.717.453-.453 1.056-1.057 1.962-1.208.453-.151 1.056.151 1.358.604.302.453.15 1.057.15 1.51-.603 1.962-2.715 3.321-4.979 3.019-2.263-.302-3.923-2.114-4.375-4.076 0-.453 0-1.057.301-1.509.453-.453 1.056-.453 1.51-.302a3.508 3.508 0 011.659 1.66c.755 1.208 1.207 2.264 1.358 3.019.15.755.15 1.208.15 1.208-.15 0-.3-1.661-1.96-3.774-.453-.453-.906-1.057-1.51-1.359-.301-.151-.603 0-.754.151-.15.151-.302.604-.15 1.057.3 1.51 1.81 3.17 3.771 3.472 1.962.302 3.773-.906 4.225-2.566a1.29 1.29 0 000-1.057.83.83 0 00-.754-.453c-.604 0-1.207.604-1.66 1.057-1.962 1.811-2.263 3.623-2.414 3.472z" fill="#263238"/><path d="M135.895 631.657l-1.66 25.964s25.803 8.604 25.954 13.435l-50.398.302 1.056-40.456 25.048.755z" fill="#E8505B"/><path opacity=".6" d="M118.693 654.904c-1.056.302-1.66 1.358-1.509 2.264.151 1.057 1.207 1.661 2.264 1.51 1.056-.151 1.81-1.51 1.509-2.416-.302-.905-1.66-1.811-2.566-1.358m-8.6 16.454l.151-4.076 48.587 1.358s1.66.755 1.811 2.718h-50.549z" fill="#fff"/><path d="M135.141 657.319c0 .302-1.208.302-2.415 1.057-1.207.754-1.961 1.811-2.112 1.66-.151 0 .151-1.509 1.66-2.415 1.358-.906 2.867-.453 2.867-.302zm5.13 2.415c0 .302-1.056.604-1.962 1.661-.905 1.056-1.207 2.113-1.358 2.113-.301 0-.301-1.358.755-2.717 1.056-1.208 2.565-1.359 2.565-1.057zm2.867 6.34c-.151 0-.604-1.207.151-2.566.603-1.358 1.811-1.811 1.961-1.66.151.151-.603.905-1.207 1.962-.603 1.208-.754 2.264-.905 2.264zm-8.299-14.642c-.151.151-1.207-.151-2.565-.151-1.358 0-2.415.453-2.565.302-.151-.151.905-1.057 2.565-1.057 1.509-.151 2.716.755 2.565.906zm.151-5.283c0 .151-.906.151-2.565-.151a10.523 10.523 0 01-2.566-.906c-.452-.302-.905-.453-1.358-.755-.301-.151-.452-.302-.754-.604s-.453-.905 0-1.358a1.307 1.307 0 011.056-.604c.302 0 .604.151.906.151.603.151 1.056.302 1.508.604a8.789 8.789 0 012.264 1.66c1.207 1.057 1.509 2.114 1.358 2.114-.151.151-.604-.755-1.811-1.661-.603-.453-1.358-.906-2.263-1.358l-1.358-.453c-.604-.151-1.056-.151-1.056 0v.302c.15.151.301.301.603.452.453.302.905.604 1.358.755.905.453 1.66.755 2.414 1.057 1.358.604 2.264.604 2.264.755z" fill="#263238"/><path d="M134.688 646.451c-.151 0-.604-.906-.604-2.416 0-.754.151-1.811.453-2.717a7.024 7.024 0 01.755-1.509c.301-.453.754-1.208 1.659-1.208.453 0 .906.453 1.057.755.151.302.151.604.301.905v1.661c-.15 1.057-.603 1.962-1.207 2.566-1.056 1.208-2.112 1.51-2.112 1.51-.151-.151.754-.604 1.509-1.812.452-.604.754-1.358.905-2.415v-1.51c0-.603-.302-.905-.453-.905-.301 0-.754.453-.905.754-.302.453-.453.906-.604 1.359-.301.906-.452 1.812-.603 2.566-.151 1.51 0 2.416-.151 2.416z" fill="#263238"/><path d="M135.895 406.738l-76.653-.604L22.273 649.62l31.838 4.076 40.741-200.163 12.223 200.918v.604l34.403-.604-5.583-247.713z" fill="#263238"/><path d="M126.992 403.266l-2.263.906c-1.509.453-3.621 1.208-6.337 1.811-2.717.604-6.036 1.359-9.658 1.812a97.563 97.563 0 01-12.071.755c-4.225 0-8.3-.302-12.071-.755a105.47 105.47 0 01-9.657-1.661c-2.717-.604-4.98-1.207-6.338-1.811-1.509-.453-2.263-.755-2.263-.906 0 0 .905.151 2.414.604 1.509.453 3.772.906 6.488 1.509 2.716.604 6.036 1.057 9.657 1.51 3.622.453 7.696.604 11.92.604 4.226 0 8.3-.302 11.921-.755a105.89 105.89 0 009.658-1.66c2.716-.604 4.979-1.208 6.488-1.51a30.029 30.029 0 012.112-.453zM84.894 228.01c-1.057-2.717-2.113-5.585-2.566-8.453-.452-2.868-.302-6.038.906-8.755 1.207-2.717 3.772-4.831 6.639-5.283 1.81-.302 3.772.151 5.432-.453 1.962-.604 3.47-2.416 4.98-3.774 2.565-2.113 5.733-3.472 9.053-3.623 1.66-.151 3.471.151 4.98.906 1.508.905 2.716 2.415 2.716 4.226 2.112-.603 4.074-1.207 6.337-1.207 2.113 0 4.376.604 5.885 2.113 1.509 1.51 2.112 3.925 1.056 5.887 1.811-.905 4.225 0 5.13 1.661 1.057 1.811.604 4.075-.603 5.736-1.207 1.509-4.074 2.868-6.036 3.17-1.961.151-4.376.302-6.186-.453" fill="#263238"/><path d="M100.284 293.222c8.903.906 16.599-6.189 16.297-15.246-.151-4.831-.302-8.907-.151-9.51 0 0 11.92-1.359 12.675-13.133.754-11.925 0-39.248 0-39.248-13.429-6.491-29.424-5.283-41.646 3.321l-1.811 1.208 1.358 58.116c0 7.548 5.734 13.737 13.278 14.492z" fill="#B78876"/><path d="M116.43 268.315s-7.545.302-15.24-5.133c0 0 3.32 8.756 15.089 8.152l.151-3.019z" fill="#AA6550"/><path d="M86.251 232.992c-.15-.151-7.997-2.868-8.148 5.283-.15 8.152 7.998 6.642 8.148 6.34v-11.623z" fill="#B78876"/><path d="M83.837 241.596s-.15.151-.453.151c-.301.151-.603.151-1.056 0-.905-.302-1.509-1.66-1.509-3.17 0-.755.151-1.509.453-1.962.302-.604.604-1.057 1.056-1.057.453-.151.755.151.906.453.15.302 0 .453.15.453 0 0 .151-.151.151-.453 0-.151-.15-.302-.301-.453-.151-.151-.453-.302-.755-.151-.603 0-1.207.604-1.509 1.208-.302.604-.603 1.358-.452 2.264 0 1.66.905 3.17 1.961 3.472.604.151 1.056 0 1.358-.151v-.604z" fill="#AA6550"/><path d="M129.407 219.859s-8.148 2.264-17.353-1.66c-6.036-2.567-12.977-3.623-14.486-2.416-1.508 1.208-1.508 7.397-7.242 9.359 0 0 1.509 17.058-3.17 17.058-3.47 0-3.168-24.001-3.168-24.001l11.015-6.189 12.223-3.019 11.467-.604 10.865 2.717-.151 8.755z" fill="#263238"/><path d="M174.524 347.867H-49.703v91.175h224.227v-91.175z" fill="#fff"/><path d="M174.524 439.042v-24.454c0-15.699-.151-38.493-.151-66.57l.301.302c-57.037 0-136.406 0-224.226.15l.302-.301v91.175l-.302-.302c65.035 0 121.016.151 160.852.151 19.917 0 35.761 0 46.625.151h15.693c.604-.302.906-.302.906-.302h-16.599c-10.864 0-26.708 0-46.625.151-39.836 0-95.968.151-161.003.151h-.301v-91.779h.301c87.82 0 167.189.151 224.227.151h.301v.302c0 28.228-.151 51.022-.151 66.721v22.793c-.15.906-.15 1.51-.15 1.51z" fill="#E8505B"/><path d="M-49.552 360.094c0-.151 50.096-.302 111.962-.302 61.866 0 111.963.151 111.963.302s-50.097.302-111.963.302c-61.866.151-111.962 0-111.962-.302zm73.032 14.944h-54.17v54.192h54.17v-54.192z" fill="#E8505B"/><path opacity=".5" d="M23.48 375.038h-54.17v54.192h54.17v-54.192z" fill="#fff"/><path d="M158.982 389.529c0 .151-27.916.302-62.319.302-34.403 0-62.319-.151-62.319-.302 0-.15 27.916-.301 62.319-.301 34.403-.151 62.319.151 62.319.301zm0 11.02c0 .151-27.915.302-62.319.302-34.403 0-62.319-.151-62.319-.302s27.916-.302 62.319-.302c34.404 0 62.319.151 62.319.302zm-44.363 11.02h-3.018c-2.112 0-4.979 0-8.6.151-7.394 0-17.353 0-28.368.15-11.015 0-20.974-.15-28.368-.15-3.621 0-6.489-.151-8.601-.151h-3.018 3.018c2.112 0 4.98 0 8.6-.151 7.395 0 17.353 0 28.369-.151 11.015 0 20.974.151 28.368.151 3.621 0 6.488.151 8.6.151h3.018z" fill="#E8505B"/><path d="M65.277 283.41s-10.864 5.585-15.843 25.813c-2.415 9.963-12.374 42.417-13.883 60.532-1.056 11.321 11.317 21.737 22.483 23.397h.453c23.238 4.68 45.721-1.66 45.721-1.66l-4.678-21.284s-29.726-5.737-33.498-7.548L77.5 317.072c.15.151 8.751-31.7-12.223-33.662z" fill="#455A64"/><path d="M67.993 287.939h.453c.302 0 .604.151 1.207.302 1.056.301 2.565.754 4.225 1.962a13.32 13.32 0 014.527 5.887c1.056 2.717 1.66 6.189 1.509 9.812 0 1.811-.302 3.774-.604 5.887-.452 1.962-.905 4.076-1.509 6.189-1.056 4.227-2.263 8.755-3.32 13.586-2.413 9.661-5.13 20.227-7.846 31.549l-.301-.453c3.47 1.057 7.242 1.962 11.015 2.868 3.923.906 7.846 1.812 11.77 2.566 1.961.302 3.772.755 5.733.906.906.151 1.962.151 2.867.453l1.358.453c.453.151.906.604 1.207 1.056.604.906.755 1.812.906 2.718.151.905.452 1.811.603 2.717.302 1.811.755 3.623 1.057 5.283.603 3.472 1.207 6.793 1.961 9.963l.151.302-.302.151c-14.334 3.472-26.708 3.623-35.309 2.868-8.6-.755-13.429-1.963-13.429-1.963s.302 0 .905.151c.604.151 1.51.302 2.566.453 2.263.302 5.583.755 9.958 1.057 8.45.604 20.824.453 35.008-3.17l-.302.453c-.755-3.17-1.358-6.491-2.113-9.963-.302-1.811-.603-3.472-1.056-5.283-.151-.906-.453-1.812-.604-2.718-.15-.905-.452-1.811-.905-2.566-.453-.754-1.207-.905-2.112-1.207-.906-.151-1.811-.302-2.867-.453-1.962-.302-3.773-.604-5.734-.906-3.923-.755-7.847-1.66-11.77-2.566-3.772-.906-7.545-1.962-11.015-2.868l-.302-.151.151-.302c2.867-11.321 5.583-21.888 7.997-31.398 1.207-4.831 2.415-9.359 3.47-13.586.453-2.113 1.057-4.227 1.51-6.038.302-1.962.603-3.925.603-5.736.151-3.623-.301-6.944-1.358-9.661-1.056-2.717-2.716-4.68-4.376-5.887-1.66-1.208-3.168-1.661-4.225-1.963-.452-.151-.905-.302-1.207-.302 0-.452-.15-.452-.15-.452z" fill="#263238"/><path d="M51.848 371.868c-.15 0 0-1.057.755-2.566.754-1.51 2.263-3.472 4.526-4.68 2.264-1.358 4.678-1.811 6.338-1.66 1.66 0 2.716.453 2.716.604 0 .151-1.057 0-2.716 0-1.66.151-3.773.604-5.885 1.811-2.113 1.208-3.621 3.019-4.527 4.378-.754 1.056-1.056 2.113-1.207 2.113z" fill="#263238"/><path d="M100.888 372.321l8.601-.906s3.47-5.887 5.885-7.849c2.414-1.963 14.335-7.699 14.335-7.699s1.81 2.114 0 4.227c-.755.906-6.489 4.076-6.489 4.076-.603 2.264 1.358 4.528 3.772 4.075 3.471-.604 7.545-1.358 8.149-1.358.603 0 4.074-3.321 6.639-5.887 1.509-1.51 4.225 0 3.621 1.962 0 .151-.151.453-.301.453 0 0 3.621-.151.452 4.83 0 0 .755 4.529-1.961 6.642 0 0-1.207 5.585-2.867 7.397-1.811 1.962-18.711 5.585-18.711 5.585l-17.654 1.661-3.471-17.209z" fill="#B78876"/><path d="M128.351 373.377c0 .151 1.207.151 3.017 0 1.811-.15 4.527-.452 7.092-1.811 2.566-1.509 4.074-3.925 4.98-5.434.905-1.661 1.358-2.717 1.358-2.717-.151 0-.755.905-1.811 2.415-1.056 1.509-2.565 3.623-4.828 5.132-2.415 1.359-4.98 1.812-6.791 1.963-1.81.302-3.017.302-3.017.452zm1.81 3.925c0 .151 1.056.302 2.716.151.906 0 1.811-.151 3.018-.453 1.056-.301 2.414-.603 3.471-1.358 1.056-.906 1.81-1.812 2.565-2.717l1.811-2.265c1.056-1.358 1.659-2.264 1.508-2.264-.15 0-.905.604-1.961 1.963-.604.603-1.207 1.358-1.962 2.264-.754.906-1.509 1.811-2.565 2.566-.905.755-2.112 1.057-3.169 1.359-1.056.302-2.112.452-2.867.603-1.509.151-2.565.151-2.565.151zm2.415 4.378c0 .302 3.017-.302 6.639-1.359.603-.151.905-.452 1.358-.754l.905-.906c.604-.604 1.056-1.208 1.358-1.812.604-1.056.906-1.811.755-1.962-.151 0-.453.604-1.207 1.51-.302.452-.906 1.056-1.358 1.66l-.906.906c-.302.302-.603.604-1.056.604-1.811.452-3.471 1.056-4.678 1.358-1.207.453-1.81.755-1.81.755z" fill="#AA6550"/><path d="M407.351 167.177h.905c.604 0 1.66 0 2.867.151 2.414.302 6.187 1.056 10.412 3.622 2.112 1.208 4.375 3.02 6.337 5.133 2.113 2.264 3.923 4.981 5.281 8.302 1.358 3.321 2.113 7.246 2.113 11.322v13.133c0 37.285 0 91.175.151 157.745v275.79c0 2.868-.151 5.736-1.057 8.453-.754 2.717-1.961 5.434-3.621 7.85-1.66 2.415-3.621 4.528-5.885 6.491-4.527 3.622-10.26 6.038-16.145 6.34-5.885.151-11.619 0-17.504.151H226.28c-6.338.301-12.977-1.359-18.258-4.982-5.281-3.623-9.205-9.208-11.015-15.246-1.057-3.019-1.208-6.34-1.208-9.51V195.556c0-1.057.151-2.265.151-3.321.151-1.057.302-2.265.604-3.321 1.056-4.378 3.018-8.454 5.885-11.774 2.867-3.321 6.488-6.039 10.411-7.699 3.924-1.811 8.299-2.415 12.374-2.415h41.797c1.961-.151 3.923.453 5.432 1.509 1.509 1.057 2.867 2.717 3.47 4.529.755 1.811.604 3.774.604 5.585v2.717c0 .906 0 1.812.151 2.717.151 1.661.905 3.321 2.112 4.68 1.057 1.358 2.565 2.264 4.225 2.717.755.151 1.66.302 2.565.302h69.562c1.207-.151 2.414-.604 3.47-1.208 2.113-1.207 3.471-3.472 3.924-5.585.301-1.057.151-2.264.151-3.321v-3.321c0-1.057 0-2.113.15-3.321.151-1.056.604-2.113 1.057-3.019 1.056-1.811 2.716-3.17 4.526-3.925 1.811-.754 3.773-.603 5.584-.603h29.273c2.867-.302 4.074-.302 4.074-.302h-33.046c-1.81 0-3.621-.151-5.432.603-1.811.755-3.32 2.114-4.376 3.774-.452.906-.905 1.812-1.056 2.868-.151 1.057-.151 2.114-.151 3.17v3.321c0 1.057 0 2.265-.151 3.472-.452 2.265-1.961 4.529-4.074 5.887-1.056.604-2.263 1.057-3.621 1.208-1.358.151-2.565 0-3.773 0h-65.789c-.905 0-1.81 0-2.565-.302-1.66-.453-3.32-1.358-4.527-2.868-1.207-1.359-1.961-3.17-2.263-4.981-.151-.906-.151-1.812-.151-2.718v-2.717c0-1.811.151-3.623-.604-5.283-.603-1.661-1.81-3.17-3.168-4.227-1.509-1.056-3.32-1.509-5.282-1.509h-41.797c-4.074 0-8.299.604-12.222 2.264-3.923 1.661-7.394 4.378-10.11 7.548-2.716 3.321-4.677 7.245-5.734 11.623-.302 1.057-.302 2.113-.603 3.321 0 1.057-.151 2.264-.151 3.321v446.366c0 3.17.151 6.189 1.207 9.208 1.811 5.887 5.583 11.322 10.713 14.944 5.131 3.623 11.468 5.133 17.806 4.831h164.925c5.885 0 11.77.151 17.504 0 5.734-.302 11.317-2.566 15.692-6.038 2.113-1.812 4.075-3.925 5.734-6.34 1.509-2.415 2.716-4.982 3.471-7.699.905-2.717 1.056-5.585 1.056-8.302v-41.814c0-88.005.151-167.406.151-233.976s.151-120.46.151-157.745v-13.133c0-4.076-.604-8.001-2.113-11.322-1.358-3.321-3.168-6.038-5.281-8.302-1.961-2.264-4.225-3.925-6.337-5.132-4.225-2.567-7.998-3.321-10.412-3.623-1.207-.302-2.263-.151-2.867-.302-.453.604-.754.604-.754.604z" fill="#E8505B"/><path d="M407.653 305.751c0-.151 2.414-.453 5.281-.453l-.453.453v-1.963c0-.603 0-1.207.151-1.66 0-.906.151-1.51.302-1.51s.151.604.302 1.51c0 .453 0 1.057.15 1.66v1.963l-.452.453c-3.018 0-5.281-.302-5.281-.453zm-20.371 0c0-.151 2.263-.453 5.13-.453s5.131.151 5.131.453c0 .302-2.264.453-5.131.453-2.867 0-5.13-.302-5.13-.453zm-20.37 0c0-.151 2.263-.453 5.13-.453s5.13.151 5.13.453c0 .302-2.263.453-5.13.453s-5.13-.302-5.13-.453zm-20.371 0c0-.151 2.263-.453 5.13-.453s5.131.151 5.131.453c0 .302-2.264.453-5.131.453-2.867 0-5.13-.302-5.13-.453zm-20.37 0c0-.151 2.263-.453 5.13-.453s5.13.151 5.13.453c0 .302-2.263.453-5.13.453s-5.13-.302-5.13-.453zm-20.522 0c0-.151 2.264-.453 5.131-.453 2.866 0 5.13.151 5.13.453 0 .302-2.264.453-5.13.453-2.717 0-5.131-.302-5.131-.453zm-20.37 0c0-.151 2.263-.453 5.13-.453s5.13.151 5.13.453c0 .302-2.263.453-5.13.453-2.716 0-5.13-.302-5.13-.453zm-20.371 0c0-.151 2.264-.453 5.131-.453 2.867 0 5.13.151 5.13.453 0 .302-2.263.453-5.13.453s-5.131-.302-5.131-.453zm-20.37 0c0-.151 2.263-.453 5.13-.453s5.13.151 5.13.453c0 .302-2.263.453-5.13.453s-5.13-.302-5.13-.453zm-15.391-5.283c.151 0 .452 2.415.452 5.283l-.452-.453h1.961c.604 0 1.207 0 1.66.151.906 0 1.509.151 1.509.302s-.603.151-1.509.302c-.453 0-1.056 0-1.66.151h-1.961l-.453-.453c0-2.868.151-5.283.453-5.283zm0-20.681c.151 0 .452 2.264.452 5.132 0 2.869-.151 5.133-.452 5.133-.302 0-.453-2.264-.453-5.133 0-2.868.151-5.132.453-5.132zm0-20.68c.151 0 .452 2.264.452 5.132s-.151 5.132-.452 5.132c-.302 0-.453-2.264-.453-5.132s.151-5.132.453-5.132zm5.281-15.55c0 .151-2.414.453-5.281.453l.452-.453v1.963c0 .603 0 1.207-.151 1.66 0 .906-.15 1.51-.301 1.51s-.151-.604-.302-1.51c0-.453 0-1.057-.151-1.66v-1.963l.453-.453c2.867 0 5.281.151 5.281.453zm20.37.002c0 .15-2.263.452-5.13.452s-5.13-.151-5.13-.452c0-.151 2.263-.453 5.13-.453s5.13.151 5.13.453zm20.371 0c0 .15-2.263.452-5.13.452s-5.131-.151-5.131-.452c0-.151 2.264-.453 5.131-.453 2.867 0 5.13.151 5.13.453zm20.37 0c0 .15-2.263.452-5.13.452s-5.13-.151-5.13-.452c0-.151 2.263-.453 5.13-.453s5.13.151 5.13.453zm20.371 0c0 .15-2.264.452-5.13.452-2.867 0-5.131-.151-5.131-.452 0-.151 2.264-.453 5.131-.453 2.866 0 5.13.151 5.13.453zm20.37 0c0 .15-2.263.452-5.13.452s-5.13-.151-5.13-.452c0-.151 2.263-.453 5.13-.453s5.13.151 5.13.453zm20.371 0c0 .15-2.264.452-5.13.452-2.867 0-5.131-.151-5.131-.452 0-.151 2.264-.453 5.131-.453 2.866 0 5.13.151 5.13.453zm20.37 0c0 .15-2.263.452-5.13.452s-5.13-.151-5.13-.452c0-.151 2.263-.453 5.13-.453s5.13.151 5.13.453zm20.371 0c0 .15-2.264.452-5.13.452-2.867 0-5.131-.151-5.131-.452 0-.151 2.264-.453 5.131-.453 2.866 0 5.13.151 5.13.453zm15.542 5.283c-.151 0-.453-2.415-.453-5.283l.453.452h-1.962c-.603 0-1.207 0-1.66-.151-.905 0-1.509-.151-1.509-.301 0-.151.604-.151 1.509-.302.453 0 1.057 0 1.66-.151h1.962l.453.453c-.151 2.868-.302 5.283-.453 5.283zm0 20.68c-.151 0-.453-2.264-.453-5.132s.151-5.132.453-5.132c.151 0 .453 2.264.453 5.132-.151 2.717-.302 5.132-.453 5.132zm0 20.681c-.151 0-.453-2.264-.453-5.133 0-2.868.151-5.132.453-5.132.151 0 .453 2.264.453 5.132-.151 2.718-.302 5.133-.453 5.133z" fill="#E8505B"/><path d="M231.108 241.898h-3.168v3.17h3.168v-3.17zm-.452 62.192h-3.169v3.17h3.169v-3.17zm91.893 0h-3.169v3.17h3.169v-3.17zm0-62.947h-3.169v3.17h3.169v-3.17z" fill="#E8505B"/><path d="M412.783 212.462c0 .151-4.678.302-10.261.302-5.734 0-10.261 0-10.261-.151s4.678-.302 10.261-.302c5.734 0 10.261 0 10.261.151zm0 5.284c0 .151-4.678.302-10.261.302-5.734 0-10.261 0-10.261-.151s4.678-.302 10.261-.302c5.734 0 10.261 0 10.261.151zm.151 5.283c0 .151-4.678.302-10.261.302-5.734 0-10.261 0-10.261-.151s4.678-.302 10.261-.302c5.583 0 10.261 0 10.261.151z" fill="#263238"/><path d="M349.71 397.379c0 .151-14.335.302-31.839.302-17.654 0-31.838-.151-31.838-.302s14.335-.302 31.838-.302c17.655-.151 31.839 0 31.839.302z" fill="#E0E0E0"/><path d="M400.561 410.361c0 .151-25.652.302-57.189.302-31.687 0-57.188-.151-57.188-.302s25.652-.302 57.188-.302c31.537 0 57.189.151 57.189.302zm-1.358 9.359c0 .151-25.35.302-56.585.302s-56.585-.151-56.585-.302 25.35-.302 56.585-.302 56.585.151 56.585.302zm-46.324 8.906c0 .151-14.939.302-33.348.302-18.408 0-33.347-.151-33.347-.302s14.939-.302 33.347-.302c18.409 0 33.348.151 33.348.302z" fill="#263238"/><path d="M349.71 539.576c0 .151-14.335.302-31.839.302-17.654 0-31.838-.151-31.838-.302s14.335-.302 31.838-.302c17.655-.151 31.839 0 31.839.302z" fill="#E0E0E0"/><path d="M400.561 552.558c0 .151-25.652.302-57.189.302-31.687 0-57.188-.151-57.188-.302s25.652-.302 57.188-.302c31.537 0 57.189.151 57.189.302zm-1.358 9.359c0 .151-25.35.302-56.585.302s-56.585-.151-56.585-.302 25.35-.302 56.585-.302 56.585.151 56.585.302zm-46.324 8.906c0 .151-14.939.302-33.348.302-18.408 0-33.347-.151-33.347-.302s14.939-.302 33.347-.302c18.409 0 33.348.151 33.348.302z" fill="#263238"/><path d="M350.012 333.073c0 .151-14.335.302-31.839.302-17.654 0-31.838-.151-31.838-.302s14.335-.302 31.838-.302c17.504-.151 31.839 0 31.839.302z" fill="#E8505B"/><path d="M400.712 346.055c0 .151-25.652.302-57.189.302-31.687 0-57.188-.151-57.188-.302s25.652-.302 57.188-.302c31.537 0 57.189.151 57.189.302zm-1.358 9.359c0 .151-25.35.302-56.585.302s-56.585-.151-56.585-.302 25.35-.302 56.585-.302 56.585.151 56.585.302zm-46.325 8.906c0 .151-14.938.302-33.347.302s-33.347-.151-33.347-.302 14.938-.302 33.347-.302 33.347.151 33.347.302z" fill="#263238"/><path d="M258.722 367.038c0-.151 2.414-.453 5.281-.453 2.867 0 5.281.151 5.281.453 0 .151-2.414.452-5.281.452-2.867 0-5.281-.151-5.281-.452zm-21.125 0c0-.151 2.414-.453 5.281-.453 2.867 0 5.281.151 5.281.453 0 .151-2.414.452-5.281.452-2.867 0-5.281-.151-5.281-.452zm-3.923-17.209c.15 0 .452 2.415.452 5.283 0 2.868-.151 5.284-.452 5.284-.302 0-.453-2.416-.453-5.284.151-2.868.302-5.283.453-5.283zm2.867-18.416c0 .151-1.057.302-2.717.302l.302-.302v2.566c0 2.868-.151 5.283-.452 5.283-.302 0-.453-2.415-.453-5.283v-2.868h.302c1.81.151 3.018.151 3.018.302zm21.124 0c0 .151-2.414.453-5.281.453-2.867 0-5.281-.151-5.281-.453 0-.151 2.414-.453 5.281-.453 2.867.151 5.281.302 5.281.453zm11.619 9.51c-.151 0-.453-2.415-.453-5.284 0-1.66 0-3.17.151-4.075l.302.302c-.754 0-1.207-.151-1.207-.302s.453-.151 1.207-.302h.151v.302c.151.905.151 2.415.151 4.075.151 2.869 0 5.284-.302 5.284zm0 21.133c-.151 0-.453-2.415-.453-5.283 0-2.868.151-5.284.453-5.284.302 0 .453 2.416.453 5.284s-.151 5.283-.453 5.283z" fill="#E8505B"/><path d="M270.944 365.377h-3.923v3.925h3.923v-3.925zm0-36.832h-3.923v3.925h3.923v-3.925zm-35.309 36.832h-3.923v3.925h3.923v-3.925zm0-35.927h-3.923v3.925h3.923v-3.925z" fill="#E8505B"/><path d="M258.722 432.702c0-.151 2.414-.453 5.281-.453 2.867 0 5.281.151 5.281.453 0 .151-2.414.453-5.281.453-2.867-.151-5.281-.302-5.281-.453zm-21.125 0c0-.151 2.414-.453 5.281-.453 2.867 0 5.281.151 5.281.453 0 .151-2.414.453-5.281.453-2.867-.151-5.281-.302-5.281-.453zm-3.923-17.36c.15 0 .452 2.416.452 5.284s-.151 5.283-.452 5.283c-.302 0-.453-2.415-.453-5.283.151-2.868.302-5.284.453-5.284zm2.867-18.265c0 .151-1.057.302-2.717.302l.302-.302v2.566c0 2.868-.151 5.284-.452 5.284-.302 0-.453-2.416-.453-5.284v-2.868h.302c1.81 0 3.018.151 3.018.302zm21.124 0c0 .151-2.414.453-5.281.453-2.867 0-5.281-.151-5.281-.453 0-.151 2.414-.453 5.281-.453 2.867 0 5.281.151 5.281.453zm11.619 9.359c-.151 0-.453-2.415-.453-5.283 0-1.661 0-3.17.151-4.076l.302.302c-.754 0-1.207-.151-1.207-.302s.453-.151 1.207-.302h.151v.302c.151.906.151 2.415.151 4.076.151 2.868 0 5.283-.302 5.283zm0 21.133c-.151 0-.453-2.415-.453-5.283 0-2.868.151-5.283.453-5.283.302 0 .453 2.415.453 5.283 0 2.868-.151 5.283-.453 5.283z" fill="#E0E0E0"/><path d="M270.944 430.89h-3.923v3.925h3.923v-3.925zm0-36.832h-3.923v3.925h3.923v-3.925zm-35.309 36.832h-3.923v3.925h3.923v-3.925zm0-35.775h-3.923v3.924h3.923v-3.924z" fill="#E0E0E0"/><path d="M259.023 501.989c0-.151 2.415-.453 5.282-.453s5.281.151 5.281.453c0 .151-2.414.453-5.281.453-3.018 0-5.282-.151-5.282-.453zm-21.125 0c0-.151 2.415-.453 5.282-.453s5.281.151 5.281.453c0 .151-2.414.453-5.281.453-3.018 0-5.282-.151-5.282-.453zm-3.923-17.209c.151 0 .453 2.416.453 5.284s-.151 5.283-.453 5.283c-.151 0-.452-2.415-.452-5.283 0-2.868.15-5.284.452-5.284zm2.716-18.265c0 .151-1.056.302-2.716.302l.302-.302v2.566c0 2.868-.151 5.284-.453 5.284-.151 0-.452-2.416-.452-5.284v-2.868h.301c1.962 0 3.018.151 3.018.302zm21.125 0c0 .151-2.414.453-5.281.453-2.867 0-5.281-.151-5.281-.453 0-.151 2.414-.453 5.281-.453 2.867 0 5.281.151 5.281.453zm11.77 9.359c-.151 0-.453-2.415-.453-5.283 0-1.661 0-3.17.151-4.076l.302.302c-.755 0-1.207-.151-1.207-.302s.452-.151 1.207-.302h.151v.302c.151.906.151 2.415.151 4.076 0 2.868-.151 5.283-.302 5.283zm0 21.134c-.151 0-.453-2.416-.453-5.284s.151-5.283.453-5.283c.151 0 .453 2.415.453 5.283-.151 2.868-.302 5.284-.453 5.284z" fill="#E8505B"/><path d="M271.095 500.329h-3.923v3.924h3.923v-3.924zm0-36.833h-3.923v3.925h3.923v-3.925zm-35.158 36.833h-3.923v3.924h3.923v-3.924zm0-35.776h-3.923v3.925h3.923v-3.925z" fill="#E8505B"/><path d="M258.722 571.276c0-.151 2.414-.453 5.281-.453 2.867 0 5.281.151 5.281.453 0 .302-2.414.453-5.281.453-2.867 0-5.281-.151-5.281-.453zm-21.125 0c0-.151 2.414-.453 5.281-.453 2.867 0 5.281.151 5.281.453 0 .302-2.414.453-5.281.453-2.867 0-5.281-.151-5.281-.453zm-3.923-17.208c.15 0 .452 2.415.452 5.283 0 2.868-.151 5.283-.452 5.283-.302 0-.453-2.415-.453-5.283.151-2.868.302-5.283.453-5.283zm2.867-18.417c0 .151-1.057.302-2.717.302l.302-.302v2.566c0 2.869-.151 5.284-.452 5.284-.302 0-.453-2.415-.453-5.284v-2.868h.302c1.81 0 3.018.151 3.018.302zm21.124 0c0 .151-2.414.453-5.281.453-2.867 0-5.281-.151-5.281-.453 0-.302 2.414-.453 5.281-.453 2.867.151 5.281.302 5.281.453zm11.619 9.51c-.151 0-.453-2.415-.453-5.283 0-1.66 0-3.17.151-4.076l.302.302c-.754 0-1.207-.151-1.207-.302s.453-.151 1.207-.302h.151v.302c.151.906.151 2.416.151 4.076.151 2.868 0 5.283-.302 5.283zm0 21.134c-.151 0-.453-2.416-.453-5.284s.151-5.283.453-5.283c.302 0 .453 2.415.453 5.283 0 2.868-.151 5.284-.453 5.284z" fill="#E0E0E0"/><path d="M270.944 569.616h-3.923v3.924h3.923v-3.924zm0-36.833h-3.923v3.925h3.923v-3.925zm-35.309 36.833h-3.923v3.924h3.923v-3.924zm0-35.927h-3.923v3.925h3.923v-3.925z" fill="#E0E0E0"/><path d="M258.722 642.979c0-.151 2.414-.453 5.281-.453 2.867 0 5.281.151 5.281.453 0 .302-2.414.452-5.281.452-2.867-.15-5.281-.301-5.281-.452zm-21.125 0c0-.151 2.414-.453 5.281-.453 2.867 0 5.281.151 5.281.453 0 .302-2.414.452-5.281.452-2.867-.15-5.281-.301-5.281-.452zm-3.923-17.209c.15 0 .452 2.415.452 5.283 0 2.868-.151 5.284-.452 5.284-.302 0-.453-2.416-.453-5.284.151-3.019.302-5.283.453-5.283zm2.867-18.416c0 .151-1.057.302-2.717.302l.302-.302v2.566c0 2.868-.151 5.283-.452 5.283-.302 0-.453-2.415-.453-5.283v-2.868h.302c1.81 0 3.018.151 3.018.302zm21.124 0c0 .151-2.414.453-5.281.453-2.867 0-5.281-.151-5.281-.453 0-.151 2.414-.453 5.281-.453 2.867 0 5.281.151 5.281.453zm11.619 9.359c-.151 0-.453-2.415-.453-5.283 0-1.661 0-3.17.151-4.076l.302.302c-.754 0-1.207-.151-1.207-.302s.453-.151 1.207-.302h.151v.302c.151.906.151 2.415.151 4.076.151 3.019 0 5.283-.302 5.283zm0 21.133c-.151 0-.453-2.415-.453-5.283 0-2.868.151-5.283.453-5.283.302 0 .453 2.415.453 5.283 0 3.019-.151 5.283-.453 5.283z" fill="#E8505B"/><path d="M270.944 641.167h-3.923v3.925h3.923v-3.925zm0-36.832h-3.923v3.924h3.923v-3.924zm-35.309 36.832h-3.923v3.925h3.923v-3.925zm0-35.776h-3.923v3.925h3.923v-3.925zm112.868-140.083c0 .151-14.335.302-31.839.302-17.654 0-31.838-.151-31.838-.302s14.335-.302 31.838-.302c17.504-.151 31.839 0 31.839.302z" fill="#E8505B"/><path d="M399.203 478.289c0 .151-25.652.302-57.189.302-31.687 0-57.188-.151-57.188-.302 0-.15 25.652-.301 57.188-.301 31.537 0 57.189.151 57.189.301zm-1.358 9.36c0 .151-25.35.301-56.585.301s-56.585-.15-56.585-.301 25.35-.302 56.585-.302 56.585.151 56.585.302zm-46.324 8.906c0 .151-14.939.302-33.348.302-18.408 0-33.347-.151-33.347-.302s14.939-.302 33.347-.302c18.409 0 33.348.151 33.348.302z" fill="#263238"/><path d="M348.503 610.373c0 .151-14.335.302-31.839.302-17.654 0-31.838-.151-31.838-.302s14.335-.302 31.838-.302c17.504 0 31.839.151 31.839.302z" fill="#E8505B"/><path d="M399.203 623.506c0 .151-25.652.302-57.189.302-31.687 0-57.188-.151-57.188-.302s25.652-.302 57.188-.302c31.537 0 57.189.151 57.189.302zm-1.358 9.359c0 .151-25.35.302-56.585.302s-56.585-.151-56.585-.302 25.35-.302 56.585-.302c31.235-.151 56.585.151 56.585.302zm-46.324 8.906c0 .151-14.939.302-33.348.302-18.408 0-33.347-.151-33.347-.302s14.939-.302 33.347-.302c18.409 0 33.348.151 33.348.302z" fill="#263238"/><path d="M229.75 222.425h1.66c1.056 0 2.565 0 4.225-.151l-.151.151v-4.981c.151-.604.755-1.208 1.509-1.359h2.113c.754.151 1.358.906 1.358 1.661v4.528l-.151-.151h5.432l-.151.151v-8.453c0-.453-.302-.906-.754-1.208-.755-.754-1.509-1.509-2.415-2.264l-2.263-2.264-1.056-1.057c-.453-.302-.604-.755-1.057-.906-.452-.151-.905 0-1.207.302l-1.056 1.057-1.962 1.962-3.47 3.472c-.453.604-.302 1.359-.302 1.963v6.943c-.302.302-.302.604-.302.604v-8.604c0-.453.151-.755.302-1.057 1.056-1.207 2.113-2.264 3.471-3.623.603-.603 1.207-1.358 1.961-1.962l1.056-1.057c.453-.302 1.057-.452 1.509-.302.604.151.906.604 1.358.906l1.057 1.057 2.263 2.264c.755.755 1.509 1.51 2.414 2.264.151.151.453.302.604.604.151.302.302.604.302.906v8.604h-5.734v-4.679c0-.604-.453-1.208-1.056-1.359h-1.962c-.604 0-1.056.453-1.207 1.057v4.981h-6.338zm-1.81 45.89h-5.583c-3.622 0-8.903 0-15.241.151-6.488 0-14.183 0-22.633.151h-16.9c-1.208 0-2.415 0-3.471.302-2.112.603-3.923 2.566-4.527 4.83-.302 1.057-.151 2.415-.151 3.623v24.152c0 8.454 0 16.152-.151 22.643 0 6.34-.15 11.624-.15 15.246 0-3.622 0-8.906-.151-15.246 0-6.491 0-14.189-.151-22.643v-24.152c0-1.208-.151-2.415.151-3.774.603-2.566 2.565-4.679 4.979-5.434 1.207-.302 2.565-.302 3.622-.302h16.9c8.45 0 16.145 0 22.633.151 6.338 0 11.619.151 15.241.151h5.281a.468.468 0 00.302.151z" fill="#E8505B"/><path d="M231.863 268.164a2.384 2.384 0 01-2.415 2.415 2.384 2.384 0 01-2.414-2.415 2.383 2.383 0 012.414-2.415 2.383 2.383 0 012.415 2.415zm43.457 19.473s0-.604-.302-1.51-.905-2.113-2.263-3.17c-1.358-1.057-3.471-1.509-5.432-.755-1.962.755-3.773 2.868-3.773 5.284 0 2.566 1.66 4.679 3.773 5.283 1.961.755 4.074.302 5.432-.755 1.358-.905 1.961-2.264 2.263-3.17.151-.754.151-1.207.302-1.207 0 0 .151.603 0 1.509-.151.906-.755 2.415-2.113 3.472-1.358 1.208-3.772 1.812-6.035 1.057-2.264-.755-4.225-3.17-4.225-6.038 0-2.868 1.961-5.284 4.225-6.038 2.263-.755 4.677-.151 6.035 1.056 1.358 1.208 1.962 2.566 2.113 3.472.151.906 0 1.51 0 1.51z" fill="#E8505B"/></g><defs><clipPath id="clip0"><path fill="#fff" d="M0 0h593v686H0z"/></clipPath></defs></svg>