<svg width="18" height="17" fill="none" xmlns="http://www.w3.org/2000/svg"><path fill-rule="evenodd" clip-rule="evenodd" d="M3.938 1.86c0 1.026-.882 1.859-1.97 1.859C.882 3.719 0 2.886 0 1.859 0 .832.881 0 1.969 0c1.087 0 1.968.832 1.968 1.86zM0 5.312h4.025V17H0V5.312zm14.99.137c-.015-.005-.029-.01-.043-.013a1.815 1.815 0 00-.086-.026 2.718 2.718 0 00-.163-.03 3.812 3.812 0 00-.722-.069c-2.347 0-3.835 1.612-4.326 2.235V5.313H5.625V17H9.65v-6.375s3.042-4.001 4.326-1.063V17H18V9.113c0-1.766-1.281-3.237-3.01-3.663z" fill="#fff"/></svg>