<svg width="44" height="44" fill="none" xmlns="http://www.w3.org/2000/svg"><path d="M26.64 16.328a.86.86 0 10.001 1.72.86.86 0 000-1.72z" fill="#FF797D"/><path d="M42.993 38.132l-11.471-11.47a17.033 17.033 0 002.853-9.474C34.375 7.71 26.665 0 17.187 0 7.71 0 0 7.71 0 17.188c0 9.477 7.71 17.187 17.188 17.187 3.399 0 6.659-.984 9.473-2.853l3.17 3.17.002.002 8.299 8.299A3.415 3.415 0 0040.562 44c.918 0 1.782-.358 2.43-1.007A3.414 3.414 0 0044 40.563c0-.919-.358-1.782-1.007-2.43zm-16.736-8.421a15.336 15.336 0 01-9.07 2.945c-8.529 0-15.468-6.939-15.468-15.468 0-8.53 6.939-15.47 15.469-15.47 8.529 0 15.468 6.94 15.468 15.47 0 3.28-1.018 6.416-2.945 9.069a15.545 15.545 0 01-3.454 3.454zm1.803.779c.89-.728 1.703-1.54 2.43-2.43l2.438 2.438a20.865 20.865 0 01-2.43 2.43L28.06 30.49zm13.718 11.288a1.708 1.708 0 01-1.215.503c-.46 0-.89-.179-1.216-.503l-7.63-7.631c.87-.747 1.683-1.56 2.43-2.43l7.63 7.63c.325.325.504.756.504 1.215 0 .46-.179.89-.503 1.216z" fill="#FF797D"/><path d="M17.188 3.438c-7.582 0-13.75 6.168-13.75 13.75 0 7.581 6.168 13.75 13.75 13.75 7.581 0 13.75-6.169 13.75-13.75 0-7.582-6.169-13.75-13.75-13.75zm0 25.78c-6.634 0-12.032-5.396-12.032-12.03 0-6.634 5.397-12.032 12.032-12.032 6.634 0 12.03 5.397 12.03 12.032 0 6.634-5.396 12.03-12.03 12.03z" fill="#FF797D"/><path d="M26.818 13.498a10.313 10.313 0 00-3.726-4.762 10.24 10.24 0 00-5.904-1.861.86.86 0 000 1.719c3.531 0 6.757 2.219 8.026 5.521a.86.86 0 101.604-.617z" fill="#FF797D"/></svg>