<svg width="35" height="38" fill="none" xmlns="http://www.w3.org/2000/svg"><path d="M5.005 0L.91 5.46h32.762L29.577 0H5.005zm.759 32.76l4.85-6.16 5.936 10.277-7.393 1.072L8.79 38l-3.026-5.24zM0 10.01a2.73 2.73 0 105.46 0h1.82a2.73 2.73 0 105.46 0h1.82a2.73 2.73 0 105.461 0h1.82a2.73 2.73 0 005.46 0h1.82a2.73 2.73 0 005.46 0V7.28H0v2.73z" fill="#FF9296"/><path d="M32.762 34.582H21.534l-17.473.096-2.241-.096c-.096-.67.003-2.297 0-2.73V14.47a4.517 4.517 0 004.55-1.757 4.508 4.508 0 007.28 0 4.508 4.508 0 007.281 0 4.51 4.51 0 007.28 0 4.516 4.516 0 004.55 1.757v20.11z" fill="#FF9296"/></svg>