<svg width="205" height="224" fill="none" xmlns="http://www.w3.org/2000/svg"><g clip-path="url(#clip0)" fill="#FFC7CB" fill-opacity=".51"><path d="M150.34 196.84c13.799 0 25.026-12.268 25.026-27.346V152.32c3.718-1.373 6.403-5.218 6.403-9.738 0-5.667-4.219-10.278-9.406-10.278s-9.406 4.611-9.406 10.278c0 4.52 2.685 8.365 6.403 9.738v17.174c0 11.46-8.533 20.783-19.02 20.783-10.488 0-19.02-9.323-19.02-20.783V152.32c3.718-1.373 6.403-5.218 6.403-9.738 0-5.667-4.22-10.278-9.406-10.278-5.187 0-9.406 4.611-9.406 10.278 0 4.52 2.685 8.365 6.403 9.738v17.174c0 15.078 11.227 27.346 25.026 27.346zm22.023-57.973c1.875 0 3.4 1.666 3.4 3.715 0 2.048-1.525 3.715-3.4 3.715s-3.4-1.667-3.4-3.715c0-2.049 1.525-3.715 3.4-3.715zm-44.046 0c1.874 0 3.4 1.666 3.4 3.715 0 2.048-1.526 3.715-3.4 3.715-1.874 0-3.4-1.667-3.4-3.715 0-2.049 1.526-3.715 3.4-3.715z"/><path d="M14.85 224h178.054c4.595 0 8.175-4.368 7.675-9.356l-3.506-34.958c-.181-1.802-1.66-3.099-3.312-2.904-1.649.197-2.839 1.817-2.658 3.619l3.506 34.958c.111 1.109-.683 2.078-1.705 2.078h-85.13c-1.015 0-1.817-.96-1.705-2.078l8.66-86.352c.096-.952.829-1.67 1.705-1.67h67.81c.876 0 1.609.718 1.705 1.67l3.618 36.081c.181 1.801 1.653 3.1 3.312 2.904 1.649-.197 2.839-1.817 2.658-3.619l-3.618-36.081c-.43-4.285-3.73-7.517-7.675-7.517h-33.223l-4.637-46.24c-.583-5.816-5.06-10.2-10.414-10.2h-11.947V45.624C124.023 20.467 105.292 0 82.269 0 59.246 0 40.515 20.467 40.515 45.624v18.71H28.568c-5.354 0-9.83 4.385-10.414 10.2L4.437 211.307C3.758 218.077 8.62 224 14.85 224zm-4.443-11.979L24.125 75.249c.249-2.48 2.16-4.352 4.443-4.352h11.948v12.22c-3.923 1.387-6.77 5.416-6.77 10.159 0 5.887 4.384 10.677 9.773 10.677 5.388 0 9.771-4.79 9.771-10.677 0-4.743-2.845-8.772-6.768-10.16V70.897h28.74c1.66 0 3.003-1.469 3.003-3.281s-1.344-3.281-3.003-3.281h-28.74V45.624c0-21.539 16.036-39.061 35.747-39.061 19.712 0 35.748 17.522 35.748 39.06v18.712h-28.74c-1.66 0-3.004 1.469-3.004 3.281s1.345 3.281 3.003 3.281h28.741v12.22c-3.923 1.387-6.768 5.416-6.768 10.159 0 5.887 4.383 10.677 9.771 10.677 5.388 0 9.772-4.79 9.772-10.677 0-4.743-2.846-8.772-6.769-10.16V70.897h11.948c2.284 0 4.194 1.871 4.443 4.352l4.565 45.526h-28.544c-3.946 0-7.246 3.232-7.675 7.518l-8.661 86.352a9.79 9.79 0 00.148 2.792H14.85c-2.662 0-4.733-2.517-4.443-5.416zm33.111-122.86c2.077 0 3.766 1.846 3.766 4.115s-1.69 4.114-3.766 4.114-3.766-1.845-3.766-4.114c0-2.27 1.69-4.115 3.766-4.115zm77.502 0c2.077 0 3.766 1.846 3.766 4.115s-1.69 4.114-3.766 4.114c-2.077 0-3.766-1.845-3.766-4.114 0-2.27 1.69-4.115 3.766-4.115z"/></g><defs><clipPath id="clip0"><path fill="#fff" d="M0 0h205v224H0z"/></clipPath></defs></svg>