<svg width="508" height="356" fill="none" xmlns="http://www.w3.org/2000/svg"><path d="M504.545 354.739v-14.287c0-11.232-9.178-21.437-18.369-31.642-9.192-10.205 7.15-64.286 8.164-109.188 1.014-44.903-20.41-58.176-39.793-44.903-19.383 13.274-28.575-42.861-33.684-74.503-5.109-31.643-34.684-86.71-82.708-79.587-48.024 7.124-37.712 59.203-61.177 67.354-23.465 8.15-51.026-23.479-98.996-4.082-47.971 19.396-44.903 146.94-67.354 171.432-22.451 24.492-54.08-25.506-80.614 0C5.095 259.345 6.283 344.481 6.523 354.739h498.022z" fill="#E8505B"/><path opacity=".7" d="M504.545 354.739v-14.287c0-11.232-9.178-21.437-18.369-31.642-9.192-10.205 7.15-64.286 8.164-109.188 1.014-44.903-20.41-58.176-39.793-44.903-19.383 13.274-28.575-42.861-33.684-74.503-5.109-31.643-34.684-86.71-82.708-79.587-48.024 7.124-37.712 59.203-61.177 67.354-23.465 8.15-51.026-23.479-98.996-4.082-47.971 19.396-44.903 146.94-67.354 171.432-22.451 24.492-54.08-25.506-80.614 0C5.095 259.345 6.283 344.481 6.523 354.739h498.022z" fill="#fff"/><path d="M368.49 67.69s-35.271-3.35-40.126 13.673c-4.856 17.022 12.152 31.322 17.342 34.057a42.045 42.045 0 01-2.135 27.667c-6.39 14.901-14.047 36.805-47.397 67.207-33.35 30.402-56.255 42.861-61.724 76.918-5.469 34.057 10.939 47.437 55.935 47.744 44.995.307 118.245-52.906 136.521-116.151 18.276-63.245 13.073-89.378 12.166-112.203-.907-22.825-14.02-44.102-37.138-46.517-23.118-2.414-33.444 7.604-33.444 7.604z" fill="#263238" stroke="#263238" stroke-linecap="round" stroke-linejoin="round"/><path d="M376.668 94.13s-36.912-11.353-39.193-1.709c-2.281 9.645 23.292 13.634 23.292 8.525 0-5.11-13.634-5.096-13.634-5.096m64.739-29.548s-30.095-1.134-31.803 9.658c-1.707 10.792 41.461 44.289 58.496 48.838" stroke="#fff" stroke-miterlimit="10"/><path d="M401.654 66.302s-10.219 6.243-6.243 13.633c3.975 7.39 25.546 17.035 36.338 17.035" stroke="#fff" stroke-miterlimit="10"/><path d="M355.497 164.364a315.56 315.56 0 0136.752 0c19.57 1.201 26.36 8.791 26.36 8.791s-29.562 120.234-32.363 142.605c-2.802 22.371-3.188 39.553-3.188 39.553h-73.544s17.969-76.705 25.159-113.844c7.191-37.138 20.824-77.105 20.824-77.105z" fill="#E8505B" stroke="#263238" stroke-linecap="round" stroke-linejoin="round"/><path d="M364.848 167.726s-5.482 23.105-5.482 36.778c0 13.674 9.431 31.323 24.932 25.546 15.501-5.776 17.942-22.144 17.942-32.816 0-10.672-.6-25.226-.6-25.226s-7.604 6.083-19.463 2.121c-11.859-3.962-17.329-6.403-17.329-6.403z" fill="#fff"/><path d="M402.187 190.831c-.16-9.338-.547-18.85-.547-18.85s-7.604 6.083-19.463 2.121c-11.859-3.962-17.342-6.376-17.342-6.376s-2.521 10.672-4.149 21.744c3.442 5.59 9.672 10.352 21.051 9.712 9.151-.521 15.688-3.762 20.45-8.351z" fill="#E8505B"/><path opacity=".5" d="M402.187 190.831c-.16-9.338-.547-18.85-.547-18.85s-7.604 6.083-19.463 2.121c-11.859-3.962-17.342-6.376-17.342-6.376s-2.521 10.672-4.149 21.744c3.442 5.59 9.672 10.352 21.051 9.712 9.151-.521 15.688-3.762 20.45-8.351z" fill="#fff"/><path d="M364.848 167.726s-5.482 23.105-5.482 36.778c0 13.674 9.431 31.323 24.932 25.546 15.501-5.776 17.942-22.144 17.942-32.816 0-10.672-.6-25.226-.6-25.226s-7.604 6.083-19.463 2.121c-11.859-3.962-17.329-6.403-17.329-6.403z" stroke="#263238" stroke-linecap="round" stroke-linejoin="round"/><path d="M400.12 176.837s-7.297 9.738-9.432 19.463c-2.134 9.725 1.214 15.515 1.214 15.515" stroke="#263238" stroke-linecap="round" stroke-linejoin="round"/><path d="M370.878 353.192c-.307-4.562-.613-19.156 8.818-43.168s16.715-59.91 18.543-89.378c1.827-29.468 3.348-48.651 3.348-48.651 0-5.483 2.121-8.818 18.236-6.39 16.114 2.428 52.599 7.604 52.306 12.473-.294 4.869-21.344 72.97-23.719 90.912-2.374 17.942-1.827 25.226 7.297 20.663 9.125-4.562 21.891-12.166 21.891-12.166v13.674s-32.229 41.354-41.661 47.744c-9.431 6.39-9.124 5.162-11.552-2.135-2.428-7.297-2.428-32.523-2.428-32.523-10.258 28.121-9.711 44.209-8.578 51.066h-42.301a28.524 28.524 0 00-.2-2.121zm64.739-101.971l12.006-44.689-12.006 44.689zM264.545 355.313h55.348c1.814-7.697 10.165-42.861 16.368-62.018 6.99-21.584 16.115-48.344 17.942-64.459 1.828-16.114 9.432-58.989 9.432-58.989 1.214-8.204 0-7.297 0-7.297s-58.39.907-62.698 1.214c-4.309.307-2.428 29.495-2.428 71.155.053 38.273-29.202 109.122-33.964 120.394zm44.662-116.138l9.725-12.766-9.725 12.766z" fill="#fff"/><path d="M448.464 268.976c.466-3.468 1.627-8.791 3.188-15.167l-11.139-2.095s-38.112 67.901-57.175 82.202c-4.269 3.201-8.418 6.109-12.126 8.831a60.745 60.745 0 00-.28 10.445c0 .814.106 1.494.146 2.121h42.355c-1.134-6.857-1.681-22.945 8.577-51.066 0 0 0 25.226 2.428 32.523 2.428 7.297 2.135 8.525 11.553 2.135 9.418-6.39 41.607-47.744 41.607-47.744v-13.674s-12.766 7.604-21.891 12.153c-9.124 4.549-9.685-2.735-7.243-20.664zm-146.727-14.287l-8.751 17.502c-8.738 35.632-24.999 74.971-28.441 83.122h13.18l24.012-100.624z" fill="#E8505B"/><path opacity=".5" d="M448.464 268.976c.466-3.468 1.627-8.791 3.188-15.167l-11.139-2.095s-38.112 67.901-57.175 82.202c-4.269 3.201-8.418 6.109-12.126 8.831a60.745 60.745 0 00-.28 10.445c0 .814.106 1.494.146 2.121h42.355c-1.134-6.857-1.681-22.945 8.577-51.066 0 0 0 25.226 2.428 32.523 2.428 7.297 2.135 8.525 11.553 2.135 9.418-6.39 41.607-47.744 41.607-47.744v-13.674s-12.766 7.604-21.891 12.153c-9.124 4.549-9.685-2.735-7.243-20.664zm-146.727-14.287l-8.751 17.502c-8.738 35.632-24.999 74.971-28.441 83.122h13.18l24.012-100.624z" fill="#fff"/><path d="M309.207 239.175l9.725-12.766m51.946 126.783c-.307-4.562-.613-19.156 8.818-43.168s16.715-59.91 18.543-89.378c1.827-29.468 3.348-48.651 3.348-48.651 0-5.483 2.121-8.818 18.236-6.39 16.114 2.428 52.599 7.604 52.306 12.473-.294 4.869-21.344 72.97-23.719 90.912-2.374 17.942-1.827 25.226 7.297 20.663 9.125-4.562 21.891-12.166 21.891-12.166v13.674s-32.229 41.354-41.661 47.744c-9.431 6.39-9.124 5.162-11.552-2.135-2.428-7.297-2.428-32.523-2.428-32.523-10.258 28.121-9.711 44.209-8.578 51.066h-42.301a28.524 28.524 0 00-.2-2.121zm64.739-101.971l12.006-44.689-12.006 44.689zM264.545 355.313h55.348c1.814-7.697 10.165-42.861 16.368-62.018 6.99-21.584 16.115-48.344 17.942-64.459 1.828-16.114 9.432-58.989 9.432-58.989 1.214-8.204 0-7.297 0-7.297s-58.39.907-62.698 1.214c-4.309.307-2.428 29.495-2.428 71.155.053 38.273-29.202 109.122-33.964 120.394z" stroke="#263238" stroke-linecap="round" stroke-linejoin="round"/><path d="M360.593 162.243l-24.025 43.182 9.725 13.38-11.246 7.897-6.683 86.963m82.147-145.619l7.377 44.356-10.125 7.75 11.913 10.712-29.788 70.889" stroke="#263238" stroke-linecap="round" stroke-linejoin="round"/><path d="M333.219 288.733s15.515-6.39 24.626-13.98c9.111-7.591 25.239-30.109 28.014-29.802 2.775.307 19.156 12.166 27.374 14.901 8.217 2.735 14.287 2.735 13.98 4.562-.307 1.828-3.642 3.642-10.032 3.642-6.389 0-23.718-9.125-23.718-9.125s9.431 12.167 7.91 13.687a86.959 86.959 0 01-19.463 11.553c-7.297 2.734-12.166 5.176-13.686 4.869-1.521-.307-1.214-3.349-.294-4.256l2.735-2.734s-6.457 4.562-9.778 4.562h-3.349l-26.146 22.184 1.827-20.063z" fill="#fff"/><path d="M424.505 266.882h-.267c-14.34-.987-34.097-12.846-34.097-12.846l3.282 4.922s17.342 9.125 23.718 9.125a19.42 19.42 0 007.364-1.201z" fill="#E8505B"/><path d="M393.103 270.31c-2.468 1.988-6.417-2.467-6.417-2.467s.987 9.884-1.974 10.378c-2.962.494-6.924-2.468-6.924-2.468s0 6.417-2.961 6.417c-2.962 0-7.404-9.338-7.404-9.338s1.067 4.695-1.988 7.897c-3.054 3.202-8.884 2.468-8.884 2.468l-23.225 16.755-1.334 1.547-.654 7.284 26.2-22.171h3.335c3.348 0 9.738-4.562 9.738-4.562l-2.734 2.734c-.921.907-1.228 4.002.293 4.256 1.521.253 6.39-2.135 13.687-4.869a87.003 87.003 0 0019.463-11.553c1.521-1.52-7.911-13.687-7.911-13.687s2.161 9.405-.306 11.379z" fill="#E8505B"/><g opacity=".5" fill="#fff"><path opacity=".5" d="M424.505 266.882h-.267c-14.34-.987-34.097-12.846-34.097-12.846l3.282 4.922s17.342 9.125 23.718 9.125a19.42 19.42 0 007.364-1.201z"/><path opacity=".5" d="M393.103 270.31c-2.468 1.988-6.417-2.467-6.417-2.467s.987 9.884-1.974 10.378c-2.962.494-6.924-2.468-6.924-2.468s0 6.417-2.961 6.417c-2.962 0-7.404-9.338-7.404-9.338s1.067 4.695-1.988 7.897c-3.054 3.202-8.884 2.468-8.884 2.468l-23.225 16.755-1.334 1.547-.654 7.284 26.2-22.171h3.335c3.348 0 9.738-4.562 9.738-4.562l-2.734 2.734c-.921.907-1.228 4.002.293 4.256 1.521.253 6.39-2.135 13.687-4.869a87.003 87.003 0 0019.463-11.553c1.521-1.52-7.911-13.687-7.911-13.687s2.161 9.405-.306 11.379z"/></g><path d="M370.625 282.05l-2.135-4.563m7.911-5.776s6.083 11.246 5.469 12.46m2.735-20.677s9.431 13.34 7.911 15.514" stroke="#263238" stroke-linecap="round" stroke-linejoin="round"/><path d="M333.219 288.733s15.515-6.39 24.626-13.98c9.111-7.591 25.239-30.109 28.014-29.802 2.775.307 19.156 12.166 27.374 14.901 8.217 2.735 14.287 2.735 13.98 4.562-.307 1.828-3.642 3.642-10.032 3.642-6.389 0-23.718-9.125-23.718-9.125s9.431 12.167 7.91 13.687a86.959 86.959 0 01-19.463 11.553c-7.297 2.734-12.166 5.176-13.686 4.869-1.521-.307-1.214-3.349-.294-4.256l2.735-2.734s-6.457 4.562-9.778 4.562h-3.349l-26.146 22.184 1.827-20.063z" stroke="#263238" stroke-linecap="round" stroke-linejoin="round"/><path d="M306.473 163.164s-10.045-.921-12.473-.921c-2.428 0-6.083 1.828-6.67 10.032-.587 8.204-40.514 161.761-40.514 165.709 0 3.949 6.043 5.336 24.719.614 15.755-4.002 62.551-19.757 62.551-19.757l4.136-33.203-48.718 9.792 23.719-69.635" fill="#fff"/><path d="M335.514 307.756c-3.442.92-57.949 15.554-68.328 19.009-10.672 3.575 11.913-14.3 4.176-13.7-7.737.6-16.689 11.312-16.689 11.312l20.731-101.73c-11.926 47.957-28.588 112.789-28.588 115.337 0 4.002 6.043 5.336 24.719.614 15.755-4.002 62.551-19.757 62.551-19.757l1.428-11.085z" fill="#E8505B"/><path opacity=".5" d="M335.514 307.756c-3.442.92-57.949 15.554-68.328 19.009-10.672 3.575 11.913-14.3 4.176-13.7-7.737.6-16.689 11.312-16.689 11.312l20.731-101.73c-11.926 47.957-28.588 112.789-28.588 115.337 0 4.002 6.043 5.336 24.719.614 15.755-4.002 62.551-19.757 62.551-19.757l1.428-11.085z" fill="#fff"/><path d="M306.473 163.164s-10.045-.921-12.473-.921c-2.428 0-6.083 1.828-6.67 10.032-.587 8.204-40.514 161.761-40.514 165.709 0 3.949 6.043 5.336 24.719.614 15.755-4.002 62.551-19.757 62.551-19.757l4.136-33.203-48.718 9.792 23.719-69.635" stroke="#263238" stroke-linecap="round" stroke-linejoin="round"/><path d="M308.474 247.286l-2.735 34.057 21.958.88 2.067-33.11-21.29-1.827z" fill="#263238" stroke="#263238" stroke-linecap="round" stroke-linejoin="round"/><path d="M316.691 238.721l-.293 13.38 5.776.307.293-13.687h-5.776z" fill="#fff" stroke="#263238" stroke-linecap="round" stroke-linejoin="round"/><path d="M435.644 230.304l-39.086 85.509a3.45 3.45 0 00.223 3.293 3.452 3.452 0 002.885 1.603l63.338.534a3.444 3.444 0 003.135-1.935l40.807-84.148a3.464 3.464 0 00-.155-3.303 3.456 3.456 0 00-2.86-1.66l-65.019-1.908a3.487 3.487 0 00-3.268 2.015z" fill="#263238" stroke="#263238" stroke-linecap="round" stroke-linejoin="round"/><path d="M409.884 290.827l-3.121 6.844m43.101-67.781l-9.671-.293a3.466 3.466 0 00-3.242 2.027l-24.719 53.987m45.783-55.481l-5.122-.16" stroke="#fff" stroke-linecap="round" stroke-linejoin="round"/><path d="M494.487 280.169s-7.564 3.268-13.34 5.509c-5.777 2.241-2.455 4.296-.201 4.296 2.255 0 11.033-2.668 14.301-4.696 3.268-2.028 2.908-5.723-.76-5.109z" fill="#E8505B"/><path opacity=".5" d="M494.487 280.169s-7.564 3.268-13.34 5.509c-5.777 2.241-2.455 4.296-.201 4.296 2.255 0 11.033-2.668 14.301-4.696 3.268-2.028 2.908-5.723-.76-5.109z" fill="#fff"/><path d="M494.487 280.169s-7.564 3.268-13.34 5.509c-5.777 2.241-2.455 4.296-.201 4.296 2.255 0 11.033-2.668 14.301-4.696 3.268-2.028 2.908-5.723-.76-5.109z" stroke="#263238" stroke-linecap="round" stroke-linejoin="round"/><path d="M498.662 272.231s-10.272 4.443-18.049 7.484c-7.777 3.042-3.322 5.83-.267 5.83s14.981-3.602 19.423-6.377c4.442-2.775 3.882-7.777-1.107-6.937z" fill="#E8505B"/><path opacity=".5" d="M498.662 272.231s-10.272 4.443-18.049 7.484c-7.777 3.042-3.322 5.83-.267 5.83s14.981-3.602 19.423-6.377c4.442-2.775 3.882-7.777-1.107-6.937z" fill="#fff"/><path d="M498.662 272.231s-10.272 4.443-18.049 7.484c-7.777 3.042-3.322 5.83-.267 5.83s14.981-3.602 19.423-6.377c4.442-2.775 3.882-7.777-1.107-6.937z" stroke="#263238" stroke-linecap="round" stroke-linejoin="round"/><path d="M498.355 264.814s-11.259 4.856-19.77 8.204c-8.511 3.349-3.642 6.39-.307 6.39s16.422-4.002 21.344-7.003c4.923-3.002 4.203-8.471-1.267-7.591z" fill="#E8505B"/><path opacity=".5" d="M498.355 264.814s-11.259 4.856-19.77 8.204c-8.511 3.349-3.642 6.39-.307 6.39s16.422-4.002 21.344-7.003c4.923-3.002 4.203-8.471-1.267-7.591z" fill="#fff"/><path d="M498.355 264.814s-11.259 4.856-19.77 8.204c-8.511 3.349-3.642 6.39-.307 6.39s16.422-4.002 21.344-7.003c4.923-3.002 4.203-8.471-1.267-7.591z" stroke="#263238" stroke-linecap="round" stroke-linejoin="round"/><path d="M499.236 258.024s-11.246 4.869-19.757 8.204c-8.511 3.335-3.655 6.39-.307 6.39 3.349 0 16.422-4.002 21.278-6.99 4.855-2.988 4.255-8.511-1.214-7.604z" fill="#E8505B"/><path opacity=".5" d="M499.236 258.024s-11.246 4.869-19.757 8.204c-8.511 3.335-3.655 6.39-.307 6.39 3.349 0 16.422-4.002 21.278-6.99 4.855-2.988 4.255-8.511-1.214-7.604z" fill="#fff"/><path d="M499.236 258.024s-11.246 4.869-19.757 8.204c-8.511 3.335-3.655 6.39-.307 6.39 3.349 0 16.422-4.002 21.278-6.99 4.855-2.988 4.255-8.511-1.214-7.604z" stroke="#263238" stroke-linecap="round" stroke-linejoin="round"/><path d="M384.605 90.18s-21.891 13.994-26.453 19.463c-4.562 5.47-2.428 17.036-2.121 20.677.307 3.642.6 28.014 2.734 31.923 2.135 3.909 8.658 19.637 29.895 18.676 15.301-.707 23.012-13.166 26.053-21.077a66.888 66.888 0 003.642-17.022s8.845-1.534 8.845-8.831-1.975-15.808-6.11-14.887c-2.094.466-4.856 5.162-4.856 5.162a116.926 116.926 0 01-21.344-18.849c-9.671-11.273-10.285-15.235-10.285-15.235z" fill="#fff"/><path d="M383.231 102.84s20.009 26.493 33.003 21.344a116.926 116.926 0 01-21.344-18.849c-9.725-11.246-10.339-15.208-10.339-15.208s-21.891 13.994-26.453 19.463a11.528 11.528 0 00-2.148 4.509l27.281-11.259zm43.675 26.653a23.974 23.974 0 01-1.721 6.937c-2.481 5.443-8.897 4.456-8.897 4.456s-4.002 20.744-9.338 27.16c-5.336 6.417-20.251 11.859-35.071 4.456-14.821-7.404-12.847-25.693-12.847-25.693s8.898 0 12.353-8.404c3.455-8.405-.987-12.353-9.885-11.846a8.89 8.89 0 00-5.616 2.281c.067.573.12 1.08.16 1.481.307 3.655.6 28.014 2.735 31.922 2.134 3.909 8.657 19.637 29.895 18.676 15.301-.707 23.011-13.166 26.053-21.077a66.93 66.93 0 003.642-17.022s8.844-1.534 8.844-8.831a41.979 41.979 0 00-.307-4.496z" fill="#E8505B"/><path opacity=".5" d="M426.906 129.493a23.974 23.974 0 01-1.721 6.937c-2.481 5.443-8.897 4.456-8.897 4.456s-4.002 20.744-9.338 27.16c-5.336 6.417-20.251 11.859-35.071 4.456-14.821-7.404-12.847-25.693-12.847-25.693s8.898 0 12.353-8.404c3.455-8.405-.987-12.353-9.885-11.846a8.89 8.89 0 00-5.616 2.281c.067.573.12 1.08.16 1.481.307 3.655.6 28.014 2.735 31.922 2.134 3.909 8.657 19.637 29.895 18.676 15.301-.707 23.011-13.166 26.053-21.077a66.93 66.93 0 003.642-17.022s8.844-1.534 8.844-8.831a41.979 41.979 0 00-.307-4.496z" fill="#fff"/><path d="M401.909 143.637c6.215-2.591 9.153-9.73 6.562-15.946-2.591-6.215-9.73-9.153-15.945-6.562-6.216 2.591-9.154 9.73-6.563 15.945 2.591 6.216 9.73 9.154 15.946 6.563z" fill="#E8505B"/><path opacity=".5" d="M401.909 143.637c6.215-2.591 9.153-9.73 6.562-15.946-2.591-6.215-9.73-9.153-15.945-6.562-6.216 2.591-9.154 9.73-6.563 15.945 2.591 6.216 9.73 9.154 15.946 6.563z" fill="#fff"/><path opacity=".5" d="M383.231 102.84s20.009 26.493 33.003 21.344a116.926 116.926 0 01-21.344-18.849c-9.725-11.246-10.339-15.208-10.339-15.208s-21.891 13.994-26.453 19.463a11.528 11.528 0 00-2.148 4.509l27.281-11.259z" fill="#fff"/><path d="M384.605 90.18s-21.891 13.994-26.453 19.463c-4.562 5.47-2.428 17.036-2.121 20.677.307 3.642.6 28.014 2.734 31.923 2.135 3.909 8.658 19.637 29.895 18.676 15.301-.707 23.012-13.166 26.053-21.077a66.888 66.888 0 003.642-17.022s8.845-1.534 8.845-8.831-1.975-15.808-6.11-14.887c-2.094.466-4.856 5.162-4.856 5.162a116.926 116.926 0 01-21.344-18.849c-9.671-11.273-10.285-15.235-10.285-15.235z" stroke="#263238" stroke-linecap="round" stroke-linejoin="round"/><path d="M363.328 140.952c6.881 0 12.459-5.578 12.459-12.459 0-6.881-5.578-12.46-12.459-12.46-6.882 0-12.46 5.579-12.46 12.46 0 6.881 5.578 12.459 12.46 12.459z" fill="#fff"/><path d="M353.016 135.51a12.475 12.475 0 0022.198-10.766c-1.041 2.282-2.281 4.002-3.629 4.109-4.215.36-5.002-.547-8.257-.36-2.108.133-7.057 4.162-10.312 7.017z" fill="#E8505B"/><path d="M363.328 140.952c6.881 0 12.459-5.578 12.459-12.459 0-6.881-5.578-12.46-12.459-12.46-6.882 0-12.46 5.579-12.46 12.46 0 6.881 5.578 12.459 12.46 12.459z" stroke="#263238" stroke-linecap="round" stroke-linejoin="round"/><path d="M397.385 140.952c6.881 0 12.459-5.578 12.459-12.459 0-6.881-5.578-12.46-12.459-12.46-6.881 0-12.46 5.579-12.46 12.46 0 6.881 5.579 12.459 12.46 12.459z" fill="#fff"/><path d="M397.385 140.966a12.475 12.475 0 0012.459-12.473c0-1.329-.216-2.649-.64-3.909-4.322 7.724-9.592 3.695-14.874 3.162-3.175-.32-6.163 3.175-8.137 6.23a12.463 12.463 0 0011.192 6.99z" fill="#E8505B"/><path d="M397.385 140.952c6.881 0 12.459-5.578 12.459-12.459 0-6.881-5.578-12.46-12.459-12.46-6.881 0-12.46 5.579-12.46 12.46 0 6.881 5.579 12.459 12.46 12.459zm-21.598-17.315s5.176-4.562 9.738 0m-26.759-10.952s4.562-6.39 11.859-4.869m16.115-.6s7.296-3.042 14.287 5.162m-23.412 15.821s.907 7.297-.907 10.672c-1.815 3.375-5.777 5.176-4.256 7.604s6.67 3.655 6.67 3.655m-1.2 6.951s7.604 1.827 12.766-3.656M102.584 355.313H1m462.324 0H114.483m371.133 0h-12.38" stroke="#263238" stroke-linecap="round" stroke-linejoin="round"/><path opacity=".71" d="M304.285 83.657H61.937V234.6h242.348V83.657z" fill="#fff"/><path d="M57.988 74.64v168.964H308.18V74.639H57.988zm246.283 159.946H61.937V83.657h242.334v150.929z" fill="#E8505B" stroke="#263238" stroke-linecap="round" stroke-linejoin="round"/><path d="M71.622 88.433H233.57a4.494 4.494 0 014.495 4.495v4.376a4.506 4.506 0 01-4.509 4.509H71.622a4.494 4.494 0 01-4.496-4.496v-4.375a4.496 4.496 0 014.496-4.51z" fill="#E8505B" stroke="#263238" stroke-linecap="round" stroke-linejoin="round"/><path d="M69.901 116.954h35.178m-35.178 7.924h35.178m-35.178 7.924h35.178m-35.178 8.431h35.178m6.843-24.279H147.1m-35.178 7.924H147.1m-35.178 7.924H147.1m-35.178 8.431H147.1m6.843-24.279h35.178m-35.178 7.924h35.178m-35.178 7.924h35.178m-35.178 8.431h35.178m6.843-24.279h35.178m-35.178 7.924h35.178m-35.178 7.924h35.178m-35.178 8.431h35.178M91.085 197.567l29.868-29.868 21.985 19.73 18.596-16.915 27.627 20.85 29.868-31.562" stroke="#263238" stroke-linecap="round" stroke-linejoin="round"/><path d="M120.953 171.648a3.949 3.949 0 100-7.898 3.949 3.949 0 000 7.898zm40.58 2.815a3.949 3.949 0 100-7.898 3.949 3.949 0 000 7.898zm27.628 20.85a3.949 3.949 0 10-.002-7.898 3.949 3.949 0 00.002 7.898zm29.308-31.562a3.949 3.949 0 10-.002-7.898 3.949 3.949 0 00.002 7.898zM91.085 201.516a3.949 3.949 0 100-7.898 3.949 3.949 0 000 7.898zm51.853-11.272a3.949 3.949 0 10-.002-7.898 3.949 3.949 0 00.002 7.898zm105.999 40.98a2.268 2.268 0 01-2.268-2.268V90.514a2.266 2.266 0 012.268-2.268 2.282 2.282 0 012.281 2.268v138.442a2.28 2.28 0 01-2.281 2.268z" fill="#E8505B" stroke="#263238" stroke-linecap="round" stroke-linejoin="round"/><path d="M273.976 116.033h25.373m-43.488 0h8.857m30.202 6.697h4.429m-16.915 0h8.858m-35.431 0h20.53m.4 6.697h22.558m-43.488 0h16.101m17.716 6.683h9.671m-33.83 0h20.13m-29.788 0h5.229m12.886 5.856h25.373m-43.488 0h8.857m30.202 6.697h4.429m-16.915 0h8.858m-35.431 0h20.53m.4 6.683h22.558m-43.488 0h16.101m17.716 6.697h9.671m-33.83 0h20.13m-29.788 0h5.229m12.886 5.856h25.373m-43.488 0h8.857m30.202 6.684h4.429m-16.915 0h8.858m-35.431 0h20.53m.4 6.696h22.558m-43.488 0h16.101m17.716 6.697h9.671m-33.83 0h20.13m-29.788 0h5.229m12.886 5.843h25.373m-43.488 0h8.857m30.202 6.697h4.429m-16.915 0h8.858m-35.431 0h20.53m.4 6.696h22.558m-43.488 0h16.101m17.716 6.684h9.671m-33.83 0h20.13m-29.788 0h5.229" stroke="#263238" stroke-linecap="round" stroke-linejoin="round"/><path d="M78.826 217.204h-6.003v13.34h6.003v-13.34z" fill="#E8505B"/><path d="M90.832 223.154h-6.003v7.39h6.003v-7.39z" fill="#263238"/><path d="M102.837 226.595h-6.002v3.949h6.002v-3.949z" fill="#E8505B"/><path d="M114.844 221.099h-6.003v9.445h6.003v-9.445z" fill="#263238"/><path d="M126.85 224.528h-6.003v6.016h6.003v-6.016z" fill="#E8505B"/><path d="M138.856 220.632h-6.003v9.912h6.003v-9.912z" fill="#263238"/><path d="M150.862 228.876h-6.003v1.668h6.003v-1.668z" fill="#E8505B"/><path d="M162.867 217.204h-6.002v13.34h6.002v-13.34z" fill="#263238"/><path d="M174.873 225.675h-6.003v4.869h6.003v-4.869z" fill="#E8505B"/><path d="M186.879 228.65h-6.003v1.894h6.003v-1.894z" fill="#263238"/><path d="M198.886 226.128h-6.003v4.416h6.003v-4.416z" fill="#E8505B"/><path d="M210.892 217.204h-6.003v13.34h6.003v-13.34z" fill="#263238"/><path d="M222.898 219.952h-6.003v10.592h6.003v-10.592z" fill="#E8505B"/><path d="M234.904 221.78h-6.003v8.764h6.003v-8.764z" fill="#263238"/><path d="M260.156 106.842V36.98h13.38m10.405-.493h24.773m-24.773 7.923h24.773m-24.773 7.925h24.773M74.277 322.817h26.253m-26.253 7.43h26.253m-26.253 7.43h26.253m-26.253 7.431h26.253" stroke="#263238" stroke-linecap="round" stroke-linejoin="round"/><path d="M163.593 334.652c22.09-5.287 35.711-27.481 30.424-49.571-5.287-22.09-27.48-35.711-49.57-30.424-22.09 5.287-35.712 27.48-30.425 49.57 5.287 22.09 27.481 35.712 49.571 30.425z" fill="#E8505B" stroke="#263238" stroke-linecap="round" stroke-linejoin="round"/><path d="M161.191 324.503c16.504-3.938 26.691-20.509 22.753-37.013-3.938-16.504-20.51-26.691-37.014-22.753-16.504 3.938-26.691 20.509-22.753 37.013 3.938 16.504 20.51 26.691 37.014 22.753z" fill="#fff" stroke="#263238" stroke-linecap="round" stroke-linejoin="round"/><path d="M171.993 301.999c4.066-9.919-.679-21.256-10.598-25.322-9.918-4.065-21.255.679-25.321 10.598-4.066 9.918.679 21.255 10.597 25.321 9.919 4.066 21.256-.679 25.322-10.597z" fill="#E8505B" stroke="#263238" stroke-linecap="round" stroke-linejoin="round"/><path d="M101.998 309.013c7.934-7.935 7.934-20.799 0-28.733-7.934-7.934-20.798-7.934-28.733 0-7.934 7.934-7.934 20.798 0 28.732 7.935 7.935 20.799 7.935 28.733.001z" fill="#fff" stroke="#263238" stroke-linecap="round" stroke-linejoin="round"/><path d="M95.668 302.683c4.439-4.438 4.439-11.635 0-16.073-4.438-4.439-11.635-4.439-16.073 0-4.439 4.438-4.439 11.634 0 16.073 4.438 4.439 11.635 4.439 16.073 0z" fill="#E8505B" stroke="#263238" stroke-linecap="round" stroke-linejoin="round"/><path d="M52.417 306.353c6.478-1.061 10.87-7.173 9.809-13.651s-7.173-10.87-13.651-9.809-10.87 7.172-9.809 13.651c1.061 6.478 7.172 10.869 13.65 9.809z" fill="#fff" stroke="#263238" stroke-linecap="round" stroke-linejoin="round"/><path d="M57.135 294.616a6.672 6.672 0 00-7.972-6.542 6.667 6.667 0 00-5.24 5.241 6.668 6.668 0 002.836 6.847 6.67 6.67 0 0010.376-5.546z" fill="#E8505B" stroke="#263238" stroke-linecap="round" stroke-linejoin="round"/><path d="M154.036 294.643H25.199" stroke="#263238" stroke-linecap="round" stroke-linejoin="round"/><path opacity=".71" d="M237.905 9.927h-81.761v71.85h81.761V9.926z" fill="#fff"/><path d="M237.905 9.927h-81.761v71.85h81.761V9.926z" stroke="#263238" stroke-linecap="round" stroke-linejoin="round"/><path d="M237.905 9.927h-81.761v12.22h81.761V9.926z" fill="#E8505B" stroke="#263238" stroke-linecap="round" stroke-linejoin="round"/><path d="M197.271 65.435c9.306 0 16.849-7.544 16.849-16.849s-7.543-16.848-16.849-16.848c-9.305 0-16.848 7.543-16.848 16.848 0 9.306 7.543 16.849 16.848 16.849z" fill="#263238" stroke="#263238" stroke-linecap="round" stroke-linejoin="round"/><path d="M189.374 37.474l19.743 11.393-19.743 11.405V37.474z" fill="#fff" stroke="#263238" stroke-linecap="round" stroke-linejoin="round"/></svg>