<svg width="38" height="38" fill="none" xmlns="http://www.w3.org/2000/svg"><path d="M34.66 26.867c-1.45 0-2.673.934-3.135 2.227H29.02v-2.227c4.91 0 8.98-4.07 8.98-8.98 0-4.076-2.839-7.625-6.738-8.606-.445-3.024-3.45-5.376-6.647-4.717C22.516 1.691 19.227 0 15.66 0 9.522 0 4.527 5.069 4.527 11.207c0 .257.017.508.044.763C1.847 13.24 0 15.96 0 19c0 4.297 3.57 7.867 7.867 7.867H8.98v2.227H6.55a3.334 3.334 0 00-3.135-2.227C1.572 26.867 0 28.365 0 30.207c0 1.842 1.572 3.34 3.414 3.34 1.45 0 2.674-.934 3.135-2.227h4.658v-4.453h2.227v4.658a3.335 3.335 0 00-2.227 3.135 3.344 3.344 0 003.34 3.34 3.344 3.344 0 003.34-3.34c0-1.45-.934-2.673-2.227-3.135v-4.658h6.68v4.658a3.335 3.335 0 00-2.227 3.135 3.344 3.344 0 003.34 3.34 3.344 3.344 0 003.34-3.34c0-1.45-.934-2.673-2.227-3.135v-4.658h2.227v4.453h4.732a3.335 3.335 0 003.135 2.227 3.344 3.344 0 003.34-3.34 3.344 3.344 0 00-3.34-3.34z" fill="#FF9296"/></svg>