<svg width="60" height="60" fill="none" xmlns="http://www.w3.org/2000/svg"><path d="M35.625 12.188A5.625 5.625 0 1030 17.811a5.632 5.632 0 005.625-5.625zm-9.375 0a3.75 3.75 0 117.5 0 3.75 3.75 0 01-7.5 0z" fill="#F61920"/><path d="M29.462 27.956a.937.937 0 001.076 0 29.837 29.837 0 004.857-4.49c3.217-3.699 4.917-7.599 4.917-11.279a10.312 10.312 0 00-20.624 0c0 3.68 1.7 7.58 4.917 11.28a29.837 29.837 0 004.857 4.489zM30 3.75a8.447 8.447 0 018.438 8.438c0 6.707-6.502 12.307-8.438 13.826-1.939-1.517-8.438-7.106-8.438-13.826A8.447 8.447 0 0130 3.75zM17.546 50.576l.551-1.793 1.876.577-.552 1.793-1.875-.577zm3.75 1.15l.551-1.793 1.875.577-.55 1.792-1.876-.576zm3.75 1.157l.552-1.793 1.875.577-.551 1.793-1.876-.577z" fill="#F61920"/><path d="M54.65 23.48l-14.062-4.328-.551 1.793 11.15 3.43L30 30.895l-21.188-6.52 11.15-3.43-.55-1.793L5.348 23.48a.938.938 0 00-.662.896v25.313a.937.937 0 00.662.896l24.375 7.5c.18.055.372.055.552 0l24.375-7.5a.937.937 0 00.661-.896V24.375a.937.937 0 00-.661-.896zM6.564 25.644l22.5 6.923v23.35l-22.5-6.922v-23.35zm24.375 30.273v-23.35l22.5-6.923v23.35l-22.5 6.923z" fill="#F61920"/><path d="M41.918 48.805l1.876-.577.55 1.792-1.875.577-.55-1.792zm3.749-1.151l1.875-.577.551 1.793-1.875.576-.551-1.792zm3.753-1.157l1.875-.577.551 1.792-1.875.577-.551-1.792zM22.5 39.736a.938.938 0 00.938-.938v-4.687a.937.937 0 00-.662-.896L13.4 30.33a.937.937 0 00-1.213.896v4.688a.938.938 0 00.661.896l9.375 2.884c.09.028.183.042.276.042zm-.938-2.207l-7.5-2.308v-2.726l7.5 2.308v2.726zm26.251-1.615v-4.688a.937.937 0 00-1.214-.896l-9.375 2.885a.937.937 0 00-.661.896v4.687a.937.937 0 001.213.896l9.375-2.884a.937.937 0 00.661-.896zm-1.876-.693l-7.5 2.308v-2.726l7.5-2.308v2.726z" fill="#F61920"/></svg>