<svg width="734" height="471" fill="none" xmlns="http://www.w3.org/2000/svg"><g clip-path="url(#clip0)"><path d="M197.188 404.274c-32.778.37-62.819 3.847-95.227 4.809-16.426.444-70.219-.814-80.577 8.359-16.427 14.499 26.933 13.611 22.493 24.56-.888 2.145-4.217 3.698-6.215 5.548-3.626 3.403-2.664 8.063 1.11 11.318 16.722 14.573 77.913 10.283 103.662 10.578 148.724 1.406 297.892 3.107 445.802-1.701 31.89-1.036 63.633-2.367 95.375-3.551 14.503-.592 32.705-1.997 32.779-5.252.148-8.285-27.525.444-18.35-16.053 2.96-5.326 18.128-6.361 10.433-15.386-8.435-9.987-28.043-17.681-46.097-20.196-18.498-2.589-37.44-2.145-56.234-2.959-34.48-1.479-69.109-1.775-103.663-1.923-78.431-.296-156.863.222-235.294.962-23.308.222-46.689.591-69.997.887z" fill="#F7F7F7"/><path d="M28.265 132.238l-.152 3.326 102.672 4.664.152-3.325-102.672-4.665zM57.63 38.342l-2.663 1.998 74.545 99.267 2.663-1.998L57.63 38.342z" fill="#9EA6AD"/><path d="M432.114 206.761l.444-7.768 3.329-.222.814 5.327 1.628-.814-1.184 6.658-3.477.665-1.554-3.846z" fill="#EAC5B0"/><path d="M475.398 237.46l-24.639-2.219-12.061-28.998-6.733 2.145 6.363 40.243 38.476 6.953-1.406-18.124z" fill="#145566"/><path d="M123.197 191.67l-1.11-7.768-3.404.148-.37 5.4-1.628-.665 1.776 6.51 3.478.369 1.258-3.994z" fill="#EAC5B0"/><path d="M74.954 229.545l35.442-6.954 6.141-30.921 6.956 1.627-1.998 42.98-35.368 11.762-11.173-18.494z" fill="#145566"/><path d="M221.976 424.839c-.74-.813-1.628-1.257-2.664-1.109-.962.148-1.85.813-2.22 1.701-.296.592-.296 1.258-.37 1.924-.296 3.328-.222 11.318 4.218 12.427 1.85.518 3.404-.887 3.922-2.515.813-2.589-.296-9.617-2.886-12.428z" fill="#1A3151"/><path d="M223.604 374.24l-.222 20.418c.296 9.098-1.11 18.197-.888 27.296.074 2.072.592 4.291.074 6.362-.518 1.998-2.146 2.367-3.848 1.332-2.294-1.406-1.924-4.587-2.294-6.954-1.035-6.436-2.219-12.872-3.329-19.233-.518-3.181.592-7.546.296-10.727l-3.33-17.162 13.541-1.332z" fill="#EAC5B0"/><path d="M200.222 341.248l8.879 39.502 1.924 37.358 14.132-.296 3.774-104.453-27.303.444-1.406 27.445z" fill="#D1E7F5"/><path d="M242.176 424.1c-.814-.814-1.702-1.184-2.664-.962-.962.222-1.776.888-2.146 1.775-.222.592-.296 1.258-.296 1.924-.148 3.403.222 11.318 4.736 12.206 1.923.37 3.403-1.036 3.773-2.737.666-2.59-.74-9.543-3.403-12.206z" fill="#1A3151"/><path d="M234.776 377.125l1.184 20.418c.074 5.696.888 11.318 1.406 16.94.518 5.252-.296 10.652 2.442 15.461.888 1.479 2.59 2.515 3.774.666.961-1.406.37-3.699.591-5.327.74-6.509 1.628-12.945 2.442-19.381.37-3.181-.888-7.546-.814-10.727l2.516-17.31-13.541-.74z" fill="#EAC5B0"/><path d="M252.609 338.806l1.183 38.393-6.067 38.837-14.354.37.666-42.018-7.622-34.768-2.515-22.858 22.789-2.663 5.92 24.707z" fill="#D1E7F5"/><path d="M234.628 235.537l-24.565-.592-14.28 26.483 5.105 24.782.888 29.664 34.998.444 11.543-1.849-3.034-31.662 1.702-42.388-12.357-4.882z" fill="#EBB044"/><path d="M201.85 304.186l-1.184 4.069 5.772 4.734 4.439-1.997 1.184-4.809-3.478-1.405.148-1.11-.962-1.184-5.919 1.702z" fill="#EAC5B0"/><path d="M210.063 235.907l-29.967 32.845-4.513 13.315 24.491 25.744 7.473-5.031-15.76-21.452 15.02-11.171 3.256-34.25zm23.604 15.683l12.8 25.521 13.763 2.737 26.563-22.414-5.92-6.732-23.529 13.167-12.505-23.45-11.172 11.171z" fill="#EBB044"/><path d="M233.075 214.972c-3.7-10.727-17.906-6.732-20.866 2.885-1.924 6.214 2.886 14.351 9.397 16.126 0 .222.074.444.074.666 0 1.036.148 1.998.296 2.959.074.37 5.697-.74 6.363-.813.222-.074.444-.074.592-.296.222-.37-.148-1.406-.148-1.776-.074-.444-.074-.961-.148-1.405 3.182-1.554 5.179-4.883 5.771-8.286.518-3.402-.222-6.805-1.331-10.06z" fill="#EAC5B0"/><path d="M223.752 205.281c-.74.74-1.036 1.849-1.258 2.885-.148.592-.222 1.258-.148 1.85.518 2.441 2.959 2.293 4.809 3.106 2.294.962 4.292 2.738 5.624 4.809 1.997 3.255 1.11 7.397.296 10.948-.296 1.258-.888 3.107.074 4.217.962 1.109 3.255.961 4.439.37 1.11-.518 1.998-1.554 3.182-1.702 1.258-.222 2.959.37 3.551-.814.148-.295.148-.739.37-1.035.666-.962 2.442.148 3.404-.518.592-.444.592-1.332.37-2.071-.222-.74-.518-1.48-.37-2.22.148-.665.592-1.109.888-1.701.592-1.11.37-2.589-.444-3.551-1.554-1.775-4.514-1.479-6.215-3.107-.888-.887-1.184-2.145-1.554-3.329-.296-1.183-.74-2.441-1.628-3.255-1.11-1.035-2.812-.813-3.922-1.997-.666-.666-1.109-1.627-1.849-2.219-.962-.814-2.886-1.406-4.07-1.849a5.166 5.166 0 00-5.549 1.183z" fill="#1A3151"/><path d="M214.799 222.443c-.074 3.551 1.701 7.398.074 10.505-1.628 3.181-5.772 3.699-9.249 3.847-.592 0-7.992.665-7.992.517-.517-2.441-1.109-4.956-2.441-7.175-1.258-2.146-3.478-3.995-5.92-4.143.74-.148 1.036-.962.962-1.701-.074-.74-.444-1.406-.666-2.072-.518-1.701 0-3.772 1.258-4.956 2.59-2.441 7.325-1.405 9.619-4.217 1.406-1.701 1.258-4.216 1.924-6.361 1.406-4.069 5.919-4.957 9.249-6.806 3.552-1.923 6.881-3.033 10.951-2.367 5.031.813 8.805 5.992 6.881 10.8-2.516 6.214-12.505 5.696-14.354 11.984a7.152 7.152 0 00-.296 2.145z" fill="#1A3151"/><path d="M217.314 235.389l7.622 10.8 3.551-.296 5.993-10.948-17.166.444z" fill="#D1D6D6"/><path d="M521.542 37.275l-.44 3.3L644.314 56.99l.44-3.3-123.212-16.416zM111.173 149.594l-2.278 2.428 129.294 121.253 2.277-2.428-129.293-121.253zM523.316 45.668l-1.869 2.755L680.985 156.57l1.869-2.756L523.316 45.668z" fill="#9EA6AD"/><path d="M54.236 295.087c1.258-6.14 2.22-11.836 2.294-14.869.296-9.247 1.48-39.799 1.48-39.799l5.771-11.688h1.036-.222c.074-.961.074-1.849-.074-2.515-9.989.592-20.274 5.844-23.16 15.609-.221.814-.443 1.627-.517 2.441-.37 5.03 1.11 8.729-.296 13.76-1.258 4.364-2.368 8.803-3.256 13.241-1.184 6.436-2.294 12.946-3.182 19.308-.962 7.101-1.627 14.203-1.85 21.23 0 .814-.148 2.96-.295 5.549-.148 5.474-.074 12.723 2.22 13.019.443.074.813-.148 1.257-.296 2.96-1.405 5.254-3.329 7.917-4.956l.148-28.48 10.73-1.554zm52.83 29.22c-.592-6.066-1.184-12.132-1.923-18.124-1.48-12.058-3.478-24.042-6.956-35.73-1.332-4.438-2.811-8.877-4.291-13.241-1.85-5.326-3.7-10.727-5.476-16.053-2.293-6.658-6.141-11.318-12.874-13.611-1.184-.444-2.442-.74-3.774-.962 0 .148-.074.296-.074.444-.074.666-.296 1.331-.666 1.775l4.44.074s12.504 43.646 12.948 51.117c.148 2.885.74 9.099 1.406 15.683l6.807.962.296 25.151c.37.074.74.222 1.11.296 2.146.592 3.922 2.145 5.698 3.403 2.515 1.849 3.699 2.515 3.329-1.184z" fill="#145566"/><path d="M78.505 318.019c-.517 0-.961.074-1.48.148l-4.883 46.679 5.254 67.909h.074v-1.036h8.73l11.025-75.602-.37-34.251c-5.253-1.553-11.024-3.847-16.5-3.847h-1.85z" fill="#1A3151"/><path d="M89.752 295.679c1.036 10.43 2.22 21.675 2.22 21.675s-5.475.148-13.392.739h1.775c5.55-.074 11.247 2.294 16.5 3.847l-.296-25.151-6.807-1.11z" fill="#145566"/><path d="M77.396 432.681v3.625l9.323 4.66 4.661-4.66-4.661-4.661h-.592l-.148 1.036h-8.583z" fill="#1A3151"/><path d="M77.396 432.681h8.583l.148-1.036h-8.731v1.036zm-12.579-113.33c-.222 0-.444.074-.666.074-5.55 1.184-9.175 1.627-11.469 1.775-2.22.592-4.44 1.332-6.511 2.294-1.036.517-1.998 1.035-2.886 1.627v5.918l10.581 100.606h8.657v1.036h.074l9.545-67.465.074-.37-.222-2.811-7.177-42.684z" fill="#1A3151"/><path d="M52.682 321.2c-3.773.222-4.217-.518-4.217-.518s3.403-13.685 5.771-25.595l-10.803 1.554-.148 28.48c.888-.592 1.85-1.11 2.886-1.627 2.072-.962 4.291-1.702 6.511-2.294z" fill="#145566"/><path d="M64.817 319.351l7.103 42.684.222 2.811 4.884-46.679c-3.7.296-7.844.666-12.21 1.184zM53.866 431.645H53.2l-4.661 4.661 4.661 4.66 9.323-4.66v-3.625H53.94l-.074-1.036z" fill="#1A3151"/><path d="M53.866 431.645l.074 1.036h8.583v-1.036h-8.657z" fill="#1A3151"/><path d="M89.752 295.679c-.666-6.584-1.258-12.798-1.406-15.683-.444-7.545-12.948-51.117-12.948-51.117l-4.44-.074-.148.148a1.548 1.548 0 01-.444.296c-.37.148-.74.074-1.11 0-1.48-.148-2.96-.37-4.365-.518h-1.036l-5.845 11.688s-1.184 30.552-1.48 39.799c-.074 3.107-1.036 8.729-2.294 14.869-2.368 11.91-5.771 25.595-5.771 25.595s.444.666 4.217.518c2.368-.148 5.92-.592 11.469-1.775.222 0 .444-.074.666-.074 4.366-.518 8.509-.888 12.209-1.184.518-.074 1.035-.074 1.48-.148 7.917-.591 13.392-.739 13.392-.739s-1.184-11.171-2.146-21.601z" fill="#fff"/><path d="M71.698 226.586c.592-2.441 3.256-3.551 4.736-5.77 1.628-2.441 2.516-5.326 2.885-8.285v-.148c-.222.148-.444.222-.666.296-.296-1.184.296-2.367.518-3.551.074-.296.074-.592.074-.888a24.03 24.03 0 01-5.77-1.849c-3.183-1.406-9.472-2.885-12.801-1.258-2.664 1.332-1.85 5.474-1.702 8.137 0 .666.074 1.406-.074 1.998-.148.666-.592 1.109-.814 1.701.296 1.036.814 1.998 1.554 2.885 2.145 2.367 4.291 3.551 4.809 6.288 2.516-.148 4.957 0 7.251.444z" fill="#EAC5B0"/><path d="M64.595 228.731h.222l6.141.074c.37-.444.592-1.183.666-1.775 0-.148.074-.296.074-.444-2.293-.444-4.735-.518-7.251-.37.148.666.222 1.48.148 2.515z" fill="#EAC5B0"/><path d="M69.182 229.249c.37.074.74.074 1.11 0 .148-.074.37-.148.444-.296l.148-.148-6.141-.074c1.554.222 2.96.37 4.44.518z" fill="#EAC5B0"/><path d="M79.393 208.24c.296 1.332.148 2.811-.074 4.143 1.48-.814 2.442-2.367 3.034-3.995-.888.074-1.924 0-2.96-.148z" fill="#1A3151"/><path d="M79.393 208.24h-.148c0 .296 0 .592-.074.888-.296 1.184-.814 2.367-.518 3.551.222-.074.444-.148.666-.296.222-1.406.37-2.811.074-4.143z" fill="#1A3151"/><path d="M57.936 208.906c.074-1.036.074-2.145.518-3.107.813-1.701 2.59-2.589 4.365-3.107 4.514-1.405 9.62-1.036 13.54 1.48 1.037.665 1.998 1.553 2.59 2.663.074.148.148.37.222.518-.296-1.258-.888-2.59-.666-3.477.296-1.332 2.146-1.628 3.182-.888.74.518 1.184 1.479 1.258 2.441.074.962-.148 1.85-.444 2.737 0 .074-.074.148-.074.222a6.244 6.244 0 001.776-.444c2.811-1.257 5.105-6.14 5.031-9.173-.074-1.405-.592-2.663-1.85-3.55-1.11-.74-2.367-1.332-3.033-2.516-.518-.887-.592-2.071-1.11-2.959-.962-1.627-2.96-2.145-4.662-2.737-4.365-1.405-6.733-3.033-11.32-1.257-3.256 1.257-7.547 1.479-10.581 3.329-1.258.813-2.368 1.997-3.256 3.403-3.107 4.808-3.847 11.614-1.85 16.644.444 1.11 1.036 2.145 1.628 3.181 1.258 1.997 2.516 4.438 4.662 5.4 0-.222.074-.444.222-.666-.74-2.589-.296-5.4-.148-8.137z" fill="#1A3151"/><path d="M58.971 213.271c-.147-2.664-.961-6.806 1.702-8.138 3.33-1.627 9.62-.148 12.801 1.258 1.554.666 3.7 1.479 5.771 1.849 0-.296-.074-.518-.074-.814-.074-.147-.148-.369-.222-.517-.592-1.11-1.553-1.998-2.59-2.663-3.92-2.516-9.1-2.885-13.54-1.48-1.776.518-3.552 1.48-4.365 3.107-.444.962-.518 1.997-.518 3.107-.074 2.663-.592 5.548.148 8.063.296-.592.666-1.035.814-1.701.147-.666.147-1.406.073-2.071zm23.974-7.916c-.074-.961-.518-1.849-1.258-2.441-1.036-.74-2.885-.444-3.181.888-.222.961.37 2.219.665 3.477.074.295.148.517.222.813 1.036.148 2.072.222 2.96.148 0-.074.074-.148.074-.222a5.21 5.21 0 00.518-2.663z" fill="#1A3151"/><path d="M79.171 207.353c.074.295.074.517.074.813h.148c0-.222-.148-.518-.222-.813z" fill="#1A3151"/><path d="M634.407 239.014l11.839-2.959 11.246 2.219-10.211 7.841-12.874-7.101z" fill="#EAC5B0"/><path d="M639.66 218.301c-1.923 3.107-.962 7.101-.148 10.504.37 1.406.962 3.329-.37 4.439-1.479 1.183-3.995.074-4.735-1.406-.518-1.035-.592-2.219-.592-3.403-.074-5.178-.148-12.353 1.85-17.088 1.554-3.847 8.583-9.247 12.8-5.252.74.74 1.036 1.775 1.332 2.737.148.592.222 1.184.148 1.775-.518 2.368-2.886 2.22-4.661 3.033a11.735 11.735 0 00-5.624 4.661z" fill="#1A3151"/><path d="M644.1 233.022c-3.182-1.48-5.254-4.661-5.846-7.916-.591-3.254.074-6.583 1.11-9.69 3.478-10.357 17.462-6.584 20.496 2.589 2.664 8.063-6.511 19.307-15.76 15.017z" fill="#EAC5B0"/><path d="M657.714 222.813c-.296 1.332-.074 2.811-.296 4.217-.444 2.515-1.923 5.4-1.775 7.841 2.515.444 5.919-.148 8.287-1.257 2.367-1.11 2.811-3.773 3.995-6.14 1.11-2.22 2.294-4.365 2.96-6.732 3.33-13.02-7.251-24.042-20.348-21.823-4.957.814-8.583 5.844-6.585 10.431 2.146 4.956 9.545 5.474 12.653 9.617.739.887 1.035 2.293 1.109 3.846z" fill="#1A3151"/><path d="M644.1 232.134c-.074.962-.222 1.923-.296 2.959-.074.444-.444 1.628-.222 2.071.148.222.37.296.592.296.592.148 6.215 1.11 6.289.74.148-1.11.296-2.293.296-3.403 0-.888.37-2.515.148-3.329-1.11.444-2.22.592-3.33.592-1.109 0-2.293 0-3.403-.074 0 0-.074.074-.074.148zm-41.214 82.408l-3.847-.813-3.922 5.548 2.22 3.92 4.513.74 1.702-5.548-.666-3.847z" fill="#EAC5B0"/><path d="M639.364 245.228l-14.28.813-9.101 38.615-17.018 28.111 4.735 5.474 22.494-22.636 13.17-50.377z" fill="#9EA6AD"/><path d="M633.519 428.612c.666-1.11 1.554-1.775 2.664-1.849a3.377 3.377 0 012.885 1.331c.444.592.666 1.332.888 1.998 1.11 3.624 3.034 12.353-1.702 14.647-1.997.961-4.069-.148-5.031-1.85-1.406-2.589-1.85-10.578.296-14.277z" fill="#1A3151"/><path d="M642.102 372.909l-.592 22.932c.148 10.209-1.628 20.417-1.48 30.626 0 2.367.592 4.808 0 7.175-.592 2.294-2.516 2.664-4.439 1.48-2.59-1.554-2.072-5.178-2.516-7.841-1.11-7.25-2.368-14.426-3.478-21.675-.518-3.551.814-8.507.592-12.058l-3.477-19.308 15.39-1.331z" fill="#EAC5B0"/><path d="M649.723 429.5c.814-.962 1.85-1.554 2.96-1.406 1.11.148 2.146.814 2.663 1.776.37.666.444 1.405.518 2.145.518 3.773.888 12.65-4.217 14.203-2.146.666-3.996-.813-4.662-2.663-.888-2.811 0-10.8 2.738-14.055z" fill="#1A3151"/><path d="M645.358 372.835l1.332 22.932c.147 10.209 2.219 20.343 2.441 30.552 0 2.367-.444 4.882.222 7.176.666 2.219 2.59 2.589 4.514 1.331 2.515-1.627 1.924-5.252 2.22-7.915.887-7.25 1.923-14.499 2.811-21.749.444-3.551-1.036-8.433-.962-12.058l2.886-19.381-15.464-.888z" fill="#EAC5B0"/><path d="M656.974 236.351l-9.693 5.178-10.95-3.995-11.247 8.507s1.184 35.361.74 48.454c-.444 13.094-1.258 23.746-2.442 42.906-1.258 21.083 4.144 46.382 4.144 46.382l43.729-.666s8.879-47.935 4.291-60.363c-4.587-12.428-1.849-24.782-1.997-34.991-.148-10.208-4.44-44.237-4.44-44.237l-12.135-7.175z" fill="#9EA6AD"/><path d="M698.262 206.021l4.588 1.553 5.697-6.436-2.072-5.326-5.401-1.627-2.96 6.806.148 5.03z" fill="#EAC5B0"/><path d="M659.712 257.064l30.929-9.987 15.538-41.278-9.249-2.293-18.276 31.365-18.868 3.995-.074 18.198zm-272.769-89.417L238.375 270.604l1.897 2.736L388.84 170.383l-1.897-2.736z" fill="#9EA6AD"/><path d="M234.548 71.97l-1.755 2.829 154.24 95.648 1.755-2.829-154.24-95.648z" fill="#9EA6AD"/><path d="M101.219 140.178l-.314 3.314 286.828 27.212.314-3.313-286.828-27.213z" fill="#9EA6AD"/><path d="M521.241 37.68L382.523 167.827l2.278 2.428L523.519 40.108l-2.278-2.428z" fill="#9EA6AD"/><path d="M384.559 167.625l-1.817 2.79 183.536 119.49 1.817-2.79-183.536-119.49zm303.971-14.068l-300.627 9.807.109 3.327 300.626-9.807-.108-3.327z" fill="#9EA6AD"/><path d="M375.731 246.115c50.1 0 90.714-40.604 90.714-90.693s-40.614-90.694-90.714-90.694-90.714 40.605-90.714 90.694c0 50.089 40.614 90.693 90.714 90.693z" fill="#FC595E"/><path d="M230.411 105.71c23.456 0 42.471-19.01 42.471-42.461 0-23.451-19.015-42.462-42.471-42.462-23.456 0-42.472 19.01-42.472 42.462 0 23.45 19.016 42.461 42.472 42.461z" fill="#823ABA"/><path d="M81.243 138.556c0-26.632 21.606-48.306 48.317-48.306 26.637 0 50.758 21.601 50.758 48.306 0 26.631-24.121 48.305-50.758 48.305-26.637 0-48.317-21.6-48.317-48.305z" fill="#2D2D2D"/><path d="M282.861 280.752c4.836-20.476-7.847-40.996-28.328-45.831-20.482-4.835-41.005 7.845-45.842 28.322-4.836 20.476 7.847 40.996 28.328 45.831 20.481 4.835 41.005-7.845 45.842-28.322z" fill="#3AABBA"/><path d="M521.273 84.184c23.252 0 42.102-18.845 42.102-42.092S544.525 0 521.273 0c-23.252 0-42.101 18.845-42.101 42.092s18.849 42.092 42.101 42.092z" fill="#4C1466"/><path d="M599.644 316.112c17.915-17.911 17.915-46.95 0-64.861s-46.961-17.911-64.876 0c-17.916 17.911-17.916 46.95 0 64.861 17.915 17.911 46.961 17.911 64.876 0z" fill="#1A3051"/><path d="M718.76 192.12c20.342-20.338 20.342-53.312 0-73.65-20.343-20.337-53.324-20.337-73.666 0-20.343 20.338-20.343 53.312 0 73.65 20.342 20.338 53.323 20.338 73.666 0z" fill="#A8CCF8"/><path d="M668.19 65.117c5.427-13.098-.794-28.114-13.895-33.54-13.101-5.425-28.121.795-33.547 13.893-5.427 13.098.794 28.114 13.895 33.54 13.101 5.425 28.121-.795 33.547-13.893z" fill="#CBB5D6"/><path d="M58.75 65.024c14.18 0 25.675-11.492 25.675-25.67 0-14.176-11.495-25.669-25.675-25.669-14.18 0-25.675 11.493-25.675 25.67 0 14.177 11.495 25.67 25.675 25.67z" fill="#EBB044"/><path d="M28.19 162.08c15.57 0 28.192-12.619 28.192-28.185 0-15.566-12.622-28.184-28.191-28.184C12.62 105.711 0 118.329 0 133.895s12.621 28.185 28.19 28.185z" fill="#D6B5B5"/><path d="M137.382 272.508c3.991-16.898-6.476-33.831-23.378-37.822-16.902-3.99-33.839 6.474-37.83 23.373-3.991 16.898 6.475 33.831 23.377 37.821 16.902 3.99 33.84-6.474 37.831-23.372z" fill="#D1E7F5"/><path d="M68.442 273.486l4.958-.296 2.812-3.329 1.035.222-.221 1.258 3.107-2.071 3.034.296 2.072 3.55-.666 4.217-3.7 1.627-4.81-.591-6.807.739-.814-5.622z" fill="#EAC5B0"/><path d="M71.032 271.119l-27.08.74 5.475-41.648-18.498 18.272-2.738 38.393 9.915 5.4 36.996-11.762-4.07-9.395z" fill="#145566"/><path d="M472.365 318.611v11.17l-14.873 48.454 3.7 50.377-9.323 1.85-14.873-61.474.518-18.124 6.956-36.913 27.895 4.66z" fill="#1A3151"/><path d="M460.6 331.853l14.946 102.529h6.807l4.292-55.925 9.323-55.925-35.368 9.321z" fill="#1A3151"/><path d="M453.127 429.5l-7.104 7.545 1.998 3.773 14.725-7.028-2.738-5.548-6.881 1.258zm22.567 3.403l-8.805 5.548 1.036 4.216 15.982-3.181-1.184-6.065-7.029-.518z" fill="#3ABABA"/><path d="M472.512 207.13c4.144 4.365 11.691 4.513 15.243 9.469 2.294 3.181 2.22 7.768.518 11.466-.814 1.702-1.998 3.255-3.626 4.217-1.036.592-2.22.962-3.403 1.11-1.554.222-3.182.148-4.736-.148-.296 1.405-.37 2.811-.37 4.29-2.812-1.109-6.437-.148-9.249-1.257.592-1.628 2.146-5.179 2.812-6.806a12.685 12.685 0 01-1.554-1.923c-2.812-4.291-2.886-10.209-.296-14.795 1.184-2.146 2.886-3.921 4.661-5.623z" fill="#EAC5B0"/><path d="M472.365 209.498l15.316 10.948-6.955 12.946 6.733.443 13.688-19.011-19.016-18.198-12.948-2.737-4.218 5.252 2.96 11.91 4.44-1.553z" fill="#1A3151"/><path d="M284.425 259.357l1.998-3.699-4.588-5.844-4.809.962-2.22 4.438 3.108 2.072-.37 1.035.666 1.406 6.215-.37zm129.856-36.914l-2.886-7.471 3.108-1.332 3.107 4.661 1.184-1.332 1.702 6.658-3.034 1.849-3.181-3.033z" fill="#EAC5B0"/><path d="M480.652 246.633l-32.927 3.107-27.007-28.554-5.919 3.994 21.753 37.802 44.1 7.323v-23.672z" fill="#145566"/><path d="M455.346 235.537l22.198-2.219s17.832 20.787 26.563 51.191c8.657 30.403-10.655 73.087-10.655 73.087s-60.007-12.28-69.848-14.203l19.386-60.808 12.356-47.048z" fill="#145566"/></g><defs><clipPath id="clip0"><path fill="#fff" d="M0 0h734v471H0z"/></clipPath></defs></svg>