<svg width="50" height="53" fill="none" xmlns="http://www.w3.org/2000/svg"><path d="M47.425 4.926c.875 0 1.586-.711 1.586-1.586V1.586C49.011.712 48.3 0 47.425 0H1.586C.712 0 0 .712 0 1.586V3.34c0 .875.712 1.586 1.586 1.586h.11v4.48a.768.768 0 101.535 0v-4.48h42.55v30.68H3.23v-23.13a.768.768 0 10-1.535 0v23.13h-.11c-.874 0-1.586.712-1.586 1.587v1.754c0 .875.712 1.586 1.587 1.586h4.95l-2.807 9.81a1.602 1.602 0 00.263 1.416 1.6 1.6 0 001.29.643h3.323c.717 0 1.356-.481 1.553-1.17l.636-2.22h10.4v1.775c0 .89.724 1.615 1.615 1.615H26.2c.89 0 1.616-.724 1.616-1.615V49.01h10.4l.635 2.22c.197.69.836 1.171 1.553 1.171h3.323a1.6 1.6 0 001.29-.643c.308-.408.404-.925.263-1.417l-2.807-9.809h4.95c.875 0 1.587-.711 1.587-1.586v-1.754c0-.874-.712-1.586-1.586-1.586h-.11V4.927h.11zM8.606 50.867H5.283c-.01 0-.04 0-.064-.032a.076.076 0 01-.013-.07L8.13 40.553h3.49L8.683 50.809a.08.08 0 01-.077.058zm17.675-.08a.08.08 0 01-.08.08h-3.39a.08.08 0 01-.081-.08V49.01h3.551v1.776zm-15.047-3.311l.531-1.856h25.48l.532 1.856H11.234zm15.047-6.923v3.532H22.73v-3.532h3.551zm17.511 10.282a.076.076 0 01-.064.032h-3.323a.08.08 0 01-.077-.058l-2.935-10.256h3.49l2.922 10.212a.074.074 0 01-.013.07zm-6.985-6.75h-8.99v-3.552h7.973l1.017 3.552zm10.669-6.892v1.754a.051.051 0 01-.051.051H17.78a.768.768 0 100 1.535h3.414v3.552h-8.99l1.016-3.552h1.49a.768.768 0 100-1.535H1.586a.051.051 0 01-.05-.051v-1.754a.05.05 0 01.05-.05h45.839a.05.05 0 01.051.05zM1.586 3.391a.051.051 0 01-.05-.051V1.586a.05.05 0 01.05-.05h45.839a.05.05 0 01.05.05V3.34a.051.051 0 01-.05.051H1.586z" fill="#F61920"/><path d="M10.174 31.288a2.466 2.466 0 002.463 2.463 2.466 2.466 0 002.463-2.463 2.466 2.466 0 00-2.463-2.464 2.466 2.466 0 00-2.463 2.463zm2.463-.928a.929.929 0 010 1.855.929.929 0 010-1.856zm23.738-18.592a2.466 2.466 0 002.463-2.463 2.466 2.466 0 00-2.463-2.463 2.466 2.466 0 00-2.464 2.463 2.466 2.466 0 002.464 2.463zm0-3.391a.929.929 0 010 1.856.929.929 0 010-1.856zM11.869 26.201a.768.768 0 101.535 0v-1.695a.768.768 0 10-1.535 0V26.2zm.768-4.319a.768.768 0 00.767-.767v-1.696a.768.768 0 10-1.535 0v1.696c0 .424.344.767.768.767zm-2.239-5.312a.766.766 0 001.086 0l1.153-1.152 1.152 1.152a.765.765 0 001.086 0c.3-.3.3-.786 0-1.085l-1.152-1.153 1.152-1.153a.767.767 0 10-1.085-1.085l-1.153 1.153-1.153-1.153a.768.768 0 10-1.085 1.085l1.152 1.153-1.152 1.153c-.3.3-.3.786 0 1.085zm14.65 6.545c-.3-.3-.786-.3-1.085 0l-1.153 1.153-1.153-1.153a.768.768 0 00-1.085 1.086l1.152 1.152-1.152 1.153a.767.767 0 101.085 1.086l1.153-1.153 1.153 1.153a.765.765 0 001.085 0c.3-.3.3-.786 0-1.086l-1.152-1.152 1.152-1.153c.3-.3.3-.786 0-1.086zm13.565 0c-.3-.3-.786-.3-1.086 0l-1.152 1.153-1.153-1.153a.768.768 0 00-1.086 1.086l1.153 1.152-1.153 1.153a.768.768 0 001.086 1.086l1.153-1.153 1.153 1.153a.765.765 0 001.085 0c.3-.3.3-.786 0-1.086l-1.152-1.152 1.152-1.153c.3-.3.3-.786 0-1.086zm-22.585-4.464a.768.768 0 100 1.535h20.347a.767.767 0 00.767-.767v-3.274l.386.385a.766.766 0 001.085 0c.3-.3.3-.786 0-1.086l-1.695-1.695c-.3-.3-.786-.3-1.086 0l-1.696 1.695a.767.767 0 101.086 1.086l.385-.386v2.507h-19.58z" fill="#F61920"/></svg>