<svg width="38" height="38" fill="none" xmlns="http://www.w3.org/2000/svg"><g clip-path="url(#clip0)"><path d="M36.848 15.722h-3.49a14.694 14.694 0 00-1.528-3.845l2.738-2.738c.45-.45.45-1.18 0-1.63L30.98 3.92a1.152 1.152 0 00-1.629 0l-2.664 2.665a14.703 14.703 0 00-3.872-1.66v-3.76c0-.636-.516-1.152-1.152-1.152h-5.076c-.636 0-1.152.516-1.152 1.152v3.692a14.68 14.68 0 00-4 1.643L9.063 4.127c-.45-.45-1.18-.45-1.63 0L3.845 7.716c-.45.45-.45 1.179 0 1.629l2.389 2.389a14.69 14.69 0 00-1.615 3.988H1.152c-.636 0-1.152.516-1.152 1.152v5.076c0 .636.516 1.152 1.152 1.152h3.57c.37 1.356.926 2.634 1.641 3.806l-2.57 2.57c-.45.45-.45 1.18 0 1.63l3.588 3.589c.45.45 1.18.45 1.63 0l2.645-2.646a14.692 14.692 0 003.628 1.477v3.307c0 .636.516 1.152 1.152 1.152h5.076c.636 0 1.152-.516 1.152-1.152v-3.3a14.692 14.692 0 003.802-1.568l2.755 2.755c.45.45 1.18.45 1.63 0l3.589-3.588c.45-.45.45-1.18 0-1.63l-2.74-2.74a14.695 14.695 0 001.555-3.662h3.593c.636 0 1.152-.516 1.152-1.152v-5.076c0-.636-.516-1.152-1.152-1.152zm-27.939-.054a1.183 1.183 0 011.927-1.368 9.434 9.434 0 018.127-4.676 9.371 9.371 0 018.95 6.52 1.183 1.183 0 11-2.254.724 7.012 7.012 0 00-6.696-4.877 7.057 7.057 0 00-5.845 3.123 1.183 1.183 0 01.312 2.329l-2.096.53c-.461.118-1.016-.068-1.289-.514l-1.136-1.79zm19.816 8.297a1.183 1.183 0 01-1.561-.264 9.434 9.434 0 01-8.127 4.675 9.371 9.371 0 01-8.95-6.519 1.183 1.183 0 112.254-.725 7.012 7.012 0 006.696 4.877 7.057 7.057 0 005.845-3.122h-.023a1.184 1.184 0 01-.289-2.33l2.096-.53c.46-.115 1.032.068 1.3.532l1.125 1.773c.35.552.186 1.283-.366 1.633z" fill="#FF9296"/></g><defs><clipPath id="clip0"><path fill="#fff" d="M0 0h38v38H0z"/></clipPath></defs></svg>