<svg width="38" height="38" fill="none" xmlns="http://www.w3.org/2000/svg"><g clip-path="url(#clip0)" fill="#FF9296"><path d="M16.177.845h5.455V7.42h-5.455V.845zm0 9.107h5.455v3.373h-5.455V9.952z"/><path d="M2.025 9.952v12.07a3.826 3.826 0 012.107 1.173L8.31 27.73c.01.012.022.023.033.034v-.922c0-1.941 1.58-3.52 3.52-3.52h5.85c.727.082 2.651-1.019 3.314-1.282a10.026 10.026 0 018.794.142l1.686.856c.473-1.516 1.828-2.615 3.423-2.615h1V9.952H24.163v4.639c0 .699-.567 1.265-1.266 1.265h-7.985a1.265 1.265 0 01-1.266-1.265V9.95H2.025zM24.163 7.42H35.93V2.6c0-.97-.653-1.755-1.459-1.755H24.163V7.42zM34.93 22.954c-.59 0-1.071.567-1.071 1.264V35.53c0 .696.48 1.263 1.07 1.263h2c.59 0 1.071-.567 1.071-1.263V24.218c0-.697-.48-1.264-1.071-1.264h-2zM13.646.845H3.236c-.669 0-1.211.653-1.211 1.458v5.118h11.621V.845z"/><path d="M2.27 24.91c-1.118-1.118-3.021.343-1.958 1.644l5.7 6.91a10.118 10.118 0 007.83 3.691h6.448c2.394 0 4.789-.28 7.118-.835l3.92-.938v-9.596l-2.65-1.347a7.507 7.507 0 00-6.584-.104l-2.254 1.048a5.08 5.08 0 01-2.126.47h-5.851a.99.99 0 00-.989.988v1.918H22.24a1.266 1.266 0 010 2.53H10.655c-1.468.018-3.155-.67-4.206-1.844L2.27 24.91z"/></g><defs><clipPath id="clip0"><path fill="#fff" d="M0 0h38v38H0z"/></clipPath></defs></svg>