<svg width="50" height="50" fill="none" xmlns="http://www.w3.org/2000/svg"><g clip-path="url(#clip0)" fill="#FF797D"><path d="M41.655 27.728L34.19 16.024a3.323 3.323 0 001.78-2.94A3.325 3.325 0 0033.88 10l2.262-7.907a.977.977 0 00-.248-.959 3.863 3.863 0 00-5.457 0c-.36.36-.838.558-1.347.558s-.987-.198-1.35-.56l-.004-.005a3.866 3.866 0 00-5.448-.009l-.028.028a1.909 1.909 0 01-2.69-.005l-.007-.007a3.863 3.863 0 00-5.457 0 .977.977 0 00-.248.96l2.267 7.905a3.325 3.325 0 00-2.096 3.085c0 1.275.724 2.385 1.782 2.94L8.345 27.729c-2.888 4.527-3.071 10.042-.49 14.751 2.582 4.71 7.33 7.52 12.7 7.52h8.89c5.37 0 10.118-2.81 12.7-7.52 2.581-4.709 2.398-10.224-.49-14.751zM18.182 2.515l.007.007a3.866 3.866 0 005.448.01l.028-.029a1.91 1.91 0 012.692.007l.005.005a3.863 3.863 0 005.456 0 1.909 1.909 0 012.264-.323l-2.165 7.571H18.09l-2.171-7.571a1.909 1.909 0 012.264.323zm22.25 39.025c-2.233 4.074-6.34 6.507-10.987 6.507h-8.89c-4.646 0-8.753-2.432-10.987-6.507-2.233-4.074-2.075-8.844.424-12.762l7.893-12.374h2.72a.977.977 0 100-1.953H17.35a1.369 1.369 0 01-1.367-1.367 1.37 1.37 0 011.367-1.368h15.3a1.369 1.369 0 010 2.735h-3.255a.977.977 0 100 1.953h2.72l7.894 12.374c2.498 3.917 2.657 8.688.423 12.762z"/><path d="M26.722 31.894a42.159 42.159 0 01-.745-.27v-4.426c.662.194 1.104.51 1.123.524a.977.977 0 001.175-1.56 5.963 5.963 0 00-2.298-.973v-.972a.977.977 0 10-1.954 0v.965a5.06 5.06 0 00-.503.123c-1.374.413-2.402 1.589-2.681 3.068-.255 1.35.178 2.653 1.13 3.4.516.405 1.161.774 2.054 1.167v5.664c-.769-.048-1.283-.224-2.14-.785a.977.977 0 10-1.07 1.635c1.25.818 2.097 1.05 3.21 1.105v1.01a.977.977 0 101.954 0v-1.112c2.091-.458 3.314-2.203 3.588-3.836.36-2.134-.757-3.99-2.843-4.727zm-3.548-1.659c-.376-.294-.535-.869-.416-1.5.11-.58.5-1.28 1.265-1.539v3.577a5.85 5.85 0 01-.85-.538zm4.465 6.063c-.14.836-.705 1.723-1.662 2.115v-4.71l.094.033c1.75.619 1.643 2.117 1.568 2.562zM25 16.404a.984.984 0 00.69-.286.984.984 0 00.287-.69.984.984 0 00-.287-.691.984.984 0 00-.69-.286.984.984 0 00-.69.286.984.984 0 00-.287.69c0 .257.105.51.287.691a.984.984 0 00.69.286z"/></g><defs><clipPath id="clip0"><path fill="#fff" d="M0 0h50v50H0z"/></clipPath></defs></svg>