<svg width="50" height="45" fill="none" xmlns="http://www.w3.org/2000/svg"><path d="M47.386 22.826l-.215.948H27.993l-.236-1.044a.825.825 0 00-.796-.654h-4.085c0-2.341-1.833-4.246-4.085-4.246H16.34v-.849c0-2.607-1.422-4.872-3.5-6.01a5.996 5.996 0 002.683-5.028C15.523 2.666 12.957 0 9.804 0 6.651 0 4.085 2.666 4.085 5.943a5.996 5.996 0 002.683 5.029c-2.078 1.137-3.5 3.402-3.5 6.01v7.677c0 1.142.432 2.21 1.198 3.002l-1.164 6.042L.07 41.258a.868.868 0 00.326 1.073l4.085 2.548a.79.79 0 00.649.087.826.826 0 00.502-.435l4.085-8.491a.895.895 0 00.07-.212l.639-3.306.275.223 2.389 11.584c.08.39.413.671.799.671h4.902c.242 0 .47-.111.626-.303a.87.87 0 00.179-.693L17.145 29.57a.875.875 0 00-.074-.232l-2.677-5.564h11.92l3.098 13.684v3.297c0 1.404 1.1 2.547 2.45 2.547h.968c.338.986 1.237 1.698 2.3 1.698 1.064 0 1.963-.712 2.301-1.698h3.57c.338.986 1.237 1.698 2.3 1.698 1.352 0 2.451-1.143 2.451-2.547 0-1.405-1.1-2.547-2.45-2.547-1.064 0-1.963.712-2.301 1.698h-3.57c-.338-.986-1.236-1.698-2.3-1.698-1.064 0-1.963.712-2.3 1.698h-.968c-.451 0-.817-.382-.817-.85v-2.546h13.889a.824.824 0 00.795-.655l3.268-14.434a.914.914 0 00.022-.195v-.848h-1.634v.75zM5.719 5.943c0-2.34 1.833-4.245 4.085-4.245s4.085 1.905 4.085 4.245c0 2.341-1.833 4.246-4.085 4.246S5.719 8.284 5.719 5.943zm2.489 29.439l-3.642 7.57-2.708-1.69 2.975-6.954a.893.893 0 00.054-.178L5.9 28.864l3.085 2.493-.777 4.025zm4.047-13.306c-.451 0-.817-.382-.817-.85v-5.094H9.804v5.094c0 1.405 1.1 2.548 2.451 2.548h.312l2.989 6.212 2.261 13.316H14.55l-2.313-11.215a.854.854 0 00-.297-.493l-6.09-4.923a2.605 2.605 0 01-.947-2.012v-7.678c0-2.81 2.199-5.094 4.902-5.094 2.703 0 4.902 2.285 4.902 5.094v1.698c0 .469.365.85.817.85h3.268c1.351 0 2.45 1.142 2.45 2.547h-8.986zm31.046 19.528c.45 0 .817.381.817.849 0 .468-.366.849-.817.849-.451 0-.817-.381-.817-.85 0-.467.366-.848.817-.848zm-8.17 0c.45 0 .817.381.817.849 0 .468-.366.849-.817.849-.451 0-.817-.381-.817-.85 0-.467.366-.848.817-.848zm11.656-16.132l-.577 2.547H28.953l-.576-2.547h18.41zm-17.449 4.245h16.487l-.577 2.547H29.915l-.577-2.547zm1.538 6.792l-.577-2.547h14.565l-.576 2.547H30.876z" fill="#80B4F4"/><path d="M42.839 11.736v-1.85c0-.51-.4-.924-.895-.924h-4.476c-.495 0-.895.414-.895.924v5.548h-3.58c-.496 0-.896.414-.896.925v3.698h-2.685v1.85H50v-1.85h-2.685V12.66c0-.51-.4-.924-.895-.924h-3.581zm-4.476-.925h2.686v9.246h-2.686v-9.246zm-4.475 6.472h2.685v2.774h-2.685v-2.774zm8.951 2.774v-6.472h2.685v6.472H42.84z" fill="#80B4F4"/></svg>