<svg width="38" height="38" fill="none" xmlns="http://www.w3.org/2000/svg"><g clip-path="url(#clip0)" fill="#FF9296"><path d="M12.32 24.567h20.114c.498 0 .935-.33 1.07-.808l4.453-15.586a1.113 1.113 0 00-1.07-1.42H9.75l-.796-3.58A1.113 1.113 0 007.867 2.3H1.113a1.113 1.113 0 100 2.226h5.86l4.02 18.091A3.342 3.342 0 008.98 25.68a3.344 3.344 0 003.34 3.34h20.114a1.112 1.112 0 100-2.227H12.32a1.115 1.115 0 01-1.113-1.113c0-.614.5-1.113 1.113-1.113zm-1.113 7.793a3.344 3.344 0 003.34 3.34 3.344 3.344 0 003.34-3.34 3.344 3.344 0 00-3.34-3.34 3.344 3.344 0 00-3.34 3.34zm15.66 0a3.344 3.344 0 003.34 3.34 3.343 3.343 0 003.34-3.34 3.343 3.343 0 00-3.34-3.34 3.344 3.344 0 00-3.34 3.34z"/></g><defs><clipPath id="clip0"><path fill="#fff" d="M0 0h38v38H0z"/></clipPath></defs></svg>