<svg version="1.0" xmlns="http://www.w3.org/2000/svg" width="1698.667" height="449.333" viewBox="0 0 1274 337"><path d="M130 14.1c-9.6 5.6-35.9 20.7-58.5 33.7-22.6 12.9-42.8 24.5-45 25.8-2.2 1.3-7.7 4.5-12.2 7.1L6 85.4v83.4l2.4 1.6c1.4.8 4 2.4 5.8 3.5 1.8 1 13.7 7.8 26.3 15.1 12.7 7.3 24.5 14.1 26.3 15.1 1.8 1.1 4.4 2.7 5.8 3.6l2.5 1.6-8.2 4.8c-4.5 2.7-8.3 4.9-8.5 4.9-.1 0-3.1 1.7-6.6 3.8-9.2 5.4-10.8 6.3-27.3 15.7-8.2 4.8-15.9 9.3-17 10.1-2 1.5-2 1.5.5 3.4 1.4 1 4.1 2.8 6 3.8 3.2 1.8 45.5 26.1 52.5 30.2 1.7 1 13.1 7.6 25.5 14.7 12.4 7.2 30 17.3 39.2 22.7 9.2 5.3 17.2 9.6 17.8 9.6.6 0 8.6-4.3 17.8-9.6 9.2-5.4 26.8-15.5 39.2-22.7 12.4-7.1 23.9-13.7 25.5-14.7 2.6-1.5 42.8-24.7 52.3-30.1 1.8-1.1 4.4-2.7 5.8-3.5l2.4-1.6v-41.7c0-46.8.9-41.3-7.4-46.1-3.5-2-40.3-23.2-45.3-26.1-1.8-1.1-4.8-2.7-6.5-3.8-1.8-1-4.8-2.7-6.6-3.8l-3.3-2 2.5-1.6c1.4-.9 4-2.5 5.8-3.5 1.8-1.1 13.7-7.9 26.3-15.2 12.7-7.3 24.6-14.1 26.5-15.2 4.7-2.6 8.6-5.6 8-6.1-.6-.6-14.8-8.8-66-38.2-22.3-12.8-48.4-27.8-58-33.4C158.4 8.6 149.8 4 149 4c-.8 0-9.4 4.6-19 10.1zm21.6 74.8c.5.5 2.5 1.8 4.4 2.9 1.9 1.1 13.9 7.9 26.5 15.2 12.7 7.3 24.9 14.4 27.3 15.8 4.6 2.6 5.2 3.7 2.5 4.5-1 .4-3.8 1.8-6.3 3.3-5.1 3-9.4 5.5-16 9.2-2.5 1.4-12.7 7.2-22.6 12.9-16.7 9.5-18.3 10.2-20.5 9.1-1.3-.7-15.8-9.3-32.2-19.2l-29.8-17.9 3.8-2.2c26.7-15.4 50.5-29.1 53.3-30.7 1.9-1.1 3.9-2.4 4.5-2.9.5-.5 1.6-.9 2.5-.9.9 0 2 .4 2.6.9zm-57.9 53.3c16.8 9.9 27 15.9 38.8 22.7 5 2.9 9.6 5.7 10.3 6.3.9.8 1.2 9.6 1.2 37.5 0 31.5-.2 36.4-1.5 36-.8-.4-7.4-4.1-14.7-8.3-7.3-4.2-15.3-8.8-17.8-10.2-2.5-1.4-7.6-4.4-11.5-6.7-3.8-2.3-9.8-5.7-13.2-7.6l-6.3-3.4v-37.3c0-20.4.2-37.2.5-37.2.2 0 6.6 3.7 14.2 8.2zm125.3 30v36.3l-7.2 4c-8.3 4.6-11 6.2-15.8 9.1-1.9 1.2-5.5 3.3-8 4.7-2.5 1.3-10.5 5.9-17.8 10.1-7.3 4.2-14 8-14.8 8.3-1.2.5-1.4-4.2-1.2-35.8l.3-36.4 26.5-15.2c14.6-8.4 28.4-16.2 30.8-17.4 2.4-1.3 4.5-2.6 4.8-3.1 2-3.2 2.4 2.5 2.4 35.4zM1050 77c-1.9 1.9-2 3.3-2 51.9 0 28.2.4 52.1 1 55 1.7 9.1 7.7 19.9 15.5 27.6 11.7 11.8 22.4 16.4 41.5 18.2 5.5.5 21.9-2.5 26.4-4.9 6.1-3.2 14.5-9.5 15.9-12.1 2.3-3.9 2.1-5.9-.8-9.1-3.2-3.4-5.3-3.3-10.1.7-6.2 5.2-8.8 6.5-16.8 8.7-9.6 2.5-15.6 2.5-25.2-.1-16.6-4.5-26.1-13.8-31.9-30.9-1.2-3.5-1.5-10-1.5-30.3V126h59.9l2.1-3c1.9-2.7 2.1-3.5 1-6.1-.7-1.6-2.1-3.4-3.1-3.9-1-.6-14.1-1-30.8-1H1062V95.5c0-15.6-.1-16.5-2.2-18.5-2.8-2.6-7.2-2.6-9.8 0zm-650.1 33.4c-5.9 1.8-12.5 6.5-16.1 11.5-5.7 7.8-6.3 9.6-6.3 20 0 8.7.3 10.1 2.9 14.6 3.8 6.7 6.1 9.1 12.6 13.4l5.5 3.6 19.5.3c10.7.2 19.9.7 20.5 1.1.5.5 2.3 1.1 3.9 1.5 3.7.9 7.5 3.8 9.8 7.7 2.4 4 2.5 14.9.1 18.7-2.6 4.2-7.4 8.1-11.3 9.2-1.9.5-16.5 1-32.5 1-15.9 0-29.5.4-30.1.8-3.9 2.6-4.1 11.2-.3 13.3 1.4.7 12.4.9 34.2.7 29.6-.3 32.5-.5 36.2-2.3 4.9-2.4 5.7-3 10.7-8 2.1-2.2 4.8-6 6-8.5 1.1-2.5 2.4-5.3 2.9-6.2 1.1-2.3 1.2-16.3 0-18.6-.4-.9-1.7-3.5-2.7-5.7-2.3-4.8-9.7-12.5-14.5-14.9-6.3-3.3-15.7-4.6-31.6-4.5-17.3.1-20.7-.9-24.9-7-1.9-2.9-2.4-4.8-2.4-10 0-7.6 2.3-12 8.1-15.7 3.8-2.4 4-2.4 30.3-2.4h26.4l3.1-2.6c3.8-3.2 4-6.3.5-9.8l-2.7-2.6-27.1.1c-17.3.1-28.4.5-30.7 1.3zm80 .5l-2.4 1.9v36.1c0 27.5.3 36.3 1.3 37.3.6.6 1.2 2.1 1.2 3.2s1.7 5.4 3.7 9.4c3.9 7.7 14.3 19.3 19.9 22.2 1.6.8 3.1 1.7 3.4 2 1.4 1.4 5.4 3.1 9.7 4.1 5.1 1.2 6.1 1.4 13.3 2.4 6.4.9 21.7-2.6 28.8-6.7 8.7-4.9 17.7-14.7 22.2-24.3 5-10.5 6-19.3 6-54.9 0-26.8-.5-32-3.3-33.8-2.3-1.4-6.6-.8-8.5 1.3-1.8 1.9-2 4.3-2.4 36.7-.4 29.6-.8 35.3-2.2 38.7-4.9 11.6-8.2 16.1-15.7 21.2-4.9 3.4-16.7 7.3-22 7.3-5 0-17.4-3.7-21.8-6.4-5.3-3.4-12.3-11.5-15.7-18.3l-2.9-5.8-.3-35.2-.3-35.2-2.6-2.5c-3.1-3.1-6.2-3.3-9.4-.7zm167.6-.8c-10.6 3.4-13.5 4.5-17.5 6.7-9.6 5.2-21.4 17.9-25 26.7-.7 1.6-1.7 4.1-2.2 5.5-.6 1.4-1.5 3.4-2.2 4.5-.8 1.4-1.2 18.2-1.4 56.2-.3 61.4-.6 59.3 6.9 59.3 6.9 0 7.2-1 7-31.5-.1-14.6.1-27 .4-27.6.4-.6 1.7.1 3.4 1.8 4.2 4.7 10.2 8.8 17.1 12 7.7 3.6 22.8 6.8 27.9 5.9 2-.4 4.7-.9 6.1-1.1 6.8-1 12.6-2.8 17.3-5.2 7.2-3.7 15.8-10.4 19.2-15 1.6-2.1 3.5-4.4 4.2-5.1.7-.7 1.3-1.8 1.3-2.3 0-.5 1.1-2.6 2.4-4.7 1.3-2 2.7-5.3 3.1-7.2.4-1.9 1.2-4.1 1.8-4.8.7-.9 1.1-6.6 1.1-14.7s-.4-13.8-1.1-14.7c-.6-.7-1.4-2.9-1.8-4.8-2.4-11.1-15-26.2-28.4-33.8-10.3-5.9-30.4-9-39.6-6.1zm22 14.9c.3.5 1.7 1 3 1s2.6.4 3 .9c.3.5 2.2 1.5 4.1 2.1 9.8 3.3 20.7 16.7 23.5 29.2 2.8 12.2.4 27.8-5.5 35.7-3.8 5-14 14.2-17.7 15.9-5.9 2.7-16.2 5.2-21 5.2-6.3 0-18.6-3.8-24.2-7.4-5.7-3.6-12.4-10.4-15-15.1-4.8-8.9-5.2-10.6-5.2-24.4 0-9.9.3-13.5 1.3-13.9.6-.2 1.2-1.1 1.2-2.1 0-2.4 6.5-12 10.8-16 4-3.8 15.5-10.1 18.3-10.1 1 0 2.1-.5 2.4-1 .3-.6 5-1 10.5-1s10.2.4 10.5 1zM773 110.4c-2.5.6-4.9 1.4-5.5 1.7-.5.3-2.3.9-3.9 1.3-3.8.9-15.1 8.3-19.8 13-7.2 7.1-12.8 16.1-15.9 26-1.8 5.4-1.9 9.8-1.9 59.6 0 50.7.1 53.8 1.8 55.3 2.5 2.2 8.1 2.2 9.8-.1 1-1.3 1.3-8 1.4-30 0-15.5.3-28.2.6-28.2s3.1 2.3 6.3 5.1c6 5.2 13.3 9.9 15.6 9.9.7 0 1.5.4 1.7 1 .6 1.8 20.9 5.2 25.8 4.4 2.5-.5 5-.9 5.5-.9 12.4-1.5 22.7-6.8 33-17 4.4-4.4 8.8-9.6 9.7-11.5 6.8-14.2 7.8-18.1 7.8-30.5 0-12.4-.9-16-7.4-29.5-1.8-3.8-14.7-18-19.7-21.5-3.8-2.8-11.6-5.9-21.5-8.4-5.2-1.4-17.5-1.2-23.4.3zm23.2 14.5c1.3.5 4.8 1.9 7.8 3.1 14.4 5.8 22.6 16.7 26.6 35 1.5 6.9 1.2 10.1-2.4 22-3.9 12.7-16.6 24.2-30.7 27.9-10.3 2.7-15.1 2.7-25-.4-20.1-6.1-32.5-22.7-32.5-43.4 0-12.6 5.1-24.2 14.5-32.9 5.7-5.3 7.7-6.4 17.5-10.3 5-1.9 20.3-2.5 24.2-1zm97.8-14.5c-2.5.7-5.4 1.6-6.5 2-14.4 6-20.3 10.3-28.4 20.6-4.3 5.4-9.1 14.6-9.1 17.2 0 .8-.6 2-1.2 2.6-1.7 1.7-1.8 31.2-.2 33.3.6.8 1.4 2.6 1.8 4.2.9 3.7 8 15.4 12 19.6 3.9 4.1 11.6 9.9 18 13.5 6 3.3 23.4 7 29.1 6.2 13.7-2.1 18.3-3.4 24.3-6.7 22.4-12.3 34.6-34.4 32.6-59.2-.4-4.2-1.1-8-1.5-8.3-.5-.3-.9-1.5-.9-2.6 0-2.4-5.6-14.5-7.7-16.6-.7-.7-1.3-1.7-1.3-2.2 0-1.1-12.9-14-14-14-.5 0-1.5-.6-2.2-1.3-1.7-1.7-9.2-5.2-14.3-6.7-2.2-.6-5.4-1.6-7.1-2.1-4.2-1.2-17.9-.9-23.4.5zm23.8 14.5c.9.5 4.1 1.9 7.1 3.1 14.8 6 25.4 20.5 26.7 36.6 1.9 23.5-10.9 42.3-33 48.3-9.6 2.6-15.1 2.6-23.8 0-12.1-3.6-19.8-9.1-26.4-19.1-3.6-5.4-4.8-8.4-6.1-15.3-2.4-12.3-.6-22.4 6.2-34.4 2.4-4.3 10.8-12 15.4-14.2 10.2-4.9 13.5-5.7 22.9-5.8 5.1-.1 10 .3 11 .8zm104.7-14.7c-4.4 1.1-5.6 1.6-13.5 5.1-15.3 6.8-30.5 25.2-34 41-.6 2.8-1 18.3-1 36.7 0 31.8 0 31.9 2.2 33.4 2.8 2 5.7 2 8.5.1 2-1.4 2.1-2.3 2.5-33.5.3-23.3.7-32.3 1.6-33.2.7-.7 1.2-1.8 1.2-2.6 0-3.1 5.1-12.1 10-17.5 8.5-9.3 20.7-15.2 33.2-15.9 5.5-.3 7.1-.8 8.8-2.7 2.7-3.2 2.5-6.7-.5-9.6-2.1-2.2-3.3-2.5-8.7-2.4-3.5.1-8.1.6-10.3 1.1zm173 .3c-5.3 1.5-6.9 2.2-14.4 5.7-12 5.8-26.6 23.3-28.7 34.8-.4 1.9-1.1 4.1-1.7 4.8-1.5 1.9-1.4 25.9.1 27.4.7.7 1.2 2.1 1.2 3.2 0 2.7 5.7 14.3 9.4 19.1 6.8 8.7 10.8 12.2 21 17.9 6.4 3.6 23.5 7 29.6 6 2.5-.4 5-.8 5.5-.8 10.5-1.3 22.3-6.9 30-14.3l5.5-5.3v7.3c0 6 .4 7.7 2 9.5 3.9 4.2 11.2 2.4 12.5-3.1 1.1-4.2-.1-62.1-1.3-67.2-1.2-4.9-1.7-6.2-5-13.5-2.5-5.2-8.3-13-13.3-17.5-8.1-7.4-13.5-10.1-28.5-14.6-4.2-1.2-19-.9-23.9.6zm26 15.3c12.9 4.8 22.3 12.5 26.4 21.7 1.3 2.7 2.8 6.1 3.4 7.4 1.6 3.1 1.6 26 .1 29.2-5.8 12.3-10.1 17.7-18.4 23.5-5.2 3.6-17.8 7.4-24.7 7.4-10.6 0-24.7-6.4-32.4-14.6-16-17.1-15.4-46.5 1.2-63.3 4-4.1 11-8.3 19.9-11.9 4.3-1.8 18.9-1.4 24.5.6z" fill="#F61920"/></svg>