<svg width="694" height="651" fill="none" xmlns="http://www.w3.org/2000/svg"><path d="M339.695 650.875c195.34 0 353.695-99.651 353.695-222.577 0-122.925-158.355-222.576-353.695-222.576S-14 305.373-14 428.298c0 122.926 158.355 222.577 353.695 222.577z" fill="#F5F5F5"/><path d="M462.754 602.103c43.078 0 77.999-20.159 77.999-45.027 0-24.868-34.921-45.027-77.999-45.027-43.078 0-77.999 20.159-77.999 45.027 0 24.868 34.921 45.027 77.999 45.027z" fill="#E0E0E0"/><path opacity=".3" d="M25.275 232.106l.301.167-.384-.2-.72-.418.803.451z" fill="#000"/><path d="M19.774 227.926a1.053 1.053 0 000 .602.92.92 0 010-.602l1.104-3.678-1.104 3.678z" fill="#E8505B"/><path opacity=".4" d="M19.774 227.926a1.053 1.053 0 000 .602.92.92 0 010-.602l1.104-3.678-1.104 3.678z" fill="#fff"/><path d="M123.054 207.193c0 1.355 0 2.726-.201 4.147a1.454 1.454 0 001.488 1.454l8.878.502c.227-.006.451.046.653.151l-10.818-6.254zm-29.996 59.089c-.368-.585-1.338-.552-2.207 0-.87.552-2.09 1.354-3.11 1.973l10.885 6.32a.636.636 0 01-.268-.217l-5.3-8.076zm-28.324 5.701a15.995 15.995 0 01-4.53-2.625 1.837 1.837 0 00-2.307.402l-10.568 9.664c-.312.302-.72.486-1.154.518l16.72 9.731a.92.92 0 01-.434-1.003l3.344-14.831a1.673 1.673 0 00-1.07-1.856zM95.5 244.997a29.71 29.71 0 01-13.377 8.728l-.568.134-.402.1-.92.151-1.07.1h-.986a10.402 10.402 0 01-9.748-6.538 18.036 18.036 0 01-1.42-5.434 26.199 26.199 0 002.457-1.27c11.487-6.688 20.783-22.74 20.783-35.998 0-1.004 0-1.957-.117-2.826a16.28 16.28 0 017.34-1.555h1.221a10.383 10.383 0 018.142 6.42c4.297 9.848-.735 26.803-11.336 37.988z" fill="#E8505B"/><path opacity=".4" d="M95.5 244.997a29.71 29.71 0 01-13.377 8.728l-.568.134-.402.1-.92.151-1.07.1h-.986a10.402 10.402 0 01-9.748-6.538 18.036 18.036 0 01-1.42-5.434 26.199 26.199 0 002.457-1.27c11.487-6.688 20.783-22.74 20.783-35.998 0-1.004 0-1.957-.117-2.826a16.28 16.28 0 017.34-1.555h1.221a10.383 10.383 0 018.142 6.42c4.297 9.848-.735 26.803-11.336 37.988z" fill="#000"/><path d="M133.955 213.48a1.41 1.41 0 00-.635-.167l-8.878-.502a1.442 1.442 0 01-1.489-1.438 58.94 58.94 0 00.201-4.146 38.272 38.272 0 00-.201-4.414c.034-.96.38-1.882.987-2.625l9.898-11.989a2.666 2.666 0 00.602-2.457l-4.698-10.417a.687.687 0 00-.301-.318c-.385-.2-.97 0-1.522.468l-10.684 9.598a1.855 1.855 0 01-2.307.384 16.72 16.72 0 00-4.515-2.625 1.675 1.675 0 01-1.07-1.856l3.344-14.814a.918.918 0 00-.451-1.036 1.774 1.774 0 00-.987-.184l-10.332 1.036a2.9 2.9 0 00-2.274 1.672l-5.602 15.048a4.784 4.784 0 01-2.257 2.191 46.022 46.022 0 00-6.404 3.712c-.869.585-1.839.618-2.223 0l-5.3-8.093c-.368-.568-1.221-.451-1.907.268l-11.353 11.988a2.994 2.994 0 00-.886 2.491l3.16 10.718a3.612 3.612 0 01-.568 2.575 91.354 91.354 0 00-5.233 9.062 4.133 4.133 0 01-2.458 1.856l-9.731 2.341a3.19 3.19 0 00-2.19 1.822l-4.9 16.469a1.171 1.171 0 001.204 1.488l8.895.502a1.437 1.437 0 011.488 1.438 45.788 45.788 0 000 8.56 4.166 4.166 0 01-.97 2.609L41.51 266.7a2.676 2.676 0 00-.602 2.474l4.699 10.4a.67.67 0 00.284.318c.11.068.238.103.368.1.44-.036.855-.225 1.17-.535l10.467-9.731a1.877 1.877 0 012.307-.384 16.888 16.888 0 004.531 2.625 1.67 1.67 0 011.054 1.855l-3.344 14.814a.919.919 0 00.434 1.02c.294.167.637.226.97.168l10.333-1.02a2.874 2.874 0 002.274-1.572l5.618-15.048a5.015 5.015 0 012.257-2.19c1.087-.502 2.19-1.087 3.344-1.672 1.154-.586 2.09-1.271 3.127-1.973 1.037-.703 1.84-.636 2.207 0l5.3 8.092c.068.099.16.18.268.234.418.268 1.087.084 1.672-.501l11.369-12.005a2.98 2.98 0 00.87-2.475l-3.16-10.717a3.621 3.621 0 01.585-2.575 84.973 84.973 0 005.217-9.079 4.125 4.125 0 012.474-1.823l9.714-2.341a3.135 3.135 0 002.191-1.839l4.915-16.469a1.085 1.085 0 00-.468-1.371zm-51.832 40.228l-.568.151-.418.083c-.304.068-.61.118-.92.151l-1.07.117h-.97a10.417 10.417 0 01-9.748-6.554 17.954 17.954 0 01-1.42-5.418 25.345 25.345 0 01-.168-3.009c0-9.397 4.882-21.017 12.841-29.411a35.3 35.3 0 017.842-6.353c.838-.505 1.71-.952 2.608-1.338a16.533 16.533 0 017.34-1.555h1.22a10.395 10.395 0 018.142 6.437c4.382 9.715-.651 26.652-11.251 37.838a29.661 29.661 0 01-13.46 8.861z" fill="#E8505B"/><path opacity=".2" d="M59.417 218.262a4.452 4.452 0 01-1.94 1.154l-9.73 2.34a3.578 3.578 0 00-1.79 1.121l-20.95-12.039a3.345 3.345 0 011.857-1.187l9.714-2.357a3.965 3.965 0 001.906-1.104l20.933 12.072z" fill="#000"/><path opacity=".3" d="M65.788 206.19l-20.9-12.038a.956.956 0 000-.385l-3.177-10.701a1.855 1.855 0 010-1.07l16.018 9.146 5.016 2.842a2.16 2.16 0 00-.1 1.188l3.16 10.7a.972.972 0 01-.017.318zm33.289-39.409a2.058 2.058 0 00-.552.786l-5.617 15.048-20.917-12.072v-.1l5.618-15.048c.114-.291.297-.55.535-.753l20.933 12.139zm30.146 8.109a1.551 1.551 0 00-1.454.519l-10.534 9.647a1.885 1.885 0 01-2.324.401 16.515 16.515 0 00-4.514-2.625 1.672 1.672 0 01-1.07-1.872l3.344-14.781a.935.935 0 00-.452-1.053 238.03 238.03 0 01-3.979-2.308.997.997 0 01.384.084.922.922 0 01.234.134l20.365 11.854zm4.732 38.557a1.331 1.331 0 00-.652-.151l-8.878-.502a1.441 1.441 0 01-1.374-.89 1.436 1.436 0 01-.114-.564c.117-1.421.2-2.792.2-4.147l10.818 6.254z" fill="#000"/><path opacity=".4" d="M98.626 274.592l-10.885-6.321a71.966 71.966 0 003.11-1.973c1.037-.702 1.84-.635 2.207 0l5.3 8.093c.07.09.162.159.268.201zm-32.838-.753l-3.344 14.831a.92.92 0 00.434 1.003l-16.72-9.731a1.856 1.856 0 001.154-.518l10.584-9.698a1.84 1.84 0 012.307-.401 16.045 16.045 0 004.531 2.625 1.671 1.671 0 011.054 1.889z" fill="#000"/><path opacity=".2" d="M52.027 253.223c-.174.518-.44.999-.786 1.422l-9.898 12.005a3.337 3.337 0 00-.619 1.22l-20.9-12.088c.11-.449.322-.867.62-1.221l9.914-12.005a4.53 4.53 0 00.752-1.404l20.917 12.071z" fill="#000"/><path opacity=".1" d="M92.874 182.682a4.881 4.881 0 01-2.224 2.106 45.952 45.952 0 00-6.403 3.696c-.87.601-1.84.652-2.224 0l-5.284-8.093a.716.716 0 00-.267-.234h-.084l-9.931-5.735a36.619 36.619 0 013.344-1.672l.384-.217a5.883 5.883 0 001.07-.853c.137-.137.266-.282.385-.435.088-.087.162-.189.217-.301l.15-.284 20.867 12.022z" fill="#000"/><path opacity=".4" d="M52.228 252.02c.02.409-.042.819-.184 1.203l-20.917-12.071a3.04 3.04 0 00.2-1.204 42.545 42.545 0 01-.183-4.414l10.032 5.768c.215.121.456.19.702.201l8.895.501a1.45 1.45 0 011.379.888c.075.179.112.372.11.567a46.819 46.819 0 00-.034 8.561z" fill="#000"/><path opacity=".1" d="M65.788 206.19a3.9 3.9 0 01-.619 2.241 87.622 87.622 0 00-5.233 9.062c-.136.254-.31.485-.519.685L38.501 206.19c.119-.106.22-.23.3-.368a1.17 1.17 0 00.252-.334 82.095 82.095 0 015.216-9.079c.104-.151.188-.314.25-.485.065-.102.11-.216.135-.334a.39.39 0 000-.168v-.1c.049-.146.083-.298.1-.451a1.556 1.556 0 000-.669l21.034 11.988z" fill="#000"/><path opacity=".3" d="M38.803 205.822a1.555 1.555 0 01-.302.369c.11-.115.21-.238.302-.369z" fill="#000"/><path opacity=".4" d="M45.724 279.842l-4.264-2.458-.802-.468-6.856-3.963c-.635-.368-1.254-.752-1.855-1.087l-7.04-4.063a.447.447 0 01-.167-.133 1.048 1.048 0 01-.134-.201l-4.715-10.417a1.47 1.47 0 010-.869v-.368l20.9 12.089a1.873 1.873 0 000 1.254l4.699 10.383c.048.12.129.225.234.301z" fill="#000"/><path opacity=".3" d="M25.008 210.838a2.005 2.005 0 00-.351.636l-.602 2.056-3.194 10.751-1.087 3.679a1.115 1.115 0 00.117.919.958.958 0 00.251.268l.167.117 1.672.936.452.268 1.304.752.702.418.803.451.3.168.853.501 4.732 2.726 10.032 5.768a1.056 1.056 0 01-.451-1.237l4.297-14.48.602-2.006a2 2 0 01.4-.703l-21-11.988z" fill="#000"/><path opacity=".5" d="M66.457 174.422l-10.852-6.303a1.019 1.019 0 00-.468-.117 1.667 1.667 0 00-1.204.618l-6.788 7.19-4.565 4.815a3.563 3.563 0 00-.802 1.421l15.95 9.096 5.017 2.842c.163-.487.43-.932.786-1.304l.15-.167 11.202-11.838a1.527 1.527 0 011.572-.551l-9.998-5.702zm45.578-9.346a1.88 1.88 0 00-.903-.117l-10.349 1.036a2.874 2.874 0 00-1.672.786l-20.917-12.072a3.079 3.079 0 011.672-.819l10.35-1.037a1.67 1.67 0 011.02.201s1.153.652 2.792 1.672l1.37.786 8.862 5.133 2.191 1.287 1.672.886a302.099 302.099 0 003.912 2.258z" fill="#fff"/><path d="M364.34 31.282c-.451-3.344-3.16-4.581-6.387-2.709L179.919 131.351a14.364 14.364 0 00-6.471 11.219v392.92c0 3.813 2.458 5.535 5.651 4.147a14.515 14.515 0 01-12.138-.401l-7.407-4.281a14.239 14.239 0 01-6.488-11.219V130.833a14.238 14.238 0 016.488-11.219L337.555 16.819a14.377 14.377 0 0112.958 0l7.49 4.28a14.434 14.434 0 016.337 10.183z" fill="#37474F"/><path d="M358.003 28.573L179.918 131.351a14.37 14.37 0 00-6.47 11.219v392.92c0 4.13 2.909 5.802 6.47 3.746l178.085-102.845a14.352 14.352 0 006.454-11.219V32.302c-.05-4.113-2.943-5.785-6.454-3.729zm-2.859 359.598c0 3.527-2.475 5.785-5.551 7.557l-161.866 93.448c-3.06 1.772-5.551.334-5.551-3.21V180.107a12.303 12.303 0 015.551-9.631l161.866-93.431c3.076-1.79 5.551-.351 5.551 3.177V388.17z" fill="#455A64"/><path d="M179.099 539.57a14.523 14.523 0 01-12.139-.401l-7.406-4.281a14.255 14.255 0 01-6.488-11.219V130.833a13.183 13.183 0 011.906-6.404l20.382 11.704a13.374 13.374 0 00-1.906 6.387v392.92c0 3.796 2.458 5.518 5.651 4.13zm89.837-449.216c2.391-1.388 4.33-.268 4.33 2.508a9.595 9.595 0 01-4.33 7.507c-2.408 1.388-4.347.268-4.347-2.508a9.55 9.55 0 014.347-7.507zm-12.54 21.669c8.811-4.866 24.545-14.229 33.239-19.345 1.488-.87 2.675-.268 2.675 1.338a5.811 5.811 0 01-2.675 4.464l-33.306 19.228c-1.488.853-2.692.251-2.692-1.355a5.528 5.528 0 012.759-4.33zm-8.41 4.865c1.337-.769 2.424-.15 2.424 1.405a5.408 5.408 0 01-.695 2.44 5.406 5.406 0 01-1.729 1.857c-1.355.769-2.442.15-2.442-1.405a5.406 5.406 0 012.442-4.297z" fill="#263238"/><path d="M265.909 478.341a6.13 6.13 0 01-3.093-.802c-2.19-1.271-3.344-3.879-3.344-7.34a23.55 23.55 0 0110.651-18.392c2.993-1.672 5.852-1.99 8.059-.719 2.207 1.271 3.344 3.879 3.344 7.34a23.584 23.584 0 01-10.634 18.392 10.216 10.216 0 01-4.983 1.521zm9.113-26.417a8.458 8.458 0 00-4.13 1.287 21.731 21.731 0 00-9.865 16.988c0 2.842.92 5.016 2.575 5.885 1.655.87 3.946.702 6.404-.719a21.74 21.74 0 009.798-16.971c0-2.842-.92-4.932-2.575-5.902a4.627 4.627 0 00-2.207-.518v-.05z" fill="#E6E6E6"/><path d="M355.094 80.222v307.965a12.242 12.242 0 01-5.551 9.598l-161.866 93.448c-3.06 1.672-5.552.351-5.552-3.194v-19.211l146.986-84.854c3.076-1.773 5.551-4.013 5.551-7.541V85.639l14.881-8.594c3.076-1.773 5.551-.335 5.551 3.177z" fill="#37474F"/><path d="M349.543 77.045l-14.948 8.594v290.794a7.766 7.766 0 01-3.795 6.387l21.502 12.423a12.146 12.146 0 002.725-7.056V80.221c.067-3.51-2.408-4.949-5.484-3.176z" fill="#263238"/><path d="M196.923 392.468l-9.263-5.351a.89.89 0 01-.435-.384l-1.672-2.977 5.501-3.176-.167.484 6.036 11.404z" fill="#E0E0E0"/><path d="M190.184 381.031l6.421 11.102a.95.95 0 00.886.417.951.951 0 00.786-.584l6.788-19.562-14.881 8.627z" fill="#EBEBEB"/><path d="M220.431 321.792a9.88 9.88 0 00-4.548-7.758l-3.645-2.107a10.038 10.038 0 00-8.962 0l-72.548 41.8a9.89 9.89 0 00-4.481 7.758v36.784a9.92 9.92 0 004.481 7.758l3.662 2.107a9.915 9.915 0 008.945 0l72.966-42.151c4.03-2.291 4.063-4.598 4.063-7.457l.067-36.734z" fill="#EBEBEB"/><path d="M126.331 398.269a9.89 9.89 0 004.464 7.758l3.662 2.107a10.038 10.038 0 008.193.368c-2.107.803-3.712-.401-3.712-2.959v-36.784a9.189 9.189 0 011.304-4.414l-12.607-7.274a9.026 9.026 0 00-1.304 4.414v36.784z" fill="#E0E0E0"/><path d="M220.281 320.521c-.519-1.906-2.258-2.508-4.331-1.32l-72.548 41.8a8.932 8.932 0 00-3.143 3.344l-12.607-7.274a9.117 9.117 0 013.16-3.344l72.514-41.8a10.04 10.04 0 018.979 0l3.578 2.107a9.847 9.847 0 014.398 6.487z" fill="#FAFAFA"/><path d="M150.976 371.467l51.832-30.096c1.488-.869 2.709-.468 2.709.886a5.426 5.426 0 01-2.709 4.013l-51.832 30.096c-1.505.87-2.725.468-2.725-.886a5.426 5.426 0 012.725-4.013zm0 12.306l51.832-30.096c1.488-.869 2.709-.485 2.709.87a5.49 5.49 0 01-2.709 4.029l-51.832 30.096c-1.505.87-2.725.468-2.725-.886a5.426 5.426 0 012.725-4.013z" fill="#455A64"/><path d="M78.344 406.027l-9.262-5.35a.888.888 0 01-.435-.384l-1.672-2.977 5.5-3.176-.166.484 6.035 11.403z" fill="#E8505B"/><path opacity=".2" d="M78.344 406.027l-9.262-5.35a.888.888 0 01-.435-.384l-1.672-2.977 5.5-3.176-.166.484 6.035 11.403z" fill="#000"/><path d="M71.606 394.591l6.404 11.102c.1.139.233.248.389.318a.96.96 0 00.965-.096.976.976 0 00.318-.389l6.688-19.562-14.764 8.627z" fill="#E8505B"/><path d="M147.649 303.25a9.877 9.877 0 00-4.481-7.758l-3.645-2.107a9.846 9.846 0 00-8.962 0l-86.125 49.742a9.887 9.887 0 00-4.48 7.758v42.268a9.88 9.88 0 004.48 7.758l3.645 2.107a9.846 9.846 0 008.962 0l86.543-50.043c4.029-2.291 4.063-4.598 4.063-7.457V303.25z" fill="#E8505B"/><path opacity=".2" d="M39.955 393.153a9.88 9.88 0 004.481 7.758l3.645 2.107a10.039 10.039 0 008.193.384c-2.107.786-3.712-.418-3.712-2.976v-42.268c.054-1.56.51-3.08 1.321-4.414l-12.607-7.273a9.095 9.095 0 00-1.32 4.414v42.268z" fill="#000"/><path opacity=".4" d="M147.498 301.979c-.518-1.906-2.257-2.508-4.33-1.321l-86.125 49.759a8.73 8.73 0 00-3.16 3.344l-12.607-7.29a9.25 9.25 0 013.16-3.344l86.175-49.742a10.027 10.027 0 018.979 0l3.645 2.107a9.85 9.85 0 014.263 6.487z" fill="#fff"/><path d="M64.6 370.046l46.566-26.969c1.505-.87 2.725-.468 2.725.886a5.426 5.426 0 01-2.725 4.013l-46.565 26.952c-1.489.87-2.709.468-2.709-.886a5.45 5.45 0 012.709-3.996zm0 12.289l65.409-37.954c1.488-.87 2.709-.468 2.709.886a5.418 5.418 0 01-2.709 4.013l-65.408 37.954c-1.489.87-2.709.468-2.709-.886a5.454 5.454 0 012.709-4.013zm0-25.213l65.409-37.955c1.488-.869 2.709-.468 2.709.886a5.456 5.456 0 01-2.709 4.013l-65.408 37.955c-1.489.869-2.709.468-2.709-.887a5.412 5.412 0 012.709-4.012z" fill="#fff"/><path d="M658.411 85.605l-6.788-3.912a3.042 3.042 0 00-3.076.3l-147.521 85.173a9.585 9.585 0 00-4.347 7.524v76.226a2.994 2.994 0 001.321 2.826l6.688 3.896v-6.304l143.792-83.015a9.627 9.627 0 004.347-7.524v-72.38l5.584-2.81z" fill="#E0E0E0"/><path d="M510.256 177.515l142.638-82.346v-6.688l5.517-2.809-6.788-3.912a3.042 3.042 0 00-3.076.3l-147.521 85.172a8.723 8.723 0 00-3.076 3.244l12.306 7.039z" fill="#FAFAFA"/><path d="M507.814 171.078l147.521-85.172c2.408-1.387 4.347-.25 4.347 2.508v76.244a9.61 9.61 0 01-1.273 4.282 9.613 9.613 0 01-3.074 3.242l-147.521 85.171c-2.407 1.371-4.347.251-4.347-2.508v-76.243a9.653 9.653 0 014.347-7.524z" fill="#F5F5F5"/><path d="M515.338 178.502l44.191-25.515c2.793-1.672 5.016-.301 5.016 2.926v51.029a11.18 11.18 0 01-5.016 8.778l-44.191 25.582c-2.809 1.672-5.016.301-5.016-2.926V187.28a11.201 11.201 0 015.016-8.778z" fill="#E8505B"/><path d="M537.058 176.629c4.681-2.692 8.477-.501 8.477 4.916a18.78 18.78 0 01-8.477 14.697c-4.699 2.708-8.494.518-8.494-4.899a18.759 18.759 0 018.494-14.714zm16.72 28.959c0-8.895-6.237-12.841-13.945-8.36l-4.815 2.776c-7.691 4.447-13.945 15.265-13.945 24.16v2.391l32.705-18.877v-2.09z" fill="#FAFAFA"/><path d="M581.8 144.059l60.677-35.112c1.99-1.154 3.612-.335 3.612 1.839a7.723 7.723 0 01-3.612 6.002L581.8 151.9c-2.006 1.154-3.611.335-3.611-1.839a7.715 7.715 0 013.611-6.002zm0 15.683l60.677-35.112c1.99-1.154 3.612-.335 3.612 1.839a7.744 7.744 0 01-3.612 6.019L581.8 167.517c-2.006 1.153-3.611.334-3.611-1.84a7.72 7.72 0 013.611-5.935zm0 15.683l60.677-35.028c1.99-1.154 3.612-.335 3.612 1.822a7.748 7.748 0 01-3.612 6.02L581.8 183.267c-2.006 1.154-3.611.334-3.611-1.839a7.724 7.724 0 013.611-6.003zm0 15.717l60.677-35.112c1.99-1.154 3.612-.334 3.612 1.823a7.748 7.748 0 01-3.612 6.019L581.8 198.9c-2.006 1.154-3.611.335-3.611-1.839a7.718 7.718 0 013.611-5.919z" fill="#E0E0E0"/><path opacity=".2" d="M411.156 377.403c0 3.528-2.475 5.785-5.551 7.557l-161.866 93.448c-3.06 1.756-5.551.335-5.551-3.21V169.406a12.303 12.303 0 015.551-9.631l161.866-93.431c3.076-1.79 5.551-.351 5.551 3.177v307.882z" fill="#E8505B"/><path d="M241.264 479.997a3.594 3.594 0 01-1.872-.485 4.667 4.667 0 01-2.04-4.314V169.406a13.008 13.008 0 015.969-10.35l161.866-93.448a4.197 4.197 0 016.805 3.913v307.882c0 4.347-3.344 6.805-5.969 8.36l-161.866 93.448a5.8 5.8 0 01-2.893.786zM408.163 66.344a4.246 4.246 0 00-2.073.652l-161.866 93.431a11.452 11.452 0 00-5.133 8.912v305.859a2.572 2.572 0 001.198 2.885 2.576 2.576 0 003.099-.394l161.866-93.464c3.561-2.04 5.133-4.147 5.133-6.822V69.453a3.114 3.114 0 00-1.204-2.858 2.055 2.055 0 00-1.02-.251z" fill="#E8505B"/><path d="M499.22 361.352c1.171-43.472-2.307-53.989-13.911-61.965l-4.481 25.231s5.284 29.745 4.715 39.643c-.501 8.711-1.354 19.596-3.344 26.618a5.298 5.298 0 01-2.307 2.993c-2.943 1.839-4.146 3.745-6.37 6.069-1.672 1.823-3.21 2.274-2.993 2.86a2.874 2.874 0 003.678 1.287 19.327 19.327 0 004.18-2.274 26.309 26.309 0 01-4.28 7.357c-4.147 5.016-4.33 8.193 4.03 8.276 5.25 0 9.413-3.193 13.376-14.73a94.24 94.24 0 003.678-12.958c1.923-11.353 3.845-21.385 4.029-28.407z" fill="#FFA8A7"/><path d="M475.562 296.077a16.722 16.722 0 0117.873 9.062c4.866 8.678 6.053 23.625 6.688 38.456 0 0-9.647 8.059-21.217 4.096l-3.344-51.614z" fill="#37474F"/><path d="M491.847 535.574c.869.335 1.087 2.007 1.22 5.334.101 2.508.652 6.905-2.307 7.791-2.959.886-7.273.435-9.162-1.939a114.058 114.058 0 00-7.324-9.196c-2.909-3.127-6.069-6.053-7.256-10.45-1.054-3.98-.167-5.702 2.541-6.855 3.729-1.589 9.581 3.594 12.507 4.414 2.508.735 8.895 10.6 9.781 10.901z" fill="#263238"/><path d="M491.847 532.514v4.097a10.032 10.032 0 01-10.333.267c-.184-.384-1.07-5.835-1.07-5.835l11.403 1.471z" fill="#FFA8A7"/><path d="M458.741 559.149a65.279 65.279 0 011.806 6.688c.502 2.458 1.221 6.588.368 8.444-.853 1.856-4.264 3.093-9.48 3.093-3.344 0-8.661 2.274-12.29 4.297-3.628 2.023-11.486 2.909-15.449 2.441-4.648-.552-9.463-3.243-10.216-5.166-.752-1.923.234-3.929 11.203-8.611.1 0 15.265-5.016 20.565-10.818l13.493-.368z" fill="#263238"/><path d="M458.741 554.735v4.765c0 1.672-2.023 4.314-7.323 4.13-3.712-.134-6.32-1.137-6.17-4.197v-4.43l13.493-.268z" fill="#FFA8A7"/><path d="M494.505 478.291a111.148 111.148 0 00-4.832-21.301s1.455-18.392 2.157-35.764c.753-18.81 0-42.435.318-47.134 0 0-60.677-12.272-61.764 9.464-1.087 21.736 2.408 77.062 3.11 86.626.702 9.564 2.374 17.991 4.347 33.44 1.973 15.449 7.407 51.347 7.407 51.347a14.274 14.274 0 0013.493-.267s4.281-43.472 3.829-54.491a94.342 94.342 0 00-4.18-24.043s1.154-17.924 2.174-33.44c1.02-15.516 2.09-23.09 2.324-29.862l1.304-.652s1.338 26.902 2.04 36.449c.702 9.548 2.24 18.693 5.016 36.433 2.408 15.4 9.547 47.953 9.547 47.953 6.922 3.746 11.069-.501 11.069-.501s4.497-40.897 2.641-54.257z" fill="#37474F"/><path d="M462.888 412.833s14.713-7.257 22.087-13.794c0 0-6.839 9.63-15.817 13.911 0 0-3.194 33.44-3.177 32.737l-1.856-32.905-1.237.051z" fill="#263238"/><path d="M449.779 289.205l3.595 19.763 17.857-1.304-3.745-22.405-17.707 3.946z" fill="#FFA8A7"/><path d="M490.091 306.209c-1.772-5.367-8.577-11.219-15.399-9.948a201.065 201.065 0 00-29.879 7.457c-6.236 2.224-11.938 7.624-12.456 28.173 0 0-2.09 47.886-2.123 57.149a75.74 75.74 0 0041.014 4.046c18.76-4.096 21.017-11.888 21.017-11.888s.251-34.426-.318-49.307c-.485-12.64-.652-22.037-1.856-25.682z" fill="#E8505B"/><path d="M436.019 265.161s-4.531 7.224-3.979 7.909c.551.686 4.012 1.237 4.012 1.237l-.033-9.146z" fill="#F28F8F"/><path d="M448.576 245.198c-9.431 2.207-12.072 6.437-12.624 21.535-.585 15.75 1.137 20.666 3.244 22.739 1.437 1.405 9.196 1.489 13.091.318 4.866-1.455 15.851-5.635 20.85-13.66 5.886-9.464 7.207-22.121.569-27.153-9.363-7.09-21.285-4.682-25.13-3.779z" fill="#FFA8A7"/><path d="M436.052 249.127a19.268 19.268 0 008.778 7.006c1.806 2.056.82 10.032 3.996 11.386 0 0 1.371-5.869 6.287-5.233 4.916.635 5.768 6.888 2.742 10.784-3.026 3.896-5.952 2.491-5.952 2.491s.334 8.36 4.13 12.942c0 0 4.213 1.27 11.904-.552 4.715-1.12 11.286-7.19 13.961-13.527 5.652-13.376 5.802-25.364-2.742-28.758-1.053-6.086-5.935-8.728-11.453-9.865-11.888-2.458-19.545 5.016-28.691 4.314-5.234-.368-6.203 3.444-2.96 9.012z" fill="#263238"/><path d="M479.34 247.706l5.602-3.461a3.349 3.349 0 00-2.057-1.943 3.341 3.341 0 00-3.849 1.34 3.345 3.345 0 00.304 4.064z" fill="#263238"/><path d="M369.323 339.298c2.926 1.304 37.519 26.852 42.903 23.876 5.384-2.976 33.056-35.296 33.056-35.296a22.301 22.301 0 000-24.244s-8.862 1.672-13.51 8.661-24.679 32.153-24.679 32.153a1337.39 1337.39 0 01-14.814-7.524c-4.046-2.107-8.109-4.197-12.072-6.454a15.73 15.73 0 01-3.126-1.923c-1.956-1.94-1.672-6.688-1.572-9.163 0-1.187 0-2.374.167-3.561.168-1.455.452-5.016-2.173-3.879a3.338 3.338 0 00-1.254 1.037 6.533 6.533 0 00-.937 1.789c-.484 1.538-.334 3.227-.785 4.782a1.46 1.46 0 01-.318.618 1.199 1.199 0 01-.819.251c-3.813-.117-7.424-5.451-9.18-8.36a7.524 7.524 0 00-2.892-3.344c-2.074-.97-4.581.418-5.936 2.291a12 12 0 00-1.872 8.36 16.717 16.717 0 005.016 10.533 51.23 51.23 0 0014.797 9.397z" fill="#FFA8A7"/><path d="M448.107 302.598c-3.812.434-10.149.719-16.369 7.758-7.256 8.209-16.82 21.635-16.82 21.635a21.221 21.221 0 0016.72 15.751s13.092-13.376 16.72-20.783c3.628-7.407 4.247-19.379-.251-24.361z" fill="#37474F"/><path d="M514.837 132.271V79.553l31.132 20.582c-9.062 14.179-19.244 24.729-31.132 32.136z" fill="#455A64"/><path d="M514.837 79.553l-12.457-7.19v52.718l12.457 7.19V79.553z" fill="#37474F"/><path d="M564.044 39.625l-46.666 33.558-12.456-7.173 46.665-33.574 12.457 7.19z" fill="#E8505B"/><path opacity=".5" d="M564.044 39.625l-46.666 33.558-12.456-7.173 46.665-33.574 12.457 7.19z" fill="#000"/><path d="M564.044 39.625c1.27 17.021-3.746 35.831-14.597 54.758l-19.462-12.857-12.607-8.36 46.666-33.54z" fill="#E8505B"/><path opacity=".3" d="M564.044 39.625c1.27 17.021-3.746 35.831-14.597 54.758l-19.462-12.857-12.607-8.36 46.666-33.54z" fill="#000"/><path d="M549.447 94.383l-12.456-7.19-32.069-21.183 12.456 7.172 32.069 21.201z" fill="#E8505B"/><path opacity=".7" d="M549.447 94.383l-12.456-7.19-32.069-21.183 12.456 7.172 32.069 21.201z" fill="#000"/><path d="M498.702 50.159l-8.895-36.065a73.702 73.702 0 013.896-2.976c16.419-11.821 32.035-13.945 42.92-7.658l12.323 7.106c3.661 4.464.869 9.28 2.056 16.72L502.28 62.398l-.485.351-3.093-12.59z" fill="#E8505B"/><path opacity=".7" d="M498.702 50.159l-8.895-36.065a73.702 73.702 0 013.896-2.976c16.419-11.821 32.035-13.945 42.92-7.658l12.323 7.106c3.661 4.464.869 9.28 2.056 16.72L502.28 62.398l-.485.351-3.093-12.59z" fill="#fff"/><path d="M511.158 57.382l-8.895-36.065a73.773 73.773 0 013.879-2.976c27.522-19.797 52.735-12.406 57.317 16.202l-48.722 35.112-.485.35-3.094-12.623z" fill="#E8505B"/><path opacity=".5" d="M511.158 57.382l-8.895-36.065a73.773 73.773 0 013.879-2.976c27.522-19.797 52.735-12.406 57.317 16.202l-48.722 35.112-.485.35-3.094-12.623z" fill="#fff"/><path d="M489.807 14.094l12.44 7.19 12.005 48.621-12.457-7.19-11.988-48.621z" fill="#E8505B"/><path opacity=".1" d="M489.807 14.094l12.44 7.19 12.005 48.621-12.457-7.19-11.988-48.621z" fill="#000"/><path d="M497.632 127.823c-8.059 4.247-15.048 10.116-21.652 9.865l-12.44-7.189c-6.521-3.712-11.336-10.551-13.744-20.282-3.344-13.56-1.254-30.815 5.852-48.605a121.08 121.08 0 0129.544-43.472l12.457 7.19-4.615 24.562 4.598 18.642v59.289z" fill="#E8505B"/><path opacity=".2" d="M497.632 127.823c-8.059 4.247-15.048 10.116-21.652 9.865l-12.44-7.189c-6.521-3.712-11.336-10.551-13.744-20.282-3.344-13.56-1.254-30.815 5.852-48.605a121.08 121.08 0 0129.544-43.472l12.457 7.19-4.615 24.562 4.598 18.642v59.289z" fill="#000"/><path d="M510.155 135.013c-23.107 12.189-42.168 5.317-47.819-17.606-3.344-13.56-1.254-30.815 5.852-48.605a120.86 120.86 0 0129.544-43.472l7.825 31.768 4.598 18.576v59.339zm27.872 139.244a4.751 4.751 0 012.174-3.745l110.553-63.837a4.814 4.814 0 014.33 0l2.425 1.404a4.767 4.767 0 012.173 3.746v84.753a4.765 4.765 0 01-2.173 3.746l-110.57 63.82a4.714 4.714 0 01-4.33 0l-2.425-1.405a4.748 4.748 0 01-2.173-3.745l.016-84.737z" fill="#E8505B"/><path opacity=".4" d="M538.027 274.257a4.751 4.751 0 012.174-3.745l110.553-63.837a4.814 4.814 0 014.33 0l2.425 1.404a4.767 4.767 0 012.173 3.746v84.753a4.765 4.765 0 01-2.173 3.746l-110.57 63.82a4.714 4.714 0 01-4.33 0l-2.425-1.405a4.748 4.748 0 01-2.173-3.745l.016-84.737z" fill="#fff"/><path d="M548.16 277.618l-9.497-5.501a4.569 4.569 0 00-.636 2.14v84.737a4.751 4.751 0 002.174 3.745l2.424 1.405a4.719 4.719 0 004.331 0l1.204-.702v-85.824z" fill="#E8505B"/><path opacity=".3" d="M548.16 277.618l-9.497-5.501a4.569 4.569 0 00-.636 2.14v84.737a4.751 4.751 0 002.174 3.745l2.424 1.405a4.719 4.719 0 004.331 0l1.204-.702v-85.824z" fill="#000"/><path d="M659.682 211.825v84.753a4.609 4.609 0 01-.669 2.191 4.71 4.71 0 01-1.27 1.404l-.134.101-110.67 63.87a1.55 1.55 0 01-1.471.167 1.504 1.504 0 01-.669-1.421v-84.804a1.854 1.854 0 011.526-1.968c.3-.054.609-.032.898.062l46.532 11.119 6.086 1.438a4.018 4.018 0 003.879-1.455l7.056-9.815 47.485-66.11c.702-1.121 1.421-.903 1.421.468z" fill="#E8505B"/><path d="M657.525 300.324l.134-.101a4.713 4.713 0 001.271-1.404 4.644 4.644 0 00.669-2.157l-48.94-19.144 32.771 30.932 14.095-8.126z" fill="#E8505B"/><path opacity=".2" d="M657.525 300.324l.134-.101a4.713 4.713 0 001.271-1.404 4.644 4.644 0 00.669-2.157l-48.94-19.144 32.771 30.932 14.095-8.126z" fill="#000"/><path d="M544.799 362.907a1.504 1.504 0 00.669 1.421 1.554 1.554 0 001.471-.167l38.072-21.97 8.694-54.875-48.923 74.186.017 1.405z" fill="#E8505B"/><path opacity=".2" d="M544.799 362.907a1.504 1.504 0 00.669 1.421 1.554 1.554 0 001.471-.167l38.072-21.97 8.694-54.875-48.923 74.186.017 1.405z" fill="#000"/><path d="M658.963 298.769a4.7 4.7 0 01-1.271 1.404l-110.753 63.971a1.55 1.55 0 01-1.471.167l52.935-84.553a8.361 8.361 0 0110.417-3.193l50.143 22.204z" fill="#E8505B"/><path d="M544.799 275.662l50.846 22.488a8.36 8.36 0 0010.416-3.21l53.387-85.406-114.649 66.128z" fill="#E8505B"/><path opacity=".3" d="M544.799 275.662l50.846 22.488a8.36 8.36 0 0010.416-3.21l53.387-85.406-114.649 66.128z" fill="#000"/><path d="M544.799 275.662l51.197 19.144a8.358 8.358 0 009.881-3.244l53.504-82.078-114.582 66.178z" fill="#E8505B"/></svg>