<svg width="18" height="17" fill="none" xmlns="http://www.w3.org/2000/svg"><path fill-rule="evenodd" clip-rule="evenodd" d="M15.138 2.931c1.079.057 1.609.208 2.097 1.028.509.82.765 2.23.765 4.716v.008c0 2.474-.256 3.896-.764 4.706-.488.82-1.018.97-2.097 1.038-1.079.059-3.789.094-6.137.094-2.352 0-5.063-.035-6.141-.095-1.077-.069-1.607-.218-2.1-1.038C.26 12.578 0 11.156 0 8.682v-.008C0 6.19.259 4.779.762 3.96c.492-.822 1.023-.972 2.1-1.03 1.077-.068 3.788-.097 6.14-.097 2.348 0 5.058.029 6.136.098zm-2.763 5.746L6.75 5.489v6.375l5.625-3.187z" fill="#fff"/></svg>